<?xml version="1.0" encoding="utf-8" standalone="no"?>
<!DOCTYPE svg PUBLIC "-//W3C//DTD SVG 1.1//EN"
  "http://www.w3.org/Graphics/SVG/1.1/DTD/svg11.dtd">
<!-- Created with matplotlib (http://matplotlib.org/) -->
<svg height="432pt" version="1.1" viewBox="0 0 576 432" width="576pt" xmlns="http://www.w3.org/2000/svg" xmlns:xlink="http://www.w3.org/1999/xlink">
 <defs>
  <style type="text/css">
*{stroke-linecap:butt;stroke-linejoin:round;}
  </style>
 </defs>
 <g id="figure_1">
  <g id="patch_1">
   <path d="
M0 432
L576 432
L576 0
L0 0
z
" style="fill:#ffffff;"/>
  </g>
  <g id="axes_1">
   <g id="patch_2">
    <path d="
M72 388.8
L518.4 388.8
L518.4 43.2
L72 43.2
z
" style="fill:#ffffff;"/>
   </g>
   <g id="PolyCollection_1">
    <defs>
     <path d="
M72 -43.2
L72 -43.2
L73.493 -43.2
L74.986 -43.2
L76.4789 -43.2
L77.9719 -43.2
L79.4649 -43.2
L80.9579 -43.2
L82.4508 -43.2
L83.9438 -43.2
L85.4368 -43.2
L86.9298 -43.2
L88.4227 -43.2
L89.9157 -43.2
L91.4087 -43.2
L92.9017 -43.2
L94.3946 -43.2
L95.8876 -43.2
L97.3806 -43.2
L98.8736 -43.2
L100.367 -43.2
L101.86 -43.2
L103.353 -43.2
L104.845 -43.2
L106.338 -43.2
L107.831 -43.2
L109.324 -43.2
L110.817 -43.2
L112.31 -43.2
L113.803 -43.2
L115.296 -43.2
L116.789 -43.2
L118.282 -43.2
L119.775 -43.2
L121.268 -43.2
L122.761 -43.2
L124.254 -43.2
L125.747 -43.2
L127.24 -43.2
L128.733 -43.2
L130.226 -43.2
L131.719 -43.2
L133.212 -43.2
L134.705 -43.2
L136.198 -43.2
L137.691 -43.2
L139.184 -43.2
L140.677 -43.2
L142.17 -43.2
L143.663 -43.2
L145.156 -43.2
L146.649 -43.2
L148.142 -43.2
L149.635 -43.2
L151.128 -43.2
L152.621 -43.2
L154.114 -43.2
L155.607 -43.2
L157.1 -43.2
L158.593 -43.2
L160.086 -43.2
L161.579 -43.2
L163.072 -43.2
L164.565 -43.2
L166.058 -43.2
L167.551 -43.2
L169.043 -43.2
L170.536 -43.2
L172.029 -43.2
L173.522 -43.2
L175.015 -43.2
L176.508 -43.2
L178.001 -43.2
L179.494 -43.2
L180.987 -43.2
L182.48 -43.2
L183.973 -43.2
L185.466 -43.2
L186.959 -43.2
L188.452 -43.2
L189.945 -43.2
L191.438 -43.2
L192.931 -43.2
L194.424 -43.2
L195.917 -43.2
L197.41 -43.2
L198.903 -43.2
L200.396 -43.2
L201.889 -43.2
L203.382 -43.2
L204.875 -43.2
L206.368 -43.2
L207.861 -43.2
L209.354 -43.2
L210.847 -43.2
L212.34 -43.2
L213.833 -43.2
L215.326 -43.2
L216.819 -43.2
L218.312 -43.2
L219.805 -43.2
L221.298 -43.2
L222.791 -43.2
L224.284 -43.2
L225.777 -43.2
L227.27 -43.2
L228.763 -43.2
L230.256 -43.2
L231.748 -43.2
L233.241 -43.2
L234.734 -43.2
L236.227 -43.2
L237.72 -43.2
L239.213 -43.2
L240.706 -43.2
L242.199 -43.2
L243.692 -43.2
L245.185 -43.2
L246.678 -43.2
L248.171 -43.2
L249.664 -43.2
L251.157 -43.2
L252.65 -43.2
L254.143 -43.2
L255.636 -43.2
L257.129 -43.2
L258.622 -43.2
L260.115 -43.2
L261.608 -43.2
L263.101 -43.2
L264.594 -43.2
L266.087 -43.2
L267.58 -43.2
L269.073 -43.2
L270.566 -43.2
L272.059 -43.2
L273.552 -43.2
L275.045 -43.2
L276.538 -43.2
L278.031 -43.2
L279.524 -43.2
L281.017 -43.2
L282.51 -43.2
L284.003 -43.2
L285.496 -43.2
L286.989 -43.2
L288.482 -43.2
L289.975 -43.2
L291.468 -43.2
L292.961 -43.2
L294.454 -43.2
L295.946 -43.2
L297.439 -43.2
L298.932 -43.2
L300.425 -43.2
L301.918 -43.2
L303.411 -43.2
L304.904 -43.2
L306.397 -43.2
L307.89 -43.2
L309.383 -43.2
L310.876 -43.2
L312.369 -43.2
L313.862 -43.2
L315.355 -43.2
L316.848 -43.2
L318.341 -43.2
L319.834 -43.2
L321.327 -43.2
L322.82 -43.2
L324.313 -43.2
L325.806 -43.2
L327.299 -43.2
L328.792 -43.2
L330.285 -43.2
L331.778 -43.2
L333.271 -43.2
L334.764 -43.2
L336.257 -43.2
L337.75 -43.2
L339.243 -43.2
L340.736 -43.2
L342.229 -43.2
L343.722 -43.2
L345.215 -43.2
L346.708 -43.2
L348.201 -43.2
L349.694 -43.2
L351.187 -43.2
L352.68 -43.2
L354.173 -43.2
L355.666 -43.2
L357.159 -43.2
L358.652 -43.2
L360.144 -43.2
L361.637 -43.2
L363.13 -43.2
L364.623 -43.2
L366.116 -43.2
L367.609 -43.2
L369.102 -43.2
L370.595 -43.2
L372.088 -43.2
L373.581 -43.2
L375.074 -43.2
L376.567 -43.2
L378.06 -43.2
L379.553 -43.2
L381.046 -43.2
L382.539 -43.2
L384.032 -43.2
L385.525 -43.2
L387.018 -43.2
L388.511 -43.2
L390.004 -43.2
L391.497 -43.2
L392.99 -43.2
L394.483 -43.2
L395.976 -43.2
L397.469 -43.2
L398.962 -43.2
L400.455 -43.2
L401.948 -43.2
L403.441 -43.2
L404.934 -43.2
L406.427 -43.2
L407.92 -43.2
L409.413 -43.2
L410.906 -43.2
L412.399 -43.2
L413.892 -43.2
L415.385 -43.2
L416.878 -43.2
L418.371 -43.2
L419.864 -43.2
L421.357 -43.2
L422.849 -43.2
L424.342 -43.2
L425.835 -43.2
L427.328 -43.2
L428.821 -43.2
L430.314 -43.2
L431.807 -43.2
L433.3 -43.2
L434.793 -43.2
L436.286 -43.2
L437.779 -43.2
L439.272 -43.2
L440.765 -43.2
L442.258 -43.2
L443.751 -43.2
L445.244 -43.2
L446.737 -43.2
L448.23 -43.2
L449.723 -43.2
L451.216 -43.2
L452.709 -43.2
L454.202 -43.2
L455.695 -43.2
L457.188 -43.2
L458.681 -43.2
L460.174 -43.2
L461.667 -43.2
L463.16 -43.2
L464.653 -43.2
L466.146 -43.2
L467.639 -43.2
L469.132 -43.2
L470.625 -43.2
L472.118 -43.2
L473.611 -43.2
L475.104 -43.2
L476.597 -43.2
L478.09 -43.2
L479.583 -43.2
L481.076 -43.2
L482.569 -43.2
L484.062 -43.2
L485.555 -43.2
L487.047 -43.2
L488.54 -43.2
L490.033 -43.2
L491.526 -43.2
L493.019 -43.2
L494.512 -43.2
L496.005 -43.2
L497.498 -43.2
L498.991 -43.2
L500.484 -43.2
L501.977 -43.2
L503.47 -43.2
L504.963 -43.2
L506.456 -43.2
L507.949 -43.2
L509.442 -43.2
L510.935 -43.2
L512.428 -43.2
L513.921 -43.2
L515.414 -43.2
L516.907 -43.2
L518.4 -43.2
L518.4 -43.2
L518.4 -43.2
L516.907 -43.2
L515.414 -43.2
L513.921 -43.2
L512.428 -43.2
L510.935 -43.2
L509.442 -43.2
L507.949 -43.2
L506.456 -43.2
L504.963 -43.2
L503.47 -43.2
L501.977 -43.2
L500.484 -43.2
L498.991 -43.2
L497.498 -43.2
L496.005 -43.2
L494.512 -43.2
L493.019 -43.2
L491.526 -43.2
L490.033 -43.2
L488.54 -43.2
L487.047 -43.2
L485.555 -43.2
L484.062 -43.2
L482.569 -43.2
L481.076 -43.2
L479.583 -43.2
L478.09 -43.2
L476.597 -43.2
L475.104 -43.2
L473.611 -43.2
L472.118 -43.2
L470.625 -43.2
L469.132 -43.2
L467.639 -43.2
L466.146 -43.2
L464.653 -43.2
L463.16 -43.2
L461.667 -43.2
L460.174 -43.2
L458.681 -43.2
L457.188 -43.2
L455.695 -43.2
L454.202 -43.2
L452.709 -43.2
L451.216 -43.2
L449.723 -43.2
L448.23 -43.2
L446.737 -43.2
L445.244 -43.2
L443.751 -43.2
L442.258 -43.2
L440.765 -43.2
L439.272 -43.2
L437.779 -43.2
L436.286 -43.2
L434.793 -43.2
L433.3 -43.2
L431.807 -43.2
L430.314 -43.2
L428.821 -43.2
L427.328 -43.2
L425.835 -43.2
L424.342 -43.2
L422.849 -43.2
L421.357 -43.2
L419.864 -43.2
L418.371 -43.2
L416.878 -43.2
L415.385 -43.2
L413.892 -43.2
L412.399 -43.2
L410.906 -43.2
L409.413 -43.2
L407.92 -43.2
L406.427 -43.2
L404.934 -43.2
L403.441 -43.2
L401.948 -43.2
L400.455 -43.2
L398.962 -43.2
L397.469 -43.2
L395.976 -43.2
L394.483 -43.2
L392.99 -43.2
L391.497 -43.2
L390.004 -43.2
L388.511 -43.2
L387.018 -43.2
L385.525 -43.2
L384.032 -43.2
L382.539 -43.2
L381.046 -43.2
L379.553 -43.2
L378.06 -43.2
L376.567 -43.2
L375.074 -43.2
L373.581 -43.2
L372.088 -43.2
L370.595 -43.2
L369.102 -43.2
L367.609 -43.2
L366.116 -55.296
L364.623 -98.496
L363.13 -63.936
L361.637 -84.672
L360.144 -120.96
L358.652 -131.328
L357.159 -127.872
L355.666 -114.048
L354.173 -53.568
L352.68 -46.656
L351.187 -44.928
L349.694 -43.2
L348.201 -43.2
L346.708 -43.2
L345.215 -43.2
L343.722 -43.2
L342.229 -43.2
L340.736 -43.2
L339.243 -43.2
L337.75 -43.2
L336.257 -43.2
L334.764 -43.2
L333.271 -43.2
L331.778 -43.2
L330.285 -43.2
L328.792 -43.2
L327.299 -43.2
L325.806 -43.2
L324.313 -43.2
L322.82 -43.2
L321.327 -43.2
L319.834 -43.2
L318.341 -43.2
L316.848 -43.2
L315.355 -43.2
L313.862 -43.2
L312.369 -43.2
L310.876 -43.2
L309.383 -43.2
L307.89 -43.2
L306.397 -43.2
L304.904 -43.2
L303.411 -43.2
L301.918 -43.2
L300.425 -43.2
L298.932 -43.2
L297.439 -43.2
L295.946 -43.2
L294.454 -43.2
L292.961 -43.2
L291.468 -43.2
L289.975 -43.2
L288.482 -43.2
L286.989 -43.2
L285.496 -43.2
L284.003 -43.2
L282.51 -43.2
L281.017 -43.2
L279.524 -43.2
L278.031 -43.2
L276.538 -43.2
L275.045 -43.2
L273.552 -43.2
L272.059 -43.2
L270.566 -43.2
L269.073 -43.2
L267.58 -43.2
L266.087 -43.2
L264.594 -43.2
L263.101 -43.2
L261.608 -43.2
L260.115 -43.2
L258.622 -43.2
L257.129 -43.2
L255.636 -43.2
L254.143 -43.2
L252.65 -43.2
L251.157 -43.2
L249.664 -43.2
L248.171 -43.2
L246.678 -43.2
L245.185 -43.2
L243.692 -43.2
L242.199 -43.2
L240.706 -43.2
L239.213 -43.2
L237.72 -43.2
L236.227 -43.2
L234.734 -43.2
L233.241 -43.2
L231.748 -43.2
L230.256 -44.928
L228.763 -44.928
L227.27 -44.928
L225.777 -65.664
L224.284 -110.592
L222.791 -108.864
L221.298 -115.776
L219.805 -120.96
L218.312 -76.032
L216.819 -63.936
L215.326 -88.128
L213.833 -44.928
L212.34 -44.928
L210.847 -43.2
L209.354 -43.2
L207.861 -43.2
L206.368 -43.2
L204.875 -43.2
L203.382 -43.2
L201.889 -43.2
L200.396 -43.2
L198.903 -43.2
L197.41 -43.2
L195.917 -43.2
L194.424 -43.2
L192.931 -43.2
L191.438 -43.2
L189.945 -43.2
L188.452 -43.2
L186.959 -43.2
L185.466 -43.2
L183.973 -43.2
L182.48 -43.2
L180.987 -43.2
L179.494 -43.2
L178.001 -43.2
L176.508 -43.2
L175.015 -43.2
L173.522 -43.2
L172.029 -43.2
L170.536 -43.2
L169.043 -43.2
L167.551 -43.2
L166.058 -43.2
L164.565 -43.2
L163.072 -43.2
L161.579 -43.2
L160.086 -43.2
L158.593 -43.2
L157.1 -43.2
L155.607 -43.2
L154.114 -43.2
L152.621 -43.2
L151.128 -43.2
L149.635 -43.2
L148.142 -43.2
L146.649 -43.2
L145.156 -43.2
L143.663 -43.2
L142.17 -43.2
L140.677 -43.2
L139.184 -43.2
L137.691 -43.2
L136.198 -43.2
L134.705 -43.2
L133.212 -43.2
L131.719 -43.2
L130.226 -43.2
L128.733 -43.2
L127.24 -43.2
L125.747 -43.2
L124.254 -43.2
L122.761 -43.2
L121.268 -43.2
L119.775 -43.2
L118.282 -43.2
L116.789 -43.2
L115.296 -43.2
L113.803 -43.2
L112.31 -43.2
L110.817 -43.2
L109.324 -43.2
L107.831 -43.2
L106.338 -43.2
L104.845 -43.2
L103.353 -43.2
L101.86 -43.2
L100.367 -43.2
L98.8736 -43.2
L97.3806 -43.2
L95.8876 -43.2
L94.3946 -43.2
L92.9017 -43.2
L91.4087 -43.2
L89.9157 -43.2
L88.4227 -43.2
L86.9298 -43.2
L85.4368 -43.2
L83.9438 -43.2
L82.4508 -43.2
L80.9579 -43.2
L79.4649 -43.2
L77.9719 -43.2
L76.4789 -43.2
L74.986 -43.2
L73.493 -43.2
L72 -43.2
z
" id="C0_0_1d3f3efff1"/>
    </defs>
    <g clip-path="url(#p7ff5b81e1d)">
     <use style="fill:#0000ff;stroke:#0000ff;" x="0.0" xlink:href="#C0_0_1d3f3efff1" y="432.0"/>
    </g>
   </g>
   <g id="PolyCollection_2">
    <defs>
     <path d="
M72 -43.2
L72 -43.2
L73.493 -43.2
L74.986 -43.2
L76.4789 -43.2
L77.9719 -43.2
L79.4649 -43.2
L80.9579 -43.2
L82.4508 -43.2
L83.9438 -43.2
L85.4368 -43.2
L86.9298 -43.2
L88.4227 -43.2
L89.9157 -43.2
L91.4087 -43.2
L92.9017 -43.2
L94.3946 -43.2
L95.8876 -43.2
L97.3806 -43.2
L98.8736 -43.2
L100.367 -43.2
L101.86 -43.2
L103.353 -43.2
L104.845 -43.2
L106.338 -43.2
L107.831 -43.2
L109.324 -43.2
L110.817 -43.2
L112.31 -43.2
L113.803 -43.2
L115.296 -43.2
L116.789 -43.2
L118.282 -43.2
L119.775 -43.2
L121.268 -43.2
L122.761 -43.2
L124.254 -43.2
L125.747 -43.2
L127.24 -43.2
L128.733 -43.2
L130.226 -43.2
L131.719 -43.2
L133.212 -43.2
L134.705 -43.2
L136.198 -43.2
L137.691 -43.2
L139.184 -43.2
L140.677 -43.2
L142.17 -43.2
L143.663 -43.2
L145.156 -43.2
L146.649 -43.2
L148.142 -43.2
L149.635 -43.2
L151.128 -43.2
L152.621 -43.2
L154.114 -43.2
L155.607 -43.2
L157.1 -43.2
L158.593 -43.2
L160.086 -43.2
L161.579 -43.2
L163.072 -43.2
L164.565 -43.2
L166.058 -43.2
L167.551 -43.2
L169.043 -43.2
L170.536 -43.2
L172.029 -43.2
L173.522 -43.2
L175.015 -43.2
L176.508 -43.2
L178.001 -43.2
L179.494 -43.2
L180.987 -43.2
L182.48 -43.2
L183.973 -43.2
L185.466 -43.2
L186.959 -43.2
L188.452 -43.2
L189.945 -43.2
L191.438 -43.2
L192.931 -43.2
L194.424 -43.2
L195.917 -43.2
L197.41 -43.2
L198.903 -43.2
L200.396 -43.2
L201.889 -43.2
L203.382 -43.2
L204.875 -43.2
L206.368 -43.2
L207.861 -43.2
L209.354 -43.2
L210.847 -43.2
L212.34 -44.928
L213.833 -44.928
L215.326 -88.128
L216.819 -63.936
L218.312 -76.032
L219.805 -120.96
L221.298 -115.776
L222.791 -108.864
L224.284 -110.592
L225.777 -65.664
L227.27 -44.928
L228.763 -44.928
L230.256 -44.928
L231.748 -43.2
L233.241 -43.2
L234.734 -43.2
L236.227 -43.2
L237.72 -43.2
L239.213 -43.2
L240.706 -43.2
L242.199 -43.2
L243.692 -43.2
L245.185 -43.2
L246.678 -43.2
L248.171 -43.2
L249.664 -43.2
L251.157 -43.2
L252.65 -43.2
L254.143 -43.2
L255.636 -43.2
L257.129 -43.2
L258.622 -43.2
L260.115 -43.2
L261.608 -43.2
L263.101 -43.2
L264.594 -43.2
L266.087 -43.2
L267.58 -43.2
L269.073 -43.2
L270.566 -43.2
L272.059 -43.2
L273.552 -43.2
L275.045 -43.2
L276.538 -43.2
L278.031 -43.2
L279.524 -43.2
L281.017 -43.2
L282.51 -43.2
L284.003 -43.2
L285.496 -43.2
L286.989 -43.2
L288.482 -43.2
L289.975 -43.2
L291.468 -43.2
L292.961 -43.2
L294.454 -43.2
L295.946 -43.2
L297.439 -43.2
L298.932 -43.2
L300.425 -43.2
L301.918 -43.2
L303.411 -43.2
L304.904 -43.2
L306.397 -43.2
L307.89 -43.2
L309.383 -43.2
L310.876 -43.2
L312.369 -43.2
L313.862 -43.2
L315.355 -43.2
L316.848 -43.2
L318.341 -43.2
L319.834 -43.2
L321.327 -43.2
L322.82 -43.2
L324.313 -43.2
L325.806 -43.2
L327.299 -43.2
L328.792 -43.2
L330.285 -43.2
L331.778 -43.2
L333.271 -43.2
L334.764 -43.2
L336.257 -43.2
L337.75 -43.2
L339.243 -43.2
L340.736 -43.2
L342.229 -43.2
L343.722 -43.2
L345.215 -43.2
L346.708 -43.2
L348.201 -43.2
L349.694 -43.2
L351.187 -44.928
L352.68 -46.656
L354.173 -53.568
L355.666 -114.048
L357.159 -127.872
L358.652 -131.328
L360.144 -120.96
L361.637 -84.672
L363.13 -63.936
L364.623 -98.496
L366.116 -55.296
L367.609 -43.2
L369.102 -43.2
L370.595 -43.2
L372.088 -43.2
L373.581 -43.2
L375.074 -43.2
L376.567 -43.2
L378.06 -43.2
L379.553 -43.2
L381.046 -43.2
L382.539 -43.2
L384.032 -43.2
L385.525 -43.2
L387.018 -43.2
L388.511 -43.2
L390.004 -43.2
L391.497 -43.2
L392.99 -43.2
L394.483 -43.2
L395.976 -43.2
L397.469 -43.2
L398.962 -43.2
L400.455 -43.2
L401.948 -43.2
L403.441 -43.2
L404.934 -43.2
L406.427 -43.2
L407.92 -43.2
L409.413 -43.2
L410.906 -43.2
L412.399 -43.2
L413.892 -43.2
L415.385 -43.2
L416.878 -43.2
L418.371 -43.2
L419.864 -43.2
L421.357 -43.2
L422.849 -43.2
L424.342 -43.2
L425.835 -43.2
L427.328 -43.2
L428.821 -43.2
L430.314 -43.2
L431.807 -43.2
L433.3 -43.2
L434.793 -43.2
L436.286 -43.2
L437.779 -43.2
L439.272 -43.2
L440.765 -43.2
L442.258 -43.2
L443.751 -43.2
L445.244 -43.2
L446.737 -43.2
L448.23 -43.2
L449.723 -43.2
L451.216 -43.2
L452.709 -43.2
L454.202 -43.2
L455.695 -43.2
L457.188 -43.2
L458.681 -43.2
L460.174 -43.2
L461.667 -43.2
L463.16 -43.2
L464.653 -43.2
L466.146 -43.2
L467.639 -43.2
L469.132 -43.2
L470.625 -43.2
L472.118 -43.2
L473.611 -43.2
L475.104 -43.2
L476.597 -43.2
L478.09 -43.2
L479.583 -43.2
L481.076 -43.2
L482.569 -43.2
L484.062 -43.2
L485.555 -43.2
L487.047 -43.2
L488.54 -43.2
L490.033 -43.2
L491.526 -43.2
L493.019 -43.2
L494.512 -43.2
L496.005 -43.2
L497.498 -43.2
L498.991 -43.2
L500.484 -43.2
L501.977 -43.2
L503.47 -43.2
L504.963 -43.2
L506.456 -43.2
L507.949 -43.2
L509.442 -43.2
L510.935 -43.2
L512.428 -43.2
L513.921 -43.2
L515.414 -43.2
L516.907 -43.2
L518.4 -43.2
L518.4 -43.2
L518.4 -43.2
L516.907 -43.2
L515.414 -43.2
L513.921 -43.2
L512.428 -43.2
L510.935 -43.2
L509.442 -43.2
L507.949 -43.2
L506.456 -43.2
L504.963 -43.2
L503.47 -43.2
L501.977 -43.2
L500.484 -43.2
L498.991 -43.2
L497.498 -43.2
L496.005 -43.2
L494.512 -43.2
L493.019 -43.2
L491.526 -43.2
L490.033 -43.2
L488.54 -43.2
L487.047 -43.2
L485.555 -43.2
L484.062 -43.2
L482.569 -43.2
L481.076 -43.2
L479.583 -43.2
L478.09 -43.2
L476.597 -43.2
L475.104 -43.2
L473.611 -43.2
L472.118 -43.2
L470.625 -43.2
L469.132 -43.2
L467.639 -43.2
L466.146 -43.2
L464.653 -43.2
L463.16 -43.2
L461.667 -43.2
L460.174 -43.2
L458.681 -43.2
L457.188 -43.2
L455.695 -43.2
L454.202 -43.2
L452.709 -43.2
L451.216 -43.2
L449.723 -43.2
L448.23 -43.2
L446.737 -43.2
L445.244 -43.2
L443.751 -43.2
L442.258 -43.2
L440.765 -43.2
L439.272 -43.2
L437.779 -43.2
L436.286 -43.2
L434.793 -43.2
L433.3 -43.2
L431.807 -43.2
L430.314 -43.2
L428.821 -43.2
L427.328 -43.2
L425.835 -43.2
L424.342 -43.2
L422.849 -43.2
L421.357 -43.2
L419.864 -43.2
L418.371 -43.2
L416.878 -43.2
L415.385 -43.2
L413.892 -43.2
L412.399 -43.2
L410.906 -43.2
L409.413 -43.2
L407.92 -43.2
L406.427 -43.2
L404.934 -43.2
L403.441 -43.2
L401.948 -43.2
L400.455 -43.2
L398.962 -43.2
L397.469 -43.2
L395.976 -43.2
L394.483 -43.2
L392.99 -43.2
L391.497 -43.2
L390.004 -43.2
L388.511 -43.2
L387.018 -43.2
L385.525 -43.2
L384.032 -43.2
L382.539 -43.2
L381.046 -43.2
L379.553 -43.2
L378.06 -43.2
L376.567 -43.2
L375.074 -43.2
L373.581 -43.2
L372.088 -43.2
L370.595 -43.2
L369.102 -43.2
L367.609 -50.112
L366.116 -67.392
L364.623 -148.608
L363.13 -88.128
L361.637 -115.776
L360.144 -169.344
L358.652 -177.984
L357.159 -195.264
L355.666 -183.168
L354.173 -69.12
L352.68 -53.568
L351.187 -44.928
L349.694 -43.2
L348.201 -43.2
L346.708 -43.2
L345.215 -43.2
L343.722 -43.2
L342.229 -43.2
L340.736 -43.2
L339.243 -43.2
L337.75 -43.2
L336.257 -43.2
L334.764 -43.2
L333.271 -43.2
L331.778 -43.2
L330.285 -43.2
L328.792 -43.2
L327.299 -43.2
L325.806 -43.2
L324.313 -43.2
L322.82 -43.2
L321.327 -43.2
L319.834 -43.2
L318.341 -43.2
L316.848 -43.2
L315.355 -43.2
L313.862 -43.2
L312.369 -43.2
L310.876 -43.2
L309.383 -43.2
L307.89 -43.2
L306.397 -43.2
L304.904 -43.2
L303.411 -43.2
L301.918 -43.2
L300.425 -43.2
L298.932 -43.2
L297.439 -43.2
L295.946 -43.2
L294.454 -43.2
L292.961 -43.2
L291.468 -43.2
L289.975 -43.2
L288.482 -43.2
L286.989 -43.2
L285.496 -43.2
L284.003 -43.2
L282.51 -43.2
L281.017 -43.2
L279.524 -43.2
L278.031 -43.2
L276.538 -43.2
L275.045 -43.2
L273.552 -43.2
L272.059 -43.2
L270.566 -43.2
L269.073 -43.2
L267.58 -43.2
L266.087 -43.2
L264.594 -43.2
L263.101 -43.2
L261.608 -43.2
L260.115 -43.2
L258.622 -43.2
L257.129 -43.2
L255.636 -43.2
L254.143 -43.2
L252.65 -43.2
L251.157 -43.2
L249.664 -43.2
L248.171 -43.2
L246.678 -43.2
L245.185 -43.2
L243.692 -43.2
L242.199 -43.2
L240.706 -43.2
L239.213 -43.2
L237.72 -43.2
L236.227 -43.2
L234.734 -43.2
L233.241 -43.2
L231.748 -43.2
L230.256 -44.928
L228.763 -44.928
L227.27 -44.928
L225.777 -70.848
L224.284 -131.328
L222.791 -195.264
L221.298 -198.72
L219.805 -210.816
L218.312 -162.432
L216.819 -96.768
L215.326 -136.512
L213.833 -95.04
L212.34 -51.84
L210.847 -44.928
L209.354 -43.2
L207.861 -43.2
L206.368 -43.2
L204.875 -43.2
L203.382 -43.2
L201.889 -43.2
L200.396 -43.2
L198.903 -43.2
L197.41 -43.2
L195.917 -43.2
L194.424 -43.2
L192.931 -43.2
L191.438 -43.2
L189.945 -43.2
L188.452 -43.2
L186.959 -43.2
L185.466 -43.2
L183.973 -43.2
L182.48 -43.2
L180.987 -43.2
L179.494 -43.2
L178.001 -43.2
L176.508 -43.2
L175.015 -43.2
L173.522 -43.2
L172.029 -43.2
L170.536 -43.2
L169.043 -43.2
L167.551 -43.2
L166.058 -43.2
L164.565 -43.2
L163.072 -43.2
L161.579 -43.2
L160.086 -43.2
L158.593 -43.2
L157.1 -43.2
L155.607 -43.2
L154.114 -43.2
L152.621 -43.2
L151.128 -43.2
L149.635 -43.2
L148.142 -43.2
L146.649 -43.2
L145.156 -43.2
L143.663 -43.2
L142.17 -43.2
L140.677 -43.2
L139.184 -43.2
L137.691 -43.2
L136.198 -43.2
L134.705 -43.2
L133.212 -43.2
L131.719 -43.2
L130.226 -43.2
L128.733 -43.2
L127.24 -43.2
L125.747 -43.2
L124.254 -43.2
L122.761 -43.2
L121.268 -43.2
L119.775 -43.2
L118.282 -43.2
L116.789 -43.2
L115.296 -43.2
L113.803 -43.2
L112.31 -43.2
L110.817 -43.2
L109.324 -43.2
L107.831 -43.2
L106.338 -43.2
L104.845 -43.2
L103.353 -43.2
L101.86 -43.2
L100.367 -43.2
L98.8736 -43.2
L97.3806 -43.2
L95.8876 -43.2
L94.3946 -43.2
L92.9017 -43.2
L91.4087 -43.2
L89.9157 -43.2
L88.4227 -43.2
L86.9298 -43.2
L85.4368 -43.2
L83.9438 -43.2
L82.4508 -43.2
L80.9579 -43.2
L79.4649 -43.2
L77.9719 -43.2
L76.4789 -43.2
L74.986 -43.2
L73.493 -43.2
L72 -43.2
z
" id="C1_0_dfbe27a99d"/>
    </defs>
    <g clip-path="url(#p7ff5b81e1d)">
     <use style="fill:#008000;stroke:#008000;" x="0.0" xlink:href="#C1_0_dfbe27a99d" y="432.0"/>
    </g>
   </g>
   <g id="PolyCollection_3">
    <defs>
     <path d="
M72 -43.2
L72 -43.2
L73.493 -43.2
L74.986 -43.2
L76.4789 -43.2
L77.9719 -43.2
L79.4649 -43.2
L80.9579 -43.2
L82.4508 -43.2
L83.9438 -43.2
L85.4368 -43.2
L86.9298 -43.2
L88.4227 -43.2
L89.9157 -43.2
L91.4087 -43.2
L92.9017 -43.2
L94.3946 -43.2
L95.8876 -43.2
L97.3806 -43.2
L98.8736 -43.2
L100.367 -43.2
L101.86 -43.2
L103.353 -43.2
L104.845 -43.2
L106.338 -43.2
L107.831 -43.2
L109.324 -43.2
L110.817 -43.2
L112.31 -43.2
L113.803 -43.2
L115.296 -43.2
L116.789 -43.2
L118.282 -43.2
L119.775 -43.2
L121.268 -43.2
L122.761 -43.2
L124.254 -43.2
L125.747 -43.2
L127.24 -43.2
L128.733 -43.2
L130.226 -43.2
L131.719 -43.2
L133.212 -43.2
L134.705 -43.2
L136.198 -43.2
L137.691 -43.2
L139.184 -43.2
L140.677 -43.2
L142.17 -43.2
L143.663 -43.2
L145.156 -43.2
L146.649 -43.2
L148.142 -43.2
L149.635 -43.2
L151.128 -43.2
L152.621 -43.2
L154.114 -43.2
L155.607 -43.2
L157.1 -43.2
L158.593 -43.2
L160.086 -43.2
L161.579 -43.2
L163.072 -43.2
L164.565 -43.2
L166.058 -43.2
L167.551 -43.2
L169.043 -43.2
L170.536 -43.2
L172.029 -43.2
L173.522 -43.2
L175.015 -43.2
L176.508 -43.2
L178.001 -43.2
L179.494 -43.2
L180.987 -43.2
L182.48 -43.2
L183.973 -43.2
L185.466 -43.2
L186.959 -43.2
L188.452 -43.2
L189.945 -43.2
L191.438 -43.2
L192.931 -43.2
L194.424 -43.2
L195.917 -43.2
L197.41 -43.2
L198.903 -43.2
L200.396 -43.2
L201.889 -43.2
L203.382 -43.2
L204.875 -43.2
L206.368 -43.2
L207.861 -43.2
L209.354 -43.2
L210.847 -44.928
L212.34 -51.84
L213.833 -95.04
L215.326 -136.512
L216.819 -96.768
L218.312 -162.432
L219.805 -210.816
L221.298 -198.72
L222.791 -195.264
L224.284 -131.328
L225.777 -70.848
L227.27 -44.928
L228.763 -44.928
L230.256 -44.928
L231.748 -43.2
L233.241 -43.2
L234.734 -43.2
L236.227 -43.2
L237.72 -43.2
L239.213 -43.2
L240.706 -43.2
L242.199 -43.2
L243.692 -43.2
L245.185 -43.2
L246.678 -43.2
L248.171 -43.2
L249.664 -43.2
L251.157 -43.2
L252.65 -43.2
L254.143 -43.2
L255.636 -43.2
L257.129 -43.2
L258.622 -43.2
L260.115 -43.2
L261.608 -43.2
L263.101 -43.2
L264.594 -43.2
L266.087 -43.2
L267.58 -43.2
L269.073 -43.2
L270.566 -43.2
L272.059 -43.2
L273.552 -43.2
L275.045 -43.2
L276.538 -43.2
L278.031 -43.2
L279.524 -43.2
L281.017 -43.2
L282.51 -43.2
L284.003 -43.2
L285.496 -43.2
L286.989 -43.2
L288.482 -43.2
L289.975 -43.2
L291.468 -43.2
L292.961 -43.2
L294.454 -43.2
L295.946 -43.2
L297.439 -43.2
L298.932 -43.2
L300.425 -43.2
L301.918 -43.2
L303.411 -43.2
L304.904 -43.2
L306.397 -43.2
L307.89 -43.2
L309.383 -43.2
L310.876 -43.2
L312.369 -43.2
L313.862 -43.2
L315.355 -43.2
L316.848 -43.2
L318.341 -43.2
L319.834 -43.2
L321.327 -43.2
L322.82 -43.2
L324.313 -43.2
L325.806 -43.2
L327.299 -43.2
L328.792 -43.2
L330.285 -43.2
L331.778 -43.2
L333.271 -43.2
L334.764 -43.2
L336.257 -43.2
L337.75 -43.2
L339.243 -43.2
L340.736 -43.2
L342.229 -43.2
L343.722 -43.2
L345.215 -43.2
L346.708 -43.2
L348.201 -43.2
L349.694 -43.2
L351.187 -44.928
L352.68 -53.568
L354.173 -69.12
L355.666 -183.168
L357.159 -195.264
L358.652 -177.984
L360.144 -169.344
L361.637 -115.776
L363.13 -88.128
L364.623 -148.608
L366.116 -67.392
L367.609 -50.112
L369.102 -43.2
L370.595 -43.2
L372.088 -43.2
L373.581 -43.2
L375.074 -43.2
L376.567 -43.2
L378.06 -43.2
L379.553 -43.2
L381.046 -43.2
L382.539 -43.2
L384.032 -43.2
L385.525 -43.2
L387.018 -43.2
L388.511 -43.2
L390.004 -43.2
L391.497 -43.2
L392.99 -43.2
L394.483 -43.2
L395.976 -43.2
L397.469 -43.2
L398.962 -43.2
L400.455 -43.2
L401.948 -43.2
L403.441 -43.2
L404.934 -43.2
L406.427 -43.2
L407.92 -43.2
L409.413 -43.2
L410.906 -43.2
L412.399 -43.2
L413.892 -43.2
L415.385 -43.2
L416.878 -43.2
L418.371 -43.2
L419.864 -43.2
L421.357 -43.2
L422.849 -43.2
L424.342 -43.2
L425.835 -43.2
L427.328 -43.2
L428.821 -43.2
L430.314 -43.2
L431.807 -43.2
L433.3 -43.2
L434.793 -43.2
L436.286 -43.2
L437.779 -43.2
L439.272 -43.2
L440.765 -43.2
L442.258 -43.2
L443.751 -43.2
L445.244 -43.2
L446.737 -43.2
L448.23 -43.2
L449.723 -43.2
L451.216 -43.2
L452.709 -43.2
L454.202 -43.2
L455.695 -43.2
L457.188 -43.2
L458.681 -43.2
L460.174 -43.2
L461.667 -43.2
L463.16 -43.2
L464.653 -43.2
L466.146 -43.2
L467.639 -43.2
L469.132 -43.2
L470.625 -43.2
L472.118 -43.2
L473.611 -43.2
L475.104 -43.2
L476.597 -43.2
L478.09 -43.2
L479.583 -43.2
L481.076 -43.2
L482.569 -43.2
L484.062 -43.2
L485.555 -43.2
L487.047 -43.2
L488.54 -43.2
L490.033 -43.2
L491.526 -43.2
L493.019 -43.2
L494.512 -43.2
L496.005 -43.2
L497.498 -43.2
L498.991 -43.2
L500.484 -43.2
L501.977 -43.2
L503.47 -43.2
L504.963 -43.2
L506.456 -43.2
L507.949 -43.2
L509.442 -43.2
L510.935 -43.2
L512.428 -43.2
L513.921 -43.2
L515.414 -43.2
L516.907 -43.2
L518.4 -43.2
L518.4 -43.2
L518.4 -43.2
L516.907 -43.2
L515.414 -43.2
L513.921 -43.2
L512.428 -43.2
L510.935 -43.2
L509.442 -43.2
L507.949 -43.2
L506.456 -43.2
L504.963 -43.2
L503.47 -43.2
L501.977 -43.2
L500.484 -43.2
L498.991 -43.2
L497.498 -43.2
L496.005 -43.2
L494.512 -43.2
L493.019 -43.2
L491.526 -43.2
L490.033 -43.2
L488.54 -43.2
L487.047 -43.2
L485.555 -43.2
L484.062 -43.2
L482.569 -43.2
L481.076 -43.2
L479.583 -43.2
L478.09 -43.2
L476.597 -43.2
L475.104 -43.2
L473.611 -43.2
L472.118 -43.2
L470.625 -43.2
L469.132 -43.2
L467.639 -43.2
L466.146 -43.2
L464.653 -43.2
L463.16 -43.2
L461.667 -43.2
L460.174 -43.2
L458.681 -43.2
L457.188 -43.2
L455.695 -43.2
L454.202 -43.2
L452.709 -43.2
L451.216 -43.2
L449.723 -43.2
L448.23 -43.2
L446.737 -43.2
L445.244 -43.2
L443.751 -43.2
L442.258 -43.2
L440.765 -43.2
L439.272 -43.2
L437.779 -43.2
L436.286 -43.2
L434.793 -43.2
L433.3 -43.2
L431.807 -43.2
L430.314 -43.2
L428.821 -43.2
L427.328 -43.2
L425.835 -43.2
L424.342 -43.2
L422.849 -43.2
L421.357 -43.2
L419.864 -43.2
L418.371 -43.2
L416.878 -43.2
L415.385 -43.2
L413.892 -43.2
L412.399 -43.2
L410.906 -43.2
L409.413 -43.2
L407.92 -43.2
L406.427 -43.2
L404.934 -43.2
L403.441 -43.2
L401.948 -43.2
L400.455 -43.2
L398.962 -43.2
L397.469 -43.2
L395.976 -43.2
L394.483 -43.2
L392.99 -43.2
L391.497 -43.2
L390.004 -43.2
L388.511 -43.2
L387.018 -43.2
L385.525 -43.2
L384.032 -43.2
L382.539 -43.2
L381.046 -43.2
L379.553 -43.2
L378.06 -43.2
L376.567 -43.2
L375.074 -43.2
L373.581 -43.2
L372.088 -43.2
L370.595 -43.2
L369.102 -43.2
L367.609 -50.112
L366.116 -67.392
L364.623 -148.608
L363.13 -88.128
L361.637 -115.776
L360.144 -169.344
L358.652 -177.984
L357.159 -195.264
L355.666 -183.168
L354.173 -69.12
L352.68 -53.568
L351.187 -44.928
L349.694 -43.2
L348.201 -43.2
L346.708 -43.2
L345.215 -43.2
L343.722 -50.112
L342.229 -72.576
L340.736 -62.208
L339.243 -62.208
L337.75 -79.488
L336.257 -101.952
L334.764 -69.12
L333.271 -86.4
L331.778 -58.752
L330.285 -48.384
L328.792 -43.2
L327.299 -44.928
L325.806 -43.2
L324.313 -43.2
L322.82 -43.2
L321.327 -43.2
L319.834 -43.2
L318.341 -43.2
L316.848 -43.2
L315.355 -43.2
L313.862 -43.2
L312.369 -43.2
L310.876 -43.2
L309.383 -43.2
L307.89 -43.2
L306.397 -43.2
L304.904 -43.2
L303.411 -43.2
L301.918 -43.2
L300.425 -43.2
L298.932 -43.2
L297.439 -43.2
L295.946 -43.2
L294.454 -43.2
L292.961 -43.2
L291.468 -43.2
L289.975 -43.2
L288.482 -43.2
L286.989 -43.2
L285.496 -43.2
L284.003 -43.2
L282.51 -43.2
L281.017 -43.2
L279.524 -43.2
L278.031 -43.2
L276.538 -43.2
L275.045 -43.2
L273.552 -43.2
L272.059 -43.2
L270.566 -43.2
L269.073 -43.2
L267.58 -43.2
L266.087 -43.2
L264.594 -43.2
L263.101 -43.2
L261.608 -43.2
L260.115 -43.2
L258.622 -43.2
L257.129 -43.2
L255.636 -43.2
L254.143 -43.2
L252.65 -43.2
L251.157 -43.2
L249.664 -43.2
L248.171 -43.2
L246.678 -43.2
L245.185 -43.2
L243.692 -43.2
L242.199 -43.2
L240.706 -43.2
L239.213 -43.2
L237.72 -43.2
L236.227 -43.2
L234.734 -43.2
L233.241 -43.2
L231.748 -43.2
L230.256 -44.928
L228.763 -44.928
L227.27 -44.928
L225.777 -70.848
L224.284 -131.328
L222.791 -195.264
L221.298 -198.72
L219.805 -210.816
L218.312 -162.432
L216.819 -96.768
L215.326 -136.512
L213.833 -95.04
L212.34 -51.84
L210.847 -44.928
L209.354 -43.2
L207.861 -43.2
L206.368 -43.2
L204.875 -43.2
L203.382 -48.384
L201.889 -72.576
L200.396 -115.776
L198.903 -134.784
L197.41 -134.784
L195.917 -133.056
L194.424 -67.392
L192.931 -72.576
L191.438 -43.2
L189.945 -43.2
L188.452 -43.2
L186.959 -43.2
L185.466 -43.2
L183.973 -43.2
L182.48 -43.2
L180.987 -43.2
L179.494 -43.2
L178.001 -43.2
L176.508 -43.2
L175.015 -43.2
L173.522 -43.2
L172.029 -43.2
L170.536 -43.2
L169.043 -43.2
L167.551 -43.2
L166.058 -43.2
L164.565 -43.2
L163.072 -43.2
L161.579 -43.2
L160.086 -43.2
L158.593 -43.2
L157.1 -43.2
L155.607 -43.2
L154.114 -43.2
L152.621 -43.2
L151.128 -43.2
L149.635 -43.2
L148.142 -43.2
L146.649 -43.2
L145.156 -43.2
L143.663 -43.2
L142.17 -43.2
L140.677 -43.2
L139.184 -43.2
L137.691 -43.2
L136.198 -43.2
L134.705 -43.2
L133.212 -43.2
L131.719 -43.2
L130.226 -43.2
L128.733 -43.2
L127.24 -43.2
L125.747 -43.2
L124.254 -43.2
L122.761 -43.2
L121.268 -43.2
L119.775 -43.2
L118.282 -43.2
L116.789 -43.2
L115.296 -43.2
L113.803 -43.2
L112.31 -43.2
L110.817 -43.2
L109.324 -43.2
L107.831 -43.2
L106.338 -43.2
L104.845 -43.2
L103.353 -43.2
L101.86 -43.2
L100.367 -43.2
L98.8736 -43.2
L97.3806 -43.2
L95.8876 -43.2
L94.3946 -43.2
L92.9017 -43.2
L91.4087 -43.2
L89.9157 -43.2
L88.4227 -43.2
L86.9298 -43.2
L85.4368 -43.2
L83.9438 -43.2
L82.4508 -43.2
L80.9579 -43.2
L79.4649 -43.2
L77.9719 -43.2
L76.4789 -43.2
L74.986 -43.2
L73.493 -43.2
L72 -43.2
z
" id="C2_0_4dbefe4901"/>
    </defs>
    <g clip-path="url(#p7ff5b81e1d)">
     <use style="fill:#ff0000;stroke:#ff0000;" x="0.0" xlink:href="#C2_0_4dbefe4901" y="432.0"/>
    </g>
   </g>
   <g id="PolyCollection_4">
    <defs>
     <path d="
M72 -43.2
L72 -43.2
L73.493 -43.2
L74.986 -43.2
L76.4789 -43.2
L77.9719 -43.2
L79.4649 -43.2
L80.9579 -43.2
L82.4508 -43.2
L83.9438 -43.2
L85.4368 -43.2
L86.9298 -43.2
L88.4227 -43.2
L89.9157 -43.2
L91.4087 -43.2
L92.9017 -43.2
L94.3946 -43.2
L95.8876 -43.2
L97.3806 -43.2
L98.8736 -43.2
L100.367 -43.2
L101.86 -43.2
L103.353 -43.2
L104.845 -43.2
L106.338 -43.2
L107.831 -43.2
L109.324 -43.2
L110.817 -43.2
L112.31 -43.2
L113.803 -43.2
L115.296 -43.2
L116.789 -43.2
L118.282 -43.2
L119.775 -43.2
L121.268 -43.2
L122.761 -43.2
L124.254 -43.2
L125.747 -43.2
L127.24 -43.2
L128.733 -43.2
L130.226 -43.2
L131.719 -43.2
L133.212 -43.2
L134.705 -43.2
L136.198 -43.2
L137.691 -43.2
L139.184 -43.2
L140.677 -43.2
L142.17 -43.2
L143.663 -43.2
L145.156 -43.2
L146.649 -43.2
L148.142 -43.2
L149.635 -43.2
L151.128 -43.2
L152.621 -43.2
L154.114 -43.2
L155.607 -43.2
L157.1 -43.2
L158.593 -43.2
L160.086 -43.2
L161.579 -43.2
L163.072 -43.2
L164.565 -43.2
L166.058 -43.2
L167.551 -43.2
L169.043 -43.2
L170.536 -43.2
L172.029 -43.2
L173.522 -43.2
L175.015 -43.2
L176.508 -43.2
L178.001 -43.2
L179.494 -43.2
L180.987 -43.2
L182.48 -43.2
L183.973 -43.2
L185.466 -43.2
L186.959 -43.2
L188.452 -43.2
L189.945 -43.2
L191.438 -43.2
L192.931 -72.576
L194.424 -67.392
L195.917 -133.056
L197.41 -134.784
L198.903 -134.784
L200.396 -115.776
L201.889 -72.576
L203.382 -48.384
L204.875 -43.2
L206.368 -43.2
L207.861 -43.2
L209.354 -43.2
L210.847 -44.928
L212.34 -51.84
L213.833 -95.04
L215.326 -136.512
L216.819 -96.768
L218.312 -162.432
L219.805 -210.816
L221.298 -198.72
L222.791 -195.264
L224.284 -131.328
L225.777 -70.848
L227.27 -44.928
L228.763 -44.928
L230.256 -44.928
L231.748 -43.2
L233.241 -43.2
L234.734 -43.2
L236.227 -43.2
L237.72 -43.2
L239.213 -43.2
L240.706 -43.2
L242.199 -43.2
L243.692 -43.2
L245.185 -43.2
L246.678 -43.2
L248.171 -43.2
L249.664 -43.2
L251.157 -43.2
L252.65 -43.2
L254.143 -43.2
L255.636 -43.2
L257.129 -43.2
L258.622 -43.2
L260.115 -43.2
L261.608 -43.2
L263.101 -43.2
L264.594 -43.2
L266.087 -43.2
L267.58 -43.2
L269.073 -43.2
L270.566 -43.2
L272.059 -43.2
L273.552 -43.2
L275.045 -43.2
L276.538 -43.2
L278.031 -43.2
L279.524 -43.2
L281.017 -43.2
L282.51 -43.2
L284.003 -43.2
L285.496 -43.2
L286.989 -43.2
L288.482 -43.2
L289.975 -43.2
L291.468 -43.2
L292.961 -43.2
L294.454 -43.2
L295.946 -43.2
L297.439 -43.2
L298.932 -43.2
L300.425 -43.2
L301.918 -43.2
L303.411 -43.2
L304.904 -43.2
L306.397 -43.2
L307.89 -43.2
L309.383 -43.2
L310.876 -43.2
L312.369 -43.2
L313.862 -43.2
L315.355 -43.2
L316.848 -43.2
L318.341 -43.2
L319.834 -43.2
L321.327 -43.2
L322.82 -43.2
L324.313 -43.2
L325.806 -43.2
L327.299 -44.928
L328.792 -43.2
L330.285 -48.384
L331.778 -58.752
L333.271 -86.4
L334.764 -69.12
L336.257 -101.952
L337.75 -79.488
L339.243 -62.208
L340.736 -62.208
L342.229 -72.576
L343.722 -50.112
L345.215 -43.2
L346.708 -43.2
L348.201 -43.2
L349.694 -43.2
L351.187 -44.928
L352.68 -53.568
L354.173 -69.12
L355.666 -183.168
L357.159 -195.264
L358.652 -177.984
L360.144 -169.344
L361.637 -115.776
L363.13 -88.128
L364.623 -148.608
L366.116 -67.392
L367.609 -50.112
L369.102 -43.2
L370.595 -43.2
L372.088 -43.2
L373.581 -43.2
L375.074 -43.2
L376.567 -43.2
L378.06 -43.2
L379.553 -43.2
L381.046 -43.2
L382.539 -43.2
L384.032 -43.2
L385.525 -43.2
L387.018 -43.2
L388.511 -43.2
L390.004 -43.2
L391.497 -43.2
L392.99 -43.2
L394.483 -43.2
L395.976 -43.2
L397.469 -43.2
L398.962 -43.2
L400.455 -43.2
L401.948 -43.2
L403.441 -43.2
L404.934 -43.2
L406.427 -43.2
L407.92 -43.2
L409.413 -43.2
L410.906 -43.2
L412.399 -43.2
L413.892 -43.2
L415.385 -43.2
L416.878 -43.2
L418.371 -43.2
L419.864 -43.2
L421.357 -43.2
L422.849 -43.2
L424.342 -43.2
L425.835 -43.2
L427.328 -43.2
L428.821 -43.2
L430.314 -43.2
L431.807 -43.2
L433.3 -43.2
L434.793 -43.2
L436.286 -43.2
L437.779 -43.2
L439.272 -43.2
L440.765 -43.2
L442.258 -43.2
L443.751 -43.2
L445.244 -43.2
L446.737 -43.2
L448.23 -43.2
L449.723 -43.2
L451.216 -43.2
L452.709 -43.2
L454.202 -43.2
L455.695 -43.2
L457.188 -43.2
L458.681 -43.2
L460.174 -43.2
L461.667 -43.2
L463.16 -43.2
L464.653 -43.2
L466.146 -43.2
L467.639 -43.2
L469.132 -43.2
L470.625 -43.2
L472.118 -43.2
L473.611 -43.2
L475.104 -43.2
L476.597 -43.2
L478.09 -43.2
L479.583 -43.2
L481.076 -43.2
L482.569 -43.2
L484.062 -43.2
L485.555 -43.2
L487.047 -43.2
L488.54 -43.2
L490.033 -43.2
L491.526 -43.2
L493.019 -43.2
L494.512 -43.2
L496.005 -43.2
L497.498 -43.2
L498.991 -43.2
L500.484 -43.2
L501.977 -43.2
L503.47 -43.2
L504.963 -43.2
L506.456 -43.2
L507.949 -43.2
L509.442 -43.2
L510.935 -43.2
L512.428 -43.2
L513.921 -43.2
L515.414 -43.2
L516.907 -43.2
L518.4 -43.2
L518.4 -43.2
L518.4 -43.2
L516.907 -43.2
L515.414 -43.2
L513.921 -43.2
L512.428 -43.2
L510.935 -43.2
L509.442 -43.2
L507.949 -43.2
L506.456 -43.2
L504.963 -43.2
L503.47 -43.2
L501.977 -43.2
L500.484 -43.2
L498.991 -43.2
L497.498 -43.2
L496.005 -43.2
L494.512 -43.2
L493.019 -43.2
L491.526 -43.2
L490.033 -43.2
L488.54 -43.2
L487.047 -43.2
L485.555 -43.2
L484.062 -43.2
L482.569 -43.2
L481.076 -43.2
L479.583 -43.2
L478.09 -43.2
L476.597 -43.2
L475.104 -43.2
L473.611 -43.2
L472.118 -43.2
L470.625 -43.2
L469.132 -43.2
L467.639 -43.2
L466.146 -43.2
L464.653 -43.2
L463.16 -43.2
L461.667 -43.2
L460.174 -43.2
L458.681 -43.2
L457.188 -43.2
L455.695 -43.2
L454.202 -43.2
L452.709 -43.2
L451.216 -43.2
L449.723 -43.2
L448.23 -43.2
L446.737 -43.2
L445.244 -43.2
L443.751 -43.2
L442.258 -43.2
L440.765 -43.2
L439.272 -43.2
L437.779 -43.2
L436.286 -43.2
L434.793 -43.2
L433.3 -43.2
L431.807 -43.2
L430.314 -43.2
L428.821 -43.2
L427.328 -43.2
L425.835 -43.2
L424.342 -43.2
L422.849 -43.2
L421.357 -43.2
L419.864 -43.2
L418.371 -43.2
L416.878 -43.2
L415.385 -43.2
L413.892 -43.2
L412.399 -43.2
L410.906 -43.2
L409.413 -43.2
L407.92 -43.2
L406.427 -43.2
L404.934 -43.2
L403.441 -43.2
L401.948 -43.2
L400.455 -43.2
L398.962 -43.2
L397.469 -43.2
L395.976 -43.2
L394.483 -43.2
L392.99 -43.2
L391.497 -43.2
L390.004 -43.2
L388.511 -43.2
L387.018 -43.2
L385.525 -43.2
L384.032 -43.2
L382.539 -43.2
L381.046 -43.2
L379.553 -43.2
L378.06 -43.2
L376.567 -43.2
L375.074 -43.2
L373.581 -43.2
L372.088 -43.2
L370.595 -43.2
L369.102 -44.928
L367.609 -58.752
L366.116 -91.584
L364.623 -165.888
L363.13 -131.328
L361.637 -203.904
L360.144 -240.192
L358.652 -228.096
L357.159 -257.472
L355.666 -196.992
L354.173 -69.12
L352.68 -55.296
L351.187 -44.928
L349.694 -43.2
L348.201 -43.2
L346.708 -43.2
L345.215 -43.2
L343.722 -50.112
L342.229 -72.576
L340.736 -62.208
L339.243 -62.208
L337.75 -79.488
L336.257 -101.952
L334.764 -69.12
L333.271 -86.4
L331.778 -58.752
L330.285 -48.384
L328.792 -43.2
L327.299 -44.928
L325.806 -43.2
L324.313 -43.2
L322.82 -43.2
L321.327 -43.2
L319.834 -43.2
L318.341 -43.2
L316.848 -43.2
L315.355 -43.2
L313.862 -43.2
L312.369 -43.2
L310.876 -43.2
L309.383 -43.2
L307.89 -43.2
L306.397 -43.2
L304.904 -43.2
L303.411 -43.2
L301.918 -43.2
L300.425 -43.2
L298.932 -43.2
L297.439 -43.2
L295.946 -43.2
L294.454 -43.2
L292.961 -43.2
L291.468 -43.2
L289.975 -43.2
L288.482 -43.2
L286.989 -43.2
L285.496 -43.2
L284.003 -43.2
L282.51 -43.2
L281.017 -43.2
L279.524 -43.2
L278.031 -43.2
L276.538 -43.2
L275.045 -43.2
L273.552 -43.2
L272.059 -43.2
L270.566 -43.2
L269.073 -43.2
L267.58 -43.2
L266.087 -43.2
L264.594 -43.2
L263.101 -43.2
L261.608 -43.2
L260.115 -43.2
L258.622 -43.2
L257.129 -43.2
L255.636 -43.2
L254.143 -43.2
L252.65 -43.2
L251.157 -43.2
L249.664 -43.2
L248.171 -43.2
L246.678 -43.2
L245.185 -43.2
L243.692 -43.2
L242.199 -43.2
L240.706 -43.2
L239.213 -43.2
L237.72 -43.2
L236.227 -43.2
L234.734 -43.2
L233.241 -43.2
L231.748 -43.2
L230.256 -44.928
L228.763 -50.112
L227.27 -50.112
L225.777 -119.232
L224.284 -216
L222.791 -274.752
L221.298 -283.392
L219.805 -293.76
L218.312 -196.992
L216.819 -133.056
L215.326 -148.608
L213.833 -105.408
L212.34 -55.296
L210.847 -44.928
L209.354 -43.2
L207.861 -43.2
L206.368 -43.2
L204.875 -43.2
L203.382 -48.384
L201.889 -72.576
L200.396 -115.776
L198.903 -134.784
L197.41 -134.784
L195.917 -133.056
L194.424 -67.392
L192.931 -72.576
L191.438 -43.2
L189.945 -43.2
L188.452 -43.2
L186.959 -43.2
L185.466 -43.2
L183.973 -43.2
L182.48 -43.2
L180.987 -43.2
L179.494 -43.2
L178.001 -43.2
L176.508 -43.2
L175.015 -43.2
L173.522 -43.2
L172.029 -43.2
L170.536 -43.2
L169.043 -43.2
L167.551 -43.2
L166.058 -43.2
L164.565 -43.2
L163.072 -43.2
L161.579 -43.2
L160.086 -43.2
L158.593 -43.2
L157.1 -43.2
L155.607 -43.2
L154.114 -43.2
L152.621 -43.2
L151.128 -43.2
L149.635 -43.2
L148.142 -43.2
L146.649 -43.2
L145.156 -43.2
L143.663 -43.2
L142.17 -43.2
L140.677 -43.2
L139.184 -43.2
L137.691 -43.2
L136.198 -43.2
L134.705 -43.2
L133.212 -43.2
L131.719 -43.2
L130.226 -43.2
L128.733 -43.2
L127.24 -43.2
L125.747 -43.2
L124.254 -43.2
L122.761 -43.2
L121.268 -43.2
L119.775 -43.2
L118.282 -43.2
L116.789 -43.2
L115.296 -43.2
L113.803 -43.2
L112.31 -43.2
L110.817 -43.2
L109.324 -43.2
L107.831 -43.2
L106.338 -43.2
L104.845 -43.2
L103.353 -43.2
L101.86 -43.2
L100.367 -43.2
L98.8736 -43.2
L97.3806 -43.2
L95.8876 -43.2
L94.3946 -43.2
L92.9017 -43.2
L91.4087 -43.2
L89.9157 -43.2
L88.4227 -43.2
L86.9298 -43.2
L85.4368 -43.2
L83.9438 -43.2
L82.4508 -43.2
L80.9579 -43.2
L79.4649 -43.2
L77.9719 -43.2
L76.4789 -43.2
L74.986 -43.2
L73.493 -43.2
L72 -43.2
z
" id="C3_0_5e23705886"/>
    </defs>
    <g clip-path="url(#p7ff5b81e1d)">
     <use style="fill:#00bfbf;stroke:#00bfbf;" x="0.0" xlink:href="#C3_0_5e23705886" y="432.0"/>
    </g>
   </g>
   <g id="PolyCollection_5">
    <defs>
     <path d="
M72 -43.2
L72 -43.2
L73.493 -43.2
L74.986 -43.2
L76.4789 -43.2
L77.9719 -43.2
L79.4649 -43.2
L80.9579 -43.2
L82.4508 -43.2
L83.9438 -43.2
L85.4368 -43.2
L86.9298 -43.2
L88.4227 -43.2
L89.9157 -43.2
L91.4087 -43.2
L92.9017 -43.2
L94.3946 -43.2
L95.8876 -43.2
L97.3806 -43.2
L98.8736 -43.2
L100.367 -43.2
L101.86 -43.2
L103.353 -43.2
L104.845 -43.2
L106.338 -43.2
L107.831 -43.2
L109.324 -43.2
L110.817 -43.2
L112.31 -43.2
L113.803 -43.2
L115.296 -43.2
L116.789 -43.2
L118.282 -43.2
L119.775 -43.2
L121.268 -43.2
L122.761 -43.2
L124.254 -43.2
L125.747 -43.2
L127.24 -43.2
L128.733 -43.2
L130.226 -43.2
L131.719 -43.2
L133.212 -43.2
L134.705 -43.2
L136.198 -43.2
L137.691 -43.2
L139.184 -43.2
L140.677 -43.2
L142.17 -43.2
L143.663 -43.2
L145.156 -43.2
L146.649 -43.2
L148.142 -43.2
L149.635 -43.2
L151.128 -43.2
L152.621 -43.2
L154.114 -43.2
L155.607 -43.2
L157.1 -43.2
L158.593 -43.2
L160.086 -43.2
L161.579 -43.2
L163.072 -43.2
L164.565 -43.2
L166.058 -43.2
L167.551 -43.2
L169.043 -43.2
L170.536 -43.2
L172.029 -43.2
L173.522 -43.2
L175.015 -43.2
L176.508 -43.2
L178.001 -43.2
L179.494 -43.2
L180.987 -43.2
L182.48 -43.2
L183.973 -43.2
L185.466 -43.2
L186.959 -43.2
L188.452 -43.2
L189.945 -43.2
L191.438 -43.2
L192.931 -72.576
L194.424 -67.392
L195.917 -133.056
L197.41 -134.784
L198.903 -134.784
L200.396 -115.776
L201.889 -72.576
L203.382 -48.384
L204.875 -43.2
L206.368 -43.2
L207.861 -43.2
L209.354 -43.2
L210.847 -44.928
L212.34 -55.296
L213.833 -105.408
L215.326 -148.608
L216.819 -133.056
L218.312 -196.992
L219.805 -293.76
L221.298 -283.392
L222.791 -274.752
L224.284 -216
L225.777 -119.232
L227.27 -50.112
L228.763 -50.112
L230.256 -44.928
L231.748 -43.2
L233.241 -43.2
L234.734 -43.2
L236.227 -43.2
L237.72 -43.2
L239.213 -43.2
L240.706 -43.2
L242.199 -43.2
L243.692 -43.2
L245.185 -43.2
L246.678 -43.2
L248.171 -43.2
L249.664 -43.2
L251.157 -43.2
L252.65 -43.2
L254.143 -43.2
L255.636 -43.2
L257.129 -43.2
L258.622 -43.2
L260.115 -43.2
L261.608 -43.2
L263.101 -43.2
L264.594 -43.2
L266.087 -43.2
L267.58 -43.2
L269.073 -43.2
L270.566 -43.2
L272.059 -43.2
L273.552 -43.2
L275.045 -43.2
L276.538 -43.2
L278.031 -43.2
L279.524 -43.2
L281.017 -43.2
L282.51 -43.2
L284.003 -43.2
L285.496 -43.2
L286.989 -43.2
L288.482 -43.2
L289.975 -43.2
L291.468 -43.2
L292.961 -43.2
L294.454 -43.2
L295.946 -43.2
L297.439 -43.2
L298.932 -43.2
L300.425 -43.2
L301.918 -43.2
L303.411 -43.2
L304.904 -43.2
L306.397 -43.2
L307.89 -43.2
L309.383 -43.2
L310.876 -43.2
L312.369 -43.2
L313.862 -43.2
L315.355 -43.2
L316.848 -43.2
L318.341 -43.2
L319.834 -43.2
L321.327 -43.2
L322.82 -43.2
L324.313 -43.2
L325.806 -43.2
L327.299 -44.928
L328.792 -43.2
L330.285 -48.384
L331.778 -58.752
L333.271 -86.4
L334.764 -69.12
L336.257 -101.952
L337.75 -79.488
L339.243 -62.208
L340.736 -62.208
L342.229 -72.576
L343.722 -50.112
L345.215 -43.2
L346.708 -43.2
L348.201 -43.2
L349.694 -43.2
L351.187 -44.928
L352.68 -55.296
L354.173 -69.12
L355.666 -196.992
L357.159 -257.472
L358.652 -228.096
L360.144 -240.192
L361.637 -203.904
L363.13 -131.328
L364.623 -165.888
L366.116 -91.584
L367.609 -58.752
L369.102 -44.928
L370.595 -43.2
L372.088 -43.2
L373.581 -43.2
L375.074 -43.2
L376.567 -43.2
L378.06 -43.2
L379.553 -43.2
L381.046 -43.2
L382.539 -43.2
L384.032 -43.2
L385.525 -43.2
L387.018 -43.2
L388.511 -43.2
L390.004 -43.2
L391.497 -43.2
L392.99 -43.2
L394.483 -43.2
L395.976 -43.2
L397.469 -43.2
L398.962 -43.2
L400.455 -43.2
L401.948 -43.2
L403.441 -43.2
L404.934 -43.2
L406.427 -43.2
L407.92 -43.2
L409.413 -43.2
L410.906 -43.2
L412.399 -43.2
L413.892 -43.2
L415.385 -43.2
L416.878 -43.2
L418.371 -43.2
L419.864 -43.2
L421.357 -43.2
L422.849 -43.2
L424.342 -43.2
L425.835 -43.2
L427.328 -43.2
L428.821 -43.2
L430.314 -43.2
L431.807 -43.2
L433.3 -43.2
L434.793 -43.2
L436.286 -43.2
L437.779 -43.2
L439.272 -43.2
L440.765 -43.2
L442.258 -43.2
L443.751 -43.2
L445.244 -43.2
L446.737 -43.2
L448.23 -43.2
L449.723 -43.2
L451.216 -43.2
L452.709 -43.2
L454.202 -43.2
L455.695 -43.2
L457.188 -43.2
L458.681 -43.2
L460.174 -43.2
L461.667 -43.2
L463.16 -43.2
L464.653 -43.2
L466.146 -43.2
L467.639 -43.2
L469.132 -43.2
L470.625 -43.2
L472.118 -43.2
L473.611 -43.2
L475.104 -43.2
L476.597 -43.2
L478.09 -43.2
L479.583 -43.2
L481.076 -43.2
L482.569 -43.2
L484.062 -43.2
L485.555 -43.2
L487.047 -43.2
L488.54 -43.2
L490.033 -43.2
L491.526 -43.2
L493.019 -43.2
L494.512 -43.2
L496.005 -43.2
L497.498 -43.2
L498.991 -43.2
L500.484 -43.2
L501.977 -43.2
L503.47 -43.2
L504.963 -43.2
L506.456 -43.2
L507.949 -43.2
L509.442 -43.2
L510.935 -43.2
L512.428 -43.2
L513.921 -43.2
L515.414 -43.2
L516.907 -43.2
L518.4 -43.2
L518.4 -43.2
L518.4 -43.2
L516.907 -43.2
L515.414 -43.2
L513.921 -43.2
L512.428 -43.2
L510.935 -43.2
L509.442 -43.2
L507.949 -43.2
L506.456 -43.2
L504.963 -43.2
L503.47 -43.2
L501.977 -43.2
L500.484 -43.2
L498.991 -43.2
L497.498 -43.2
L496.005 -43.2
L494.512 -43.2
L493.019 -43.2
L491.526 -43.2
L490.033 -43.2
L488.54 -43.2
L487.047 -43.2
L485.555 -43.2
L484.062 -43.2
L482.569 -43.2
L481.076 -43.2
L479.583 -43.2
L478.09 -43.2
L476.597 -43.2
L475.104 -43.2
L473.611 -43.2
L472.118 -43.2
L470.625 -43.2
L469.132 -43.2
L467.639 -43.2
L466.146 -43.2
L464.653 -43.2
L463.16 -43.2
L461.667 -43.2
L460.174 -43.2
L458.681 -43.2
L457.188 -43.2
L455.695 -43.2
L454.202 -43.2
L452.709 -43.2
L451.216 -43.2
L449.723 -43.2
L448.23 -43.2
L446.737 -43.2
L445.244 -43.2
L443.751 -43.2
L442.258 -43.2
L440.765 -43.2
L439.272 -43.2
L437.779 -43.2
L436.286 -43.2
L434.793 -43.2
L433.3 -43.2
L431.807 -43.2
L430.314 -43.2
L428.821 -43.2
L427.328 -43.2
L425.835 -43.2
L424.342 -43.2
L422.849 -43.2
L421.357 -43.2
L419.864 -43.2
L418.371 -43.2
L416.878 -43.2
L415.385 -43.2
L413.892 -43.2
L412.399 -43.2
L410.906 -43.2
L409.413 -43.2
L407.92 -43.2
L406.427 -43.2
L404.934 -43.2
L403.441 -43.2
L401.948 -43.2
L400.455 -43.2
L398.962 -43.2
L397.469 -43.2
L395.976 -43.2
L394.483 -43.2
L392.99 -43.2
L391.497 -43.2
L390.004 -43.2
L388.511 -43.2
L387.018 -43.2
L385.525 -43.2
L384.032 -43.2
L382.539 -43.2
L381.046 -43.2
L379.553 -43.2
L378.06 -43.2
L376.567 -43.2
L375.074 -43.2
L373.581 -50.112
L372.088 -55.296
L370.595 -77.76
L369.102 -77.76
L367.609 -89.856
L366.116 -167.616
L364.623 -243.648
L363.13 -207.36
L361.637 -283.392
L360.144 -262.656
L358.652 -238.464
L357.159 -257.472
L355.666 -200.448
L354.173 -69.12
L352.68 -55.296
L351.187 -44.928
L349.694 -43.2
L348.201 -43.2
L346.708 -43.2
L345.215 -43.2
L343.722 -50.112
L342.229 -72.576
L340.736 -62.208
L339.243 -62.208
L337.75 -79.488
L336.257 -101.952
L334.764 -69.12
L333.271 -86.4
L331.778 -58.752
L330.285 -48.384
L328.792 -43.2
L327.299 -44.928
L325.806 -43.2
L324.313 -43.2
L322.82 -43.2
L321.327 -43.2
L319.834 -43.2
L318.341 -43.2
L316.848 -43.2
L315.355 -43.2
L313.862 -43.2
L312.369 -43.2
L310.876 -43.2
L309.383 -43.2
L307.89 -43.2
L306.397 -43.2
L304.904 -43.2
L303.411 -43.2
L301.918 -43.2
L300.425 -43.2
L298.932 -43.2
L297.439 -43.2
L295.946 -43.2
L294.454 -43.2
L292.961 -43.2
L291.468 -43.2
L289.975 -43.2
L288.482 -43.2
L286.989 -43.2
L285.496 -43.2
L284.003 -43.2
L282.51 -43.2
L281.017 -43.2
L279.524 -43.2
L278.031 -43.2
L276.538 -43.2
L275.045 -43.2
L273.552 -43.2
L272.059 -43.2
L270.566 -43.2
L269.073 -43.2
L267.58 -43.2
L266.087 -43.2
L264.594 -43.2
L263.101 -43.2
L261.608 -43.2
L260.115 -43.2
L258.622 -43.2
L257.129 -43.2
L255.636 -43.2
L254.143 -43.2
L252.65 -43.2
L251.157 -43.2
L249.664 -43.2
L248.171 -43.2
L246.678 -43.2
L245.185 -43.2
L243.692 -43.2
L242.199 -43.2
L240.706 -43.2
L239.213 -43.2
L237.72 -43.2
L236.227 -43.2
L234.734 -44.928
L233.241 -44.928
L231.748 -48.384
L230.256 -62.208
L228.763 -133.056
L227.27 -136.512
L225.777 -212.544
L224.284 -274.752
L222.791 -311.04
L221.298 -317.952
L219.805 -328.32
L218.312 -198.72
L216.819 -133.056
L215.326 -148.608
L213.833 -105.408
L212.34 -55.296
L210.847 -44.928
L209.354 -43.2
L207.861 -43.2
L206.368 -43.2
L204.875 -43.2
L203.382 -48.384
L201.889 -72.576
L200.396 -115.776
L198.903 -134.784
L197.41 -134.784
L195.917 -133.056
L194.424 -67.392
L192.931 -72.576
L191.438 -43.2
L189.945 -43.2
L188.452 -43.2
L186.959 -43.2
L185.466 -43.2
L183.973 -43.2
L182.48 -43.2
L180.987 -43.2
L179.494 -43.2
L178.001 -43.2
L176.508 -43.2
L175.015 -43.2
L173.522 -43.2
L172.029 -43.2
L170.536 -43.2
L169.043 -43.2
L167.551 -43.2
L166.058 -43.2
L164.565 -43.2
L163.072 -43.2
L161.579 -43.2
L160.086 -43.2
L158.593 -43.2
L157.1 -43.2
L155.607 -43.2
L154.114 -43.2
L152.621 -43.2
L151.128 -43.2
L149.635 -43.2
L148.142 -43.2
L146.649 -43.2
L145.156 -43.2
L143.663 -43.2
L142.17 -43.2
L140.677 -43.2
L139.184 -43.2
L137.691 -43.2
L136.198 -43.2
L134.705 -43.2
L133.212 -43.2
L131.719 -43.2
L130.226 -43.2
L128.733 -43.2
L127.24 -43.2
L125.747 -43.2
L124.254 -43.2
L122.761 -43.2
L121.268 -43.2
L119.775 -43.2
L118.282 -43.2
L116.789 -43.2
L115.296 -43.2
L113.803 -43.2
L112.31 -43.2
L110.817 -43.2
L109.324 -43.2
L107.831 -43.2
L106.338 -43.2
L104.845 -43.2
L103.353 -43.2
L101.86 -43.2
L100.367 -43.2
L98.8736 -43.2
L97.3806 -43.2
L95.8876 -43.2
L94.3946 -43.2
L92.9017 -43.2
L91.4087 -43.2
L89.9157 -43.2
L88.4227 -43.2
L86.9298 -43.2
L85.4368 -43.2
L83.9438 -43.2
L82.4508 -43.2
L80.9579 -43.2
L79.4649 -43.2
L77.9719 -43.2
L76.4789 -43.2
L74.986 -43.2
L73.493 -43.2
L72 -43.2
z
" id="C4_0_795f9ac593"/>
    </defs>
    <g clip-path="url(#p7ff5b81e1d)">
     <use style="fill:#bf00bf;stroke:#bf00bf;" x="0.0" xlink:href="#C4_0_795f9ac593" y="432.0"/>
    </g>
   </g>
   <g id="line2d_1">
    <path clip-path="url(#p7ff5b81e1d)" d="
M72 388.8
L210.847 388.8
L212.34 387.072
L213.833 387.072
L215.326 343.872
L216.819 368.064
L218.312 355.968
L219.805 311.04
L221.298 316.224
L222.791 323.136
L224.284 321.408
L225.777 366.336
L227.27 387.072
L230.256 387.072
L231.748 388.8
L349.694 388.8
L352.68 385.344
L354.173 378.432
L355.666 317.952
L357.159 304.128
L358.652 300.672
L360.144 311.04
L361.637 347.328
L363.13 368.064
L364.623 333.504
L366.116 376.704
L367.609 388.8
L518.4 388.8
L518.4 388.8" style="fill:none;stroke:#0000ff;stroke-linecap:square;"/>
   </g>
   <g id="line2d_2">
    <path clip-path="url(#p7ff5b81e1d)" d="
M72 388.8
L209.354 388.8
L210.847 387.072
L212.34 380.16
L215.326 295.488
L216.819 335.232
L218.312 269.568
L219.805 221.184
L221.298 233.28
L222.791 236.736
L225.777 361.152
L227.27 387.072
L230.256 387.072
L231.748 388.8
L349.694 388.8
L351.187 387.072
L352.68 378.432
L354.173 362.88
L355.666 248.832
L357.159 236.736
L358.652 254.016
L360.144 262.656
L361.637 316.224
L363.13 343.872
L364.623 283.392
L366.116 364.608
L367.609 381.888
L369.102 388.8
L518.4 388.8
L518.4 388.8" style="fill:none;stroke:#008000;stroke-linecap:square;"/>
   </g>
   <g id="line2d_3">
    <path clip-path="url(#p7ff5b81e1d)" d="
M72 388.8
L191.438 388.8
L192.931 359.424
L194.424 364.608
L195.917 298.944
L197.41 297.216
L198.903 297.216
L200.396 316.224
L201.889 359.424
L203.382 383.616
L204.875 388.8
L209.354 388.8
L210.847 387.072
L212.34 380.16
L215.326 295.488
L216.819 335.232
L218.312 269.568
L219.805 221.184
L221.298 233.28
L222.791 236.736
L225.777 361.152
L227.27 387.072
L230.256 387.072
L231.748 388.8
L325.806 388.8
L327.299 387.072
L328.792 388.8
L330.285 383.616
L331.778 373.248
L333.271 345.6
L334.764 362.88
L336.257 330.048
L337.75 352.512
L339.243 369.792
L340.736 369.792
L342.229 359.424
L343.722 381.888
L345.215 388.8
L349.694 388.8
L351.187 387.072
L352.68 378.432
L354.173 362.88
L355.666 248.832
L357.159 236.736
L358.652 254.016
L360.144 262.656
L361.637 316.224
L363.13 343.872
L364.623 283.392
L366.116 364.608
L367.609 381.888
L369.102 388.8
L518.4 388.8
L518.4 388.8" style="fill:none;stroke:#ff0000;stroke-linecap:square;"/>
   </g>
   <g id="line2d_4">
    <path clip-path="url(#p7ff5b81e1d)" d="
M72 388.8
L191.438 388.8
L192.931 359.424
L194.424 364.608
L195.917 298.944
L197.41 297.216
L198.903 297.216
L200.396 316.224
L201.889 359.424
L203.382 383.616
L204.875 388.8
L209.354 388.8
L210.847 387.072
L212.34 376.704
L213.833 326.592
L215.326 283.392
L216.819 298.944
L218.312 235.008
L219.805 138.24
L221.298 148.608
L222.791 157.248
L224.284 216
L225.777 312.768
L227.27 381.888
L228.763 381.888
L230.256 387.072
L231.748 388.8
L325.806 388.8
L327.299 387.072
L328.792 388.8
L330.285 383.616
L331.778 373.248
L333.271 345.6
L334.764 362.88
L336.257 330.048
L337.75 352.512
L339.243 369.792
L340.736 369.792
L342.229 359.424
L343.722 381.888
L345.215 388.8
L349.694 388.8
L351.187 387.072
L352.68 376.704
L354.173 362.88
L355.666 235.008
L357.159 174.528
L358.652 203.904
L360.144 191.808
L361.637 228.096
L363.13 300.672
L364.623 266.112
L366.116 340.416
L367.609 373.248
L369.102 387.072
L370.595 388.8
L518.4 388.8
L518.4 388.8" style="fill:none;stroke:#00bfbf;stroke-linecap:square;"/>
   </g>
   <g id="line2d_5">
    <path clip-path="url(#p7ff5b81e1d)" d="
M72 388.8
L191.438 388.8
L192.931 359.424
L194.424 364.608
L195.917 298.944
L197.41 297.216
L198.903 297.216
L200.396 316.224
L201.889 359.424
L203.382 383.616
L204.875 388.8
L209.354 388.8
L210.847 387.072
L212.34 376.704
L213.833 326.592
L215.326 283.392
L216.819 298.944
L218.312 233.28
L219.805 103.68
L221.298 114.048
L222.791 120.96
L224.284 157.248
L225.777 219.456
L227.27 295.488
L228.763 298.944
L230.256 369.792
L231.748 383.616
L233.241 387.072
L234.734 387.072
L236.227 388.8
L325.806 388.8
L327.299 387.072
L328.792 388.8
L330.285 383.616
L331.778 373.248
L333.271 345.6
L334.764 362.88
L336.257 330.048
L337.75 352.512
L339.243 369.792
L340.736 369.792
L342.229 359.424
L343.722 381.888
L345.215 388.8
L349.694 388.8
L351.187 387.072
L352.68 376.704
L354.173 362.88
L355.666 231.552
L357.159 174.528
L358.652 193.536
L360.144 169.344
L361.637 148.608
L363.13 224.64
L364.623 188.352
L367.609 342.144
L369.102 354.24
L370.595 354.24
L372.088 376.704
L373.581 381.888
L375.074 388.8
L518.4 388.8
L518.4 388.8" style="fill:none;stroke:#bf00bf;stroke-linecap:square;"/>
   </g>
   <g id="matplotlib.axis_1">
    <g id="xtick_1">
     <g id="line2d_6">
      <defs>
       <path d="
M0 0
L0 -4" id="m93b0483c22" style="stroke:#000000;stroke-width:0.5;"/>
      </defs>
      <g>
       <use style="stroke:#000000;stroke-width:0.5;" x="72.0" xlink:href="#m93b0483c22" y="388.8"/>
      </g>
     </g>
     <g id="line2d_7">
      <defs>
       <path d="
M0 0
L0 4" id="m741efc42ff" style="stroke:#000000;stroke-width:0.5;"/>
      </defs>
      <g>
       <use style="stroke:#000000;stroke-width:0.5;" x="72.0" xlink:href="#m741efc42ff" y="43.2"/>
      </g>
     </g>
     <g id="text_1">
      <!-- 868.10 MHz -->
      <defs>
       <path d="
M57.625 20.2656
Q57.625 10.8438 50.2656 4.59375
Q42.9219 -1.65625 31.7812 -1.65625
Q19.9688 -1.65625 12.9531 4.4375
Q5.95312 10.5469 5.95312 20.0625
Q5.95312 26.125 9.46875 31.0312
Q12.9844 35.9375 19.3906 38.8125
L19.3906 39.1094
Q13.5312 42.2344 10.7188 45.9375
Q7.90625 49.6562 7.90625 55.2188
Q7.90625 63.4219 14.6406 68.8906
Q21.3906 74.3594 31.7812 74.3594
Q42.6719 74.3594 49.1719 69.1406
Q55.6719 63.9219 55.6719 55.8594
Q55.6719 50.9219 52.5938 46.1562
Q49.5156 41.4062 43.5625 38.7188
L43.5625 38.4219
Q50.3906 35.5 54 31.2031
Q57.625 26.9062 57.625 20.2656
M46.0469 55.7656
Q46.0469 60.9844 42.0156 64.0781
Q37.9844 67.1875 31.7344 67.1875
Q25.5938 67.1875 21.6562 64.25
Q17.7188 61.3281 17.7188 56.3438
Q17.7188 52.8281 19.7031 50.2656
Q21.6875 47.7031 25.6875 45.7031
Q27.4844 44.8281 30.875 43.4062
Q34.2812 42 37.5 41.0625
Q42.3281 44.2812 44.1875 47.75
Q46.0469 51.2188 46.0469 55.7656
M47.5625 19.3438
Q47.5625 23.8281 45.5781 26.5312
Q43.6094 29.25 37.8438 31.9844
Q35.5469 33.0625 32.8125 33.9844
Q30.0781 34.9062 25.5312 36.5781
Q21.1406 34.1875 18.4844 30.0781
Q15.8281 25.9844 15.8281 20.7969
Q15.8281 14.2031 20.3594 9.90625
Q24.9062 5.60938 31.8906 5.60938
Q39.0156 5.60938 43.2812 9.26562
Q47.5625 12.9375 47.5625 19.3438" id="Verdana-38"/>
       <path d="
M52.9375 0
L13.5781 0
L13.5781 7.42188
L28.7188 7.42188
L28.7188 56.1562
L13.5781 56.1562
L13.5781 62.7969
Q16.6562 62.7969 20.1719 63.2969
Q23.6875 63.8125 25.4844 64.7969
Q27.7344 66.0156 29.0312 67.8906
Q30.3281 69.7812 30.5156 72.9531
L38.0938 72.9531
L38.0938 7.42188
L52.9375 7.42188
z
" id="Verdana-31"/>
       <path d="
M56.9844 36.375
Q56.9844 16.7969 50.8594 7.64062
Q44.7344 -1.51562 31.8438 -1.51562
Q18.75 -1.51562 12.7188 7.76562
Q6.6875 17.0469 6.6875 36.2812
Q6.6875 55.6719 12.7812 64.9219
Q18.8906 74.1719 31.8438 74.1719
Q44.9219 74.1719 50.9531 64.7656
Q56.9844 55.375 56.9844 36.375
M44.1406 14.2031
Q45.8438 18.1719 46.4531 23.5156
Q47.0781 28.8594 47.0781 36.375
Q47.0781 43.7969 46.4531 49.2656
Q45.8438 54.7344 44.0938 58.5469
Q42.3906 62.3125 39.4219 64.2031
Q36.4688 66.1094 31.8438 66.1094
Q27.25 66.1094 24.2344 64.2031
Q21.2344 62.3125 19.4844 58.4531
Q17.8281 54.8281 17.2188 49.0156
Q16.6094 43.2188 16.6094 36.2812
Q16.6094 28.6562 17.1406 23.5312
Q17.6719 18.4062 19.4375 14.3594
Q21.0469 10.5469 24 8.54688
Q26.9531 6.54688 31.8438 6.54688
Q36.4219 6.54688 39.4531 8.45312
Q42.4844 10.3594 44.1406 14.2031" id="Verdana-30"/>
       <path id="Verdana-20"/>
       <path d="
M74.5156 0
L64.8438 0
L64.8438 62.6406
L44.625 20.0156
L38.875 20.0156
L18.7969 62.6406
L18.7969 0
L9.76562 0
L9.76562 72.7031
L22.9531 72.7031
L42.3281 32.2344
L61.0781 72.7031
L74.5156 72.7031
z
" id="Verdana-4d"/>
       <path d="
M58.1562 23.5781
Q58.1562 12.5 50.8594 5.48438
Q43.5625 -1.51562 32.9531 -1.51562
Q27.5938 -1.51562 23.1875 0.140625
Q18.7969 1.8125 15.4375 5.07812
Q11.2344 9.125 8.95312 15.8125
Q6.6875 22.5156 6.6875 31.9375
Q6.6875 41.6094 8.76562 49.0781
Q10.8438 56.5469 15.375 62.3594
Q19.6719 67.875 26.4531 70.9688
Q33.25 74.0781 42.2812 74.0781
Q45.1719 74.0781 47.125 73.8281
Q49.0781 73.5781 51.0781 72.9531
L51.0781 63.625
L50.5938 63.625
Q49.2188 64.3594 46.4531 65.0156
Q43.7031 65.6719 40.8281 65.6719
Q30.3281 65.6719 24.0781 59.1094
Q17.8281 52.5469 16.7969 41.3594
Q20.9062 43.8438 24.875 45.1406
Q28.8594 46.4375 34.0781 46.4375
Q38.7188 46.4375 42.25 45.5781
Q45.7969 44.7344 49.5156 42.1406
Q53.8125 39.1562 55.9844 34.6094
Q58.1562 30.0781 58.1562 23.5781
M48.25 23.1875
Q48.25 27.7344 46.9062 30.7031
Q45.5625 33.6875 42.4844 35.8906
Q40.2344 37.4531 37.5 37.9375
Q34.7656 38.4219 31.7812 38.4219
Q27.6406 38.4219 24.0781 37.4375
Q20.5156 36.4688 16.75 34.4219
Q16.6562 33.3438 16.5938 32.3438
Q16.5469 31.3438 16.5469 29.8281
Q16.5469 22.125 18.1406 17.6562
Q19.7344 13.1875 22.5156 10.5938
Q24.75 8.45312 27.3594 7.45312
Q29.9844 6.45312 33.0625 6.45312
Q40.1406 6.45312 44.1875 10.7656
Q48.25 15.0938 48.25 23.1875" id="Verdana-36"/>
       <path d="
M65.375 0
L55.7188 0
L55.7188 35.5938
L19.4375 35.5938
L19.4375 0
L9.76562 0
L9.76562 72.7031
L19.4375 72.7031
L19.4375 44.1875
L55.7188 44.1875
L55.7188 72.7031
L65.375 72.7031
z
" id="Verdana-48"/>
       <path d="
M48.5781 0
L4.54688 0
L4.54688 6.78125
L36.3281 46.875
L5.21875 46.875
L5.21875 54.5469
L47.75 54.5469
L47.75 48
L15.8281 7.76562
L48.5781 7.76562
z
" id="Verdana-7a"/>
       <path d="
M24.0312 0
L12.3594 0
L12.3594 13.9219
L24.0312 13.9219
z
" id="Verdana-2e"/>
      </defs>
      <g transform="translate(36.1546875 401.918125)scale(0.12 -0.12)">
       <use xlink:href="#Verdana-38"/>
       <use x="63.57421875" xlink:href="#Verdana-36"/>
       <use x="127.1484375" xlink:href="#Verdana-38"/>
       <use x="190.72265625" xlink:href="#Verdana-2e"/>
       <use x="227.099609375" xlink:href="#Verdana-31"/>
       <use x="290.673828125" xlink:href="#Verdana-30"/>
       <use x="354.248046875" xlink:href="#Verdana-20"/>
       <use x="389.404296875" xlink:href="#Verdana-4d"/>
       <use x="473.681640625" xlink:href="#Verdana-48"/>
       <use x="548.828125" xlink:href="#Verdana-7a"/>
      </g>
     </g>
    </g>
    <g id="xtick_2">
     <g id="line2d_8">
      <g>
       <use style="stroke:#000000;stroke-width:0.5;" x="146.648829432" xlink:href="#m93b0483c22" y="388.8"/>
      </g>
     </g>
     <g id="line2d_9">
      <g>
       <use style="stroke:#000000;stroke-width:0.5;" x="146.648829432" xlink:href="#m741efc42ff" y="43.2"/>
      </g>
     </g>
     <g id="text_2">
      <!-- 868.15 MHz -->
      <defs>
       <path d="
M56.5 23.0938
Q56.5 18.0156 54.6406 13.375
Q52.7812 8.73438 49.5625 5.5625
Q46.0469 2.15625 41.1875 0.3125
Q36.3281 -1.51562 29.9375 -1.51562
Q23.9688 -1.51562 18.4531 -0.265625
Q12.9375 0.984375 9.125 2.73438
L9.125 13.0312
L9.8125 13.0312
Q13.8125 10.5 19.1875 8.71875
Q24.5625 6.9375 29.7344 6.9375
Q33.2031 6.9375 36.4531 7.90625
Q39.7031 8.89062 42.2344 11.3281
Q44.3906 13.4219 45.4844 16.3438
Q46.5781 19.2812 46.5781 23.1406
Q46.5781 26.9062 45.2812 29.4844
Q44 32.0781 41.7031 33.6406
Q39.1562 35.5 35.5156 36.25
Q31.8906 37.0156 27.3906 37.0156
Q23.0938 37.0156 19.1094 36.4219
Q15.1406 35.8438 12.25 35.25
L12.25 72.7031
L56 72.7031
L56 64.1562
L21.6875 64.1562
L21.6875 44.8281
Q23.7812 45.0156 25.9688 45.1094
Q28.1719 45.2188 29.7812 45.2188
Q35.6875 45.2188 40.125 44.2188
Q44.5781 43.2188 48.2969 40.6719
Q52.2031 37.9844 54.3438 33.7344
Q56.5 29.5 56.5 23.0938" id="Verdana-35"/>
      </defs>
      <g transform="translate(110.803516932 401.918125)scale(0.12 -0.12)">
       <use xlink:href="#Verdana-38"/>
       <use x="63.57421875" xlink:href="#Verdana-36"/>
       <use x="127.1484375" xlink:href="#Verdana-38"/>
       <use x="190.72265625" xlink:href="#Verdana-2e"/>
       <use x="227.099609375" xlink:href="#Verdana-31"/>
       <use x="290.673828125" xlink:href="#Verdana-35"/>
       <use x="354.248046875" xlink:href="#Verdana-20"/>
       <use x="389.404296875" xlink:href="#Verdana-4d"/>
       <use x="473.681640625" xlink:href="#Verdana-48"/>
       <use x="548.828125" xlink:href="#Verdana-7a"/>
      </g>
     </g>
    </g>
    <g id="xtick_3">
     <g id="line2d_10">
      <g>
       <use style="stroke:#000000;stroke-width:0.5;" x="221.297658863" xlink:href="#m93b0483c22" y="388.8"/>
      </g>
     </g>
     <g id="line2d_11">
      <g>
       <use style="stroke:#000000;stroke-width:0.5;" x="221.297658863" xlink:href="#m741efc42ff" y="43.2"/>
      </g>
     </g>
     <g id="text_3">
      <!-- 868.20 MHz -->
      <defs>
       <path d="
M57.0781 0
L7.85938 0
L7.85938 10.2031
Q12.9844 14.5938 18.1406 18.9844
Q23.2969 23.3906 27.7344 27.7344
Q37.1094 36.8125 40.5781 42.1562
Q44.0469 47.5156 44.0469 53.7188
Q44.0469 59.375 40.3125 62.5625
Q36.5781 65.7656 29.8906 65.7656
Q25.4375 65.7656 20.2656 64.2031
Q15.0938 62.6406 10.1562 59.4219
L9.67188 59.4219
L9.67188 69.6719
Q13.1406 71.3906 18.9219 72.7969
Q24.7031 74.2188 30.125 74.2188
Q41.3125 74.2188 47.6562 68.8125
Q54 63.4219 54 54.2031
Q54 50.0469 52.9531 46.4531
Q51.9062 42.875 49.8594 39.6562
Q47.9531 36.625 45.3906 33.6875
Q42.8281 30.7656 39.1562 27.2031
Q33.9375 22.0781 28.3594 17.2656
Q22.7969 12.4531 17.9688 8.34375
L57.0781 8.34375
z
" id="Verdana-32"/>
      </defs>
      <g transform="translate(185.452346363 401.918125)scale(0.12 -0.12)">
       <use xlink:href="#Verdana-38"/>
       <use x="63.57421875" xlink:href="#Verdana-36"/>
       <use x="127.1484375" xlink:href="#Verdana-38"/>
       <use x="190.72265625" xlink:href="#Verdana-2e"/>
       <use x="227.099609375" xlink:href="#Verdana-32"/>
       <use x="290.673828125" xlink:href="#Verdana-30"/>
       <use x="354.248046875" xlink:href="#Verdana-20"/>
       <use x="389.404296875" xlink:href="#Verdana-4d"/>
       <use x="473.681640625" xlink:href="#Verdana-48"/>
       <use x="548.828125" xlink:href="#Verdana-7a"/>
      </g>
     </g>
    </g>
    <g id="xtick_4">
     <g id="line2d_12">
      <g>
       <use style="stroke:#000000;stroke-width:0.5;" x="295.946488294" xlink:href="#m93b0483c22" y="388.8"/>
      </g>
     </g>
     <g id="line2d_13">
      <g>
       <use style="stroke:#000000;stroke-width:0.5;" x="295.946488294" xlink:href="#m741efc42ff" y="43.2"/>
      </g>
     </g>
     <g id="text_4">
      <!-- 868.25 MHz -->
      <g transform="translate(260.101175794 401.918125)scale(0.12 -0.12)">
       <use xlink:href="#Verdana-38"/>
       <use x="63.57421875" xlink:href="#Verdana-36"/>
       <use x="127.1484375" xlink:href="#Verdana-38"/>
       <use x="190.72265625" xlink:href="#Verdana-2e"/>
       <use x="227.099609375" xlink:href="#Verdana-32"/>
       <use x="290.673828125" xlink:href="#Verdana-35"/>
       <use x="354.248046875" xlink:href="#Verdana-20"/>
       <use x="389.404296875" xlink:href="#Verdana-4d"/>
       <use x="473.681640625" xlink:href="#Verdana-48"/>
       <use x="548.828125" xlink:href="#Verdana-7a"/>
      </g>
     </g>
    </g>
    <g id="xtick_5">
     <g id="line2d_14">
      <g>
       <use style="stroke:#000000;stroke-width:0.5;" x="370.595317726" xlink:href="#m93b0483c22" y="388.8"/>
      </g>
     </g>
     <g id="line2d_15">
      <g>
       <use style="stroke:#000000;stroke-width:0.5;" x="370.595317726" xlink:href="#m741efc42ff" y="43.2"/>
      </g>
     </g>
     <g id="text_5">
      <!-- 868.30 MHz -->
      <defs>
       <path d="
M50.6875 35.0156
Q53.0312 32.9062 54.5469 29.7344
Q56.0625 26.5625 56.0625 21.5312
Q56.0625 16.5469 54.25 12.3906
Q52.4375 8.25 49.1719 5.17188
Q45.5156 1.76562 40.5469 0.125
Q35.5938 -1.51562 29.6875 -1.51562
Q23.6406 -1.51562 17.7812 -0.0625
Q11.9219 1.375 8.15625 3.07812
L8.15625 13.2812
L8.89062 13.2812
Q13.0312 10.5469 18.6406 8.73438
Q24.2656 6.9375 29.5 6.9375
Q32.5625 6.9375 36.0312 7.95312
Q39.5 8.98438 41.6562 10.9844
Q43.8906 13.1406 44.9844 15.7188
Q46.0938 18.3125 46.0938 22.2656
Q46.0938 26.1719 44.8438 28.7344
Q43.6094 31.2969 41.4062 32.7656
Q39.2031 34.2812 36.0781 34.8438
Q32.9531 35.4062 29.3438 35.4062
L24.9531 35.4062
L24.9531 43.5
L28.375 43.5
Q35.7969 43.5 40.2031 46.5938
Q44.625 49.7031 44.625 55.6719
Q44.625 58.2969 43.5 60.2656
Q42.3906 62.25 40.375 63.5312
Q38.2812 64.7969 35.8906 65.2812
Q33.5 65.7656 30.4688 65.7656
Q25.8281 65.7656 20.5938 64.1094
Q15.375 62.4531 10.75 59.4219
L10.25 59.4219
L10.25 69.625
Q13.7188 71.3438 19.5 72.7812
Q25.2969 74.2188 30.7188 74.2188
Q36.0312 74.2188 40.0781 73.2344
Q44.1406 72.2656 47.4062 70.125
Q50.9219 67.7812 52.7344 64.4531
Q54.5469 61.1406 54.5469 56.6875
Q54.5469 50.6406 50.2656 46.125
Q46 41.6094 40.1875 40.4375
L40.1875 39.75
Q42.5312 39.3594 45.5469 38.1094
Q48.5781 36.8594 50.6875 35.0156" id="Verdana-33"/>
      </defs>
      <g transform="translate(334.750005226 401.918125)scale(0.12 -0.12)">
       <use xlink:href="#Verdana-38"/>
       <use x="63.57421875" xlink:href="#Verdana-36"/>
       <use x="127.1484375" xlink:href="#Verdana-38"/>
       <use x="190.72265625" xlink:href="#Verdana-2e"/>
       <use x="227.099609375" xlink:href="#Verdana-33"/>
       <use x="290.673828125" xlink:href="#Verdana-30"/>
       <use x="354.248046875" xlink:href="#Verdana-20"/>
       <use x="389.404296875" xlink:href="#Verdana-4d"/>
       <use x="473.681640625" xlink:href="#Verdana-48"/>
       <use x="548.828125" xlink:href="#Verdana-7a"/>
      </g>
     </g>
    </g>
    <g id="xtick_6">
     <g id="line2d_16">
      <g>
       <use style="stroke:#000000;stroke-width:0.5;" x="445.244147157" xlink:href="#m93b0483c22" y="388.8"/>
      </g>
     </g>
     <g id="line2d_17">
      <g>
       <use style="stroke:#000000;stroke-width:0.5;" x="445.244147157" xlink:href="#m741efc42ff" y="43.2"/>
      </g>
     </g>
     <g id="text_6">
      <!-- 868.35 MHz -->
      <g transform="translate(409.398834657 401.918125)scale(0.12 -0.12)">
       <use xlink:href="#Verdana-38"/>
       <use x="63.57421875" xlink:href="#Verdana-36"/>
       <use x="127.1484375" xlink:href="#Verdana-38"/>
       <use x="190.72265625" xlink:href="#Verdana-2e"/>
       <use x="227.099609375" xlink:href="#Verdana-33"/>
       <use x="290.673828125" xlink:href="#Verdana-35"/>
       <use x="354.248046875" xlink:href="#Verdana-20"/>
       <use x="389.404296875" xlink:href="#Verdana-4d"/>
       <use x="473.681640625" xlink:href="#Verdana-48"/>
       <use x="548.828125" xlink:href="#Verdana-7a"/>
      </g>
     </g>
    </g>
    <g id="text_7">
     <!-- frequency -->
     <defs>
      <path d="
M38.375 67.0938
L37.8906 67.0938
Q36.375 67.5312 33.9375 67.9844
Q31.5 68.4531 29.6406 68.4531
Q23.7344 68.4531 21.0625 65.8438
Q18.4062 63.2344 18.4062 56.3906
L18.4062 54.5469
L34.9688 54.5469
L34.9688 46.8281
L18.7031 46.8281
L18.7031 0
L9.51562 0
L9.51562 46.8281
L3.32812 46.8281
L3.32812 54.5469
L9.51562 54.5469
L9.51562 56.3438
Q9.51562 66.0625 14.3438 71.2656
Q19.1875 76.4688 28.3281 76.4688
Q31.3906 76.4688 33.8594 76.1719
Q36.3281 75.875 38.375 75.4844
z
" id="Verdana-66"/>
      <path d="
M54.25 0
L45.0625 0
L45.0625 6.0625
Q40.4375 2.39062 36.1875 0.4375
Q31.9375 -1.51562 26.8125 -1.51562
Q18.2188 -1.51562 13.4219 3.73438
Q8.64062 8.98438 8.64062 19.1406
L8.64062 54.5469
L17.8281 54.5469
L17.8281 23.4844
Q17.8281 19.3438 18.2188 16.375
Q18.6094 13.4219 19.875 11.3281
Q21.1875 9.1875 23.2812 8.20312
Q25.3906 7.23438 29.3906 7.23438
Q32.9531 7.23438 37.1719 9.07812
Q41.4062 10.9375 45.0625 13.8125
L45.0625 54.5469
L54.25 54.5469
z
" id="Verdana-75"/>
      <path d="
M54.6875 26.3125
L14.5 26.3125
Q14.5 21.2969 16.0156 17.5469
Q17.5312 13.8125 20.1719 11.4219
Q22.7031 9.07812 26.1875 7.90625
Q29.6875 6.73438 33.8906 6.73438
Q39.4531 6.73438 45.0938 8.95312
Q50.7344 11.1875 53.125 13.3281
L53.6094 13.3281
L53.6094 3.32812
Q48.9688 1.375 44.1406 0.046875
Q39.3125 -1.26562 33.9844 -1.26562
Q20.4062 -1.26562 12.7812 6.07812
Q5.17188 13.4219 5.17188 26.9531
Q5.17188 40.3281 12.4688 48.1875
Q19.7812 56.0625 31.6875 56.0625
Q42.7188 56.0625 48.7031 49.6094
Q54.6875 43.1719 54.6875 31.2969
z

M45.75 33.3438
Q45.7031 40.5781 42.1094 44.5312
Q38.5312 48.4844 31.2031 48.4844
Q23.8281 48.4844 19.4531 44.1406
Q15.0938 39.7969 14.5 33.3438
z
" id="Verdana-65"/>
      <path d="
M53.2656 -20.125
L44.0938 -20.125
L44.0938 6.15625
Q39.8438 2.48438 35.6406 0.703125
Q31.4531 -1.07812 26.5625 -1.07812
Q16.8438 -1.07812 11.0625 6.42188
Q5.28125 13.9219 5.28125 27.0938
Q5.28125 34.125 7.29688 39.5156
Q9.32812 44.9219 12.6406 48.5781
Q15.875 52.1562 20.2188 54.1094
Q24.5625 56.0625 29.3906 56.0625
Q33.7969 56.0625 37.1875 55.0781
Q40.5781 54.1094 44.0938 52.2031
L44.6719 54.5469
L53.2656 54.5469
z

M44.0938 13.875
L44.0938 44.7344
Q40.2812 46.4375 37.3438 47.1094
Q34.4219 47.7969 31 47.7969
Q23.0469 47.7969 18.8906 42.4062
Q14.75 37.0156 14.75 27.5469
Q14.75 17.9688 18.0938 12.8125
Q21.4375 7.67188 28.6094 7.67188
Q32.625 7.67188 36.625 9.40625
Q40.625 11.1406 44.0938 13.875" id="Verdana-71"/>
      <path d="
M49.3594 3.42188
Q44.7812 1.21875 40.6562 0
Q36.5312 -1.21875 31.8906 -1.21875
Q25.9844 -1.21875 21.0469 0.515625
Q16.1094 2.25 12.5938 5.76562
Q9.03125 9.28125 7.07812 14.6406
Q5.125 20.0156 5.125 27.2031
Q5.125 40.5781 12.4688 48.1875
Q19.8281 55.8125 31.8906 55.8125
Q36.5781 55.8125 41.0938 54.4844
Q45.6094 53.1719 49.3594 51.2656
L49.3594 41.0625
L48.875 41.0625
Q44.6719 44.3438 40.2031 46.0938
Q35.75 47.8594 31.5 47.8594
Q23.6875 47.8594 19.1719 42.6094
Q14.6562 37.3594 14.6562 27.2031
Q14.6562 17.3281 19.0625 12.0312
Q23.4844 6.73438 31.5 6.73438
Q34.2812 6.73438 37.1562 7.46875
Q40.0469 8.20312 42.3281 9.375
Q44.3438 10.4062 46.0938 11.5469
Q47.8594 12.7031 48.875 13.5312
L49.3594 13.5312
z
" id="Verdana-63"/>
      <path d="
M43.0625 44.5312
L42.5781 44.5312
Q40.5312 45.0156 38.5938 45.2344
Q36.6719 45.4531 34.0312 45.4531
Q29.7812 45.4531 25.8281 43.5781
Q21.875 41.7031 18.2188 38.7188
L18.2188 0
L9.03125 0
L9.03125 54.5469
L18.2188 54.5469
L18.2188 46.4844
Q23.6875 50.875 27.8594 52.7031
Q32.0312 54.5469 36.375 54.5469
Q38.7656 54.5469 39.8438 54.4219
Q40.9219 54.2969 43.0625 53.9531
z
" id="Verdana-72"/>
      <path d="
M56.2031 54.5469
L24.3594 -20.125
L14.5469 -20.125
L24.7031 2.64062
L2.98438 54.5469
L12.9375 54.5469
L29.6875 14.1094
L46.5781 54.5469
z
" id="Verdana-79"/>
      <path d="
M54.6406 0
L45.4531 0
L45.4531 31.0625
Q45.4531 34.8125 45.0156 38.1094
Q44.5781 41.4062 43.4062 43.2656
Q42.1875 45.3125 39.8906 46.3125
Q37.5938 47.3125 33.9375 47.3125
Q30.1719 47.3125 26.0625 45.4531
Q21.9688 43.6094 18.2188 40.7188
L18.2188 0
L9.03125 0
L9.03125 54.5469
L18.2188 54.5469
L18.2188 48.4844
Q22.5156 52.0469 27.0938 54.0469
Q31.6875 56.0625 36.5312 56.0625
Q45.3594 56.0625 50 50.7344
Q54.6406 45.4062 54.6406 35.4062
z
" id="Verdana-6e"/>
     </defs>
     <g transform="translate(265.7503125 418.509375)scale(0.12 -0.12)">
      <use xlink:href="#Verdana-66"/>
      <use x="35.15625" xlink:href="#Verdana-72"/>
      <use x="77.83203125" xlink:href="#Verdana-65"/>
      <use x="137.40234375" xlink:href="#Verdana-71"/>
      <use x="199.70703125" xlink:href="#Verdana-75"/>
      <use x="262.98828125" xlink:href="#Verdana-65"/>
      <use x="322.55859375" xlink:href="#Verdana-6e"/>
      <use x="385.83984375" xlink:href="#Verdana-63"/>
      <use x="437.939453125" xlink:href="#Verdana-79"/>
     </g>
    </g>
   </g>
   <g id="matplotlib.axis_2">
    <g id="ytick_1">
     <g id="line2d_18">
      <defs>
       <path d="
M0 0
L4 0" id="m728421d6d4" style="stroke:#000000;stroke-width:0.5;"/>
      </defs>
      <g>
       <use style="stroke:#000000;stroke-width:0.5;" x="72.0" xlink:href="#m728421d6d4" y="388.8"/>
      </g>
     </g>
     <g id="line2d_19">
      <defs>
       <path d="
M0 0
L-4 0" id="mcb0005524f" style="stroke:#000000;stroke-width:0.5;"/>
      </defs>
      <g>
       <use style="stroke:#000000;stroke-width:0.5;" x="518.4" xlink:href="#mcb0005524f" y="388.8"/>
      </g>
     </g>
     <g id="text_8">
      <!-- 0 -->
      <g transform="translate(61.964375 392.1515625)scale(0.12 -0.12)">
       <use xlink:href="#Verdana-30"/>
      </g>
     </g>
    </g>
    <g id="ytick_2">
     <g id="line2d_20">
      <g>
       <use style="stroke:#000000;stroke-width:0.5;" x="72.0" xlink:href="#m728421d6d4" y="302.4"/>
      </g>
     </g>
     <g id="line2d_21">
      <g>
       <use style="stroke:#000000;stroke-width:0.5;" x="518.4" xlink:href="#mcb0005524f" y="302.4"/>
      </g>
     </g>
     <g id="text_9">
      <!-- 50 -->
      <g transform="translate(54.6275 305.7515625)scale(0.12 -0.12)">
       <use xlink:href="#Verdana-35"/>
       <use x="63.57421875" xlink:href="#Verdana-30"/>
      </g>
     </g>
    </g>
    <g id="ytick_3">
     <g id="line2d_22">
      <g>
       <use style="stroke:#000000;stroke-width:0.5;" x="72.0" xlink:href="#m728421d6d4" y="216.0"/>
      </g>
     </g>
     <g id="line2d_23">
      <g>
       <use style="stroke:#000000;stroke-width:0.5;" x="518.4" xlink:href="#mcb0005524f" y="216.0"/>
      </g>
     </g>
     <g id="text_10">
      <!-- 100 -->
      <g transform="translate(47.5325 219.3515625)scale(0.12 -0.12)">
       <use xlink:href="#Verdana-31"/>
       <use x="63.57421875" xlink:href="#Verdana-30"/>
       <use x="127.1484375" xlink:href="#Verdana-30"/>
      </g>
     </g>
    </g>
    <g id="ytick_4">
     <g id="line2d_24">
      <g>
       <use style="stroke:#000000;stroke-width:0.5;" x="72.0" xlink:href="#m728421d6d4" y="129.6"/>
      </g>
     </g>
     <g id="line2d_25">
      <g>
       <use style="stroke:#000000;stroke-width:0.5;" x="518.4" xlink:href="#mcb0005524f" y="129.6"/>
      </g>
     </g>
     <g id="text_11">
      <!-- 150 -->
      <g transform="translate(47.5325 132.9515625)scale(0.12 -0.12)">
       <use xlink:href="#Verdana-31"/>
       <use x="63.57421875" xlink:href="#Verdana-35"/>
       <use x="127.1484375" xlink:href="#Verdana-30"/>
      </g>
     </g>
    </g>
    <g id="ytick_5">
     <g id="line2d_26">
      <g>
       <use style="stroke:#000000;stroke-width:0.5;" x="72.0" xlink:href="#m728421d6d4" y="43.2"/>
      </g>
     </g>
     <g id="line2d_27">
      <g>
       <use style="stroke:#000000;stroke-width:0.5;" x="518.4" xlink:href="#mcb0005524f" y="43.2"/>
      </g>
     </g>
     <g id="text_12">
      <!-- 200 -->
      <g transform="translate(46.84625 46.5515625)scale(0.12 -0.12)">
       <use xlink:href="#Verdana-32"/>
       <use x="63.57421875" xlink:href="#Verdana-30"/>
       <use x="127.1484375" xlink:href="#Verdana-30"/>
      </g>
     </g>
    </g>
   </g>
   <g id="patch_3">
    <path d="
M72 43.2
L518.4 43.2" style="fill:none;stroke:#000000;"/>
   </g>
   <g id="patch_4">
    <path d="
M518.4 388.8
L518.4 43.2" style="fill:none;stroke:#000000;"/>
   </g>
   <g id="patch_5">
    <path d="
M72 388.8
L518.4 388.8" style="fill:none;stroke:#000000;"/>
   </g>
   <g id="patch_6">
    <path d="
M72 388.8
L72 43.2" style="fill:none;stroke:#000000;"/>
   </g>
   <g id="legend_1">
    <g id="patch_7">
     <path d="
M424.946 178.652
L511.2 178.652
L511.2 50.4
L424.946 50.4
L424.946 178.652
z
" style="fill:#ffffff;stroke:#000000;"/>
    </g>
    <g id="text_13">
     <!-- id -->
     <defs>
      <path d="
M53.2656 0
L44.0938 0
L44.0938 5.71875
Q40.1406 2.29688 35.8438 0.390625
Q31.5469 -1.51562 26.5156 -1.51562
Q16.75 -1.51562 11.0156 6
Q5.28125 13.5312 5.28125 26.8594
Q5.28125 33.7969 7.25 39.2031
Q9.23438 44.625 12.5938 48.4375
Q15.9219 52.1562 20.3281 54.1094
Q24.75 56.0625 29.5 56.0625
Q33.7969 56.0625 37.1094 55.1562
Q40.4375 54.25 44.0938 52.3438
L44.0938 75.9844
L53.2656 75.9844
z

M44.0938 13.4219
L44.0938 44.7344
Q40.375 46.3906 37.4375 47.0156
Q34.5156 47.6562 31.0625 47.6562
Q23.3438 47.6562 19.0469 42.2812
Q14.75 36.9219 14.75 27.0469
Q14.75 17.3281 18.0625 12.2812
Q21.3906 7.23438 28.7188 7.23438
Q32.625 7.23438 36.625 8.95312
Q40.625 10.6875 44.0938 13.4219" id="Verdana-64"/>
      <path d="
M18.8906 63.6719
L8.54688 63.6719
L8.54688 73.1875
L18.8906 73.1875
z

M18.3125 0
L9.125 0
L9.125 54.5469
L18.3125 54.5469
z
" id="Verdana-69"/>
     </defs>
     <g transform="translate(463.74375 65.278125)scale(0.12 -0.12)">
      <use xlink:href="#Verdana-69"/>
      <use x="27.44140625" xlink:href="#Verdana-64"/>
     </g>
    </g>
    <g id="patch_8">
     <path d="
M430.706 85.8349
L459.506 85.8349
L459.506 75.7549
L430.706 75.7549
z
" style="fill:#0000ff;stroke:#000000;"/>
    </g>
    <g id="text_14">
     <!-- 798a -->
     <defs>
      <path d="
M56.9844 40.7188
Q56.9844 31.2031 54.8125 23.4375
Q52.6406 15.6719 48.25 10.2031
Q43.7969 4.64062 37.1094 1.60938
Q30.4219 -1.42188 21.3906 -1.42188
Q18.8438 -1.42188 16.5938 -1.14062
Q14.3594 -0.875 12.5938 -0.296875
L12.5938 9.03125
L13.0938 9.03125
Q14.5 8.29688 17.0781 7.64062
Q19.6719 6.98438 22.8594 6.98438
Q33.6406 6.98438 39.7656 13.4531
Q45.9062 19.9219 46.875 31.2969
Q42.3281 28.5625 38.3281 27.3906
Q34.3281 26.2188 29.5938 26.2188
Q25.0938 26.2188 21.4531 27.0938
Q17.8281 27.9844 14.1562 30.5156
Q9.85938 33.5 7.6875 38.0781
Q5.51562 42.6719 5.51562 49.0781
Q5.51562 60.2031 12.8438 67.1875
Q20.1719 74.1719 30.7188 74.1719
Q35.9844 74.1719 40.4688 72.5312
Q44.9688 70.9062 48.3438 67.625
Q52.4844 63.5781 54.7344 57.2031
Q56.9844 50.8281 56.9844 40.7188
M47.125 42.8281
Q47.125 50.3906 45.5625 54.9844
Q44 59.5781 41.2656 62.1094
Q38.9688 64.3125 36.3281 65.2656
Q33.6875 66.2188 30.6094 66.2188
Q23.5781 66.2188 19.5 61.8125
Q15.4375 57.4219 15.4375 49.4688
Q15.4375 44.8281 16.75 41.8906
Q18.0625 38.9688 21.1875 36.7656
Q23.3906 35.25 26.0156 34.7344
Q28.6562 34.2344 31.8906 34.2344
Q35.6875 34.2344 39.5938 35.25
Q43.5 36.2812 46.9219 38.2344
Q46.9688 39.2656 47.0469 40.2656
Q47.125 41.2656 47.125 42.8281" id="Verdana-39"/>
      <path d="
M57.2812 61.8125
L24.3594 0
L13.9219 0
L48.9219 64.1562
L7.51562 64.1562
L7.51562 72.7031
L57.2812 72.7031
z
" id="Verdana-37"/>
      <path d="
M51.4219 0
L42.2812 0
L42.2812 5.8125
Q41.0625 4.98438 38.9844 3.48438
Q36.9219 2 34.9688 1.125
Q32.6719 0 29.6875 -0.75
Q26.7031 -1.51562 22.7031 -1.51562
Q15.3281 -1.51562 10.2031 3.35938
Q5.07812 8.25 5.07812 15.8281
Q5.07812 22.0156 7.73438 25.8438
Q10.4062 29.6875 15.3281 31.8906
Q20.3125 34.0781 27.2969 34.8594
Q34.2812 35.6406 42.2812 36.0312
L42.2812 37.4531
Q42.2812 40.5781 41.1875 42.625
Q40.0938 44.6719 38.0312 45.8438
Q36.0781 46.9688 33.3438 47.3594
Q30.6094 47.75 27.6406 47.75
Q24.0312 47.75 19.5781 46.7969
Q15.1406 45.8438 10.4062 44.0469
L9.90625 44.0469
L9.90625 53.375
Q12.5938 54.1094 17.6719 54.9844
Q22.75 55.8594 27.6875 55.8594
Q33.4531 55.8594 37.7188 54.9062
Q42 53.9531 45.125 51.6562
Q48.1875 49.4219 49.7969 45.8438
Q51.4219 42.2812 51.4219 37.0156
z

M42.2812 13.4219
L42.2812 28.6094
Q38.0938 28.375 32.3906 27.875
Q26.7031 27.3906 23.3906 26.4688
Q19.4375 25.3438 16.9844 22.9688
Q14.5469 20.6094 14.5469 16.4531
Q14.5469 11.7656 17.375 9.39062
Q20.2188 7.03125 26.0312 7.03125
Q30.8594 7.03125 34.8594 8.90625
Q38.875 10.7969 42.2812 13.4219" id="Verdana-61"/>
     </defs>
     <g transform="translate(471.02625 85.834875)scale(0.144 -0.144)">
      <use xlink:href="#Verdana-37"/>
      <use x="63.57421875" xlink:href="#Verdana-39"/>
      <use x="127.1484375" xlink:href="#Verdana-38"/>
      <use x="190.72265625" xlink:href="#Verdana-61"/>
     </g>
    </g>
    <g id="patch_9">
     <path d="
M430.706 106.875
L459.506 106.875
L459.506 96.7946
L430.706 96.7946
z
" style="fill:#008000;stroke:#000000;"/>
    </g>
    <g id="text_15">
     <!-- 79fd -->
     <g transform="translate(471.02625 106.874625)scale(0.144 -0.144)">
      <use xlink:href="#Verdana-37"/>
      <use x="63.57421875" xlink:href="#Verdana-39"/>
      <use x="127.1484375" xlink:href="#Verdana-66"/>
      <use x="162.3046875" xlink:href="#Verdana-64"/>
     </g>
    </g>
    <g id="patch_10">
     <path d="
M430.706 127.914
L459.506 127.914
L459.506 117.834
L430.706 117.834
z
" style="fill:#ff0000;stroke:#000000;"/>
    </g>
    <g id="text_16">
     <!-- 7ade -->
     <g transform="translate(471.02625 127.914375)scale(0.144 -0.144)">
      <use xlink:href="#Verdana-37"/>
      <use x="63.57421875" xlink:href="#Verdana-61"/>
      <use x="123.6328125" xlink:href="#Verdana-64"/>
      <use x="185.9375" xlink:href="#Verdana-65"/>
     </g>
    </g>
    <g id="patch_11">
     <path d="
M430.706 148.954
L459.506 148.954
L459.506 138.874
L430.706 138.874
z
" style="fill:#00bfbf;stroke:#000000;"/>
    </g>
    <g id="text_17">
     <!-- 7b71 -->
     <defs>
      <path d="
M57.0312 27.6875
Q57.0312 20.8438 55.0938 15.375
Q53.1719 9.90625 49.9062 6.20312
Q46.4375 2.34375 42.2812 0.40625
Q38.1406 -1.51562 33.1562 -1.51562
Q28.5156 -1.51562 25.0469 -0.40625
Q21.5781 0.6875 18.2188 2.54688
L17.625 0
L9.03125 0
L9.03125 75.9844
L18.2188 75.9844
L18.2188 48.8281
Q22.0781 52 26.4219 54.0312
Q30.7656 56.0625 36.1875 56.0625
Q45.8438 56.0625 51.4375 48.6406
Q57.0312 41.2188 57.0312 27.6875
M47.5625 27.4375
Q47.5625 37.2031 44.3281 42.25
Q41.1094 47.3125 33.9375 47.3125
Q29.9375 47.3125 25.8281 45.5781
Q21.7344 43.8438 18.2188 41.1094
L18.2188 9.85938
Q22.125 8.10938 24.9219 7.42188
Q27.7344 6.73438 31.2969 6.73438
Q38.9219 6.73438 43.2344 11.7344
Q47.5625 16.75 47.5625 27.4375" id="Verdana-62"/>
     </defs>
     <g transform="translate(471.02625 148.954125)scale(0.144 -0.144)">
      <use xlink:href="#Verdana-37"/>
      <use x="63.57421875" xlink:href="#Verdana-62"/>
      <use x="125.87890625" xlink:href="#Verdana-37"/>
      <use x="189.453125" xlink:href="#Verdana-31"/>
     </g>
    </g>
    <g id="patch_12">
     <path d="
M430.706 169.994
L459.506 169.994
L459.506 159.914
L430.706 159.914
z
" style="fill:#bf00bf;stroke:#000000;"/>
    </g>
    <g id="text_18">
     <!-- 7d1b -->
     <g transform="translate(471.02625 169.993875)scale(0.144 -0.144)">
      <use xlink:href="#Verdana-37"/>
      <use x="63.57421875" xlink:href="#Verdana-64"/>
      <use x="125.87890625" xlink:href="#Verdana-31"/>
      <use x="189.453125" xlink:href="#Verdana-62"/>
     </g>
    </g>
   </g>
  </g>
 </g>
 <defs>
  <clipPath id="p7ff5b81e1d">
   <rect height="345.6" width="446.4" x="72.0" y="43.2"/>
  </clipPath>
 </defs>
</svg>
