<?xml version="1.0" encoding="utf-8" standalone="no"?>
<!DOCTYPE svg PUBLIC "-//W3C//DTD SVG 1.1//EN"
  "http://www.w3.org/Graphics/SVG/1.1/DTD/svg11.dtd">
<!-- Created with matplotlib (http://matplotlib.org/) -->
<svg height="432pt" version="1.1" viewBox="0 0 576 432" width="576pt" xmlns="http://www.w3.org/2000/svg" xmlns:xlink="http://www.w3.org/1999/xlink">
 <defs>
  <style type="text/css">
*{stroke-linecap:butt;stroke-linejoin:round;stroke-miterlimit:100000;}
  </style>
 </defs>
 <g id="figure_1">
  <g id="patch_1">
   <path d="M 0 432 
L 576 432 
L 576 0 
L 0 0 
z
" style="fill:#ffffff;"/>
  </g>
  <g id="axes_1">
   <g id="patch_2">
    <path d="M 72 388.8 
L 518.4 388.8 
L 518.4 43.2 
L 72 43.2 
z
" style="fill:#ffffff;"/>
   </g>
   <g id="PolyCollection_1">
    <defs>
     <path d="M 72 -43.2 
L 72 -43.2 
L 74.243216 -43.2 
L 76.486432 -43.2 
L 78.729648 -43.2 
L 80.972864 -43.2 
L 83.21608 -43.2 
L 85.459296 -43.2 
L 87.702513 -43.2 
L 89.945729 -43.2 
L 92.188945 -43.2 
L 94.432161 -43.2 
L 96.675377 -43.2 
L 98.918593 -43.2 
L 101.161809 -43.2 
L 103.405025 -43.2 
L 105.648241 -43.2 
L 107.891457 -43.2 
L 110.134673 -43.2 
L 112.377889 -43.2 
L 114.621106 -43.2 
L 116.864322 -43.2 
L 119.107538 -43.2 
L 121.350754 -43.2 
L 123.59397 -43.2 
L 125.837186 -43.2 
L 128.080402 -43.2 
L 130.323618 -43.2 
L 132.566834 -43.2 
L 134.81005 -43.2 
L 137.053266 -43.2 
L 139.296482 -43.2 
L 141.539698 -43.2 
L 143.782915 -43.2 
L 146.026131 -43.2 
L 148.269347 -43.2 
L 150.512563 -43.2 
L 152.755779 -43.2 
L 154.998995 -43.2 
L 157.242211 -43.2 
L 159.485427 -43.2 
L 161.728643 -43.2 
L 163.971859 -43.2 
L 166.215075 -43.2 
L 168.458291 -43.2 
L 170.701508 -43.2 
L 172.944724 -43.2 
L 175.18794 -43.2 
L 177.431156 -43.2 
L 179.674372 -43.2 
L 181.917588 -43.2 
L 184.160804 -43.2 
L 186.40402 -43.2 
L 188.647236 -43.2 
L 190.890452 -43.2 
L 193.133668 -43.2 
L 195.376884 -43.2 
L 197.620101 -43.2 
L 199.863317 -43.2 
L 202.106533 -43.2 
L 204.349749 -43.2 
L 206.592965 -43.2 
L 208.836181 -43.2 
L 211.079397 -43.2 
L 213.322613 -43.2 
L 215.565829 -43.2 
L 217.809045 -43.2 
L 220.052261 -43.2 
L 222.295477 -43.2 
L 224.538693 -43.2 
L 226.78191 -43.2 
L 229.025126 -43.2 
L 231.268342 -43.2 
L 233.511558 -43.2 
L 235.754774 -43.2 
L 237.99799 -43.2 
L 240.241206 -43.2 
L 242.484422 -43.2 
L 244.727638 -43.2 
L 246.970854 -43.2 
L 249.21407 -43.2 
L 251.457286 -43.2 
L 253.700503 -43.2 
L 255.943719 -43.2 
L 258.186935 -43.2 
L 260.430151 -43.2 
L 262.673367 -43.2 
L 264.916583 -43.2 
L 267.159799 -43.2 
L 269.403015 -43.2 
L 271.646231 -43.2 
L 273.889447 -43.2 
L 276.132663 -43.2 
L 278.375879 -43.2 
L 280.619095 -43.2 
L 282.862312 -43.2 
L 285.105528 -43.2 
L 287.348744 -43.2 
L 289.59196 -43.2 
L 291.835176 -43.2 
L 294.078392 -43.2 
L 296.321608 -43.2 
L 298.564824 -43.2 
L 300.80804 -43.2 
L 303.051256 -43.2 
L 305.294472 -43.2 
L 307.537688 -43.2 
L 309.780905 -43.2 
L 312.024121 -43.2 
L 314.267337 -43.2 
L 316.510553 -43.2 
L 318.753769 -43.2 
L 320.996985 -43.2 
L 323.240201 -43.2 
L 325.483417 -43.2 
L 327.726633 -43.2 
L 329.969849 -43.2 
L 332.213065 -43.2 
L 334.456281 -43.2 
L 336.699497 -43.2 
L 338.942714 -43.2 
L 341.18593 -43.2 
L 343.429146 -43.2 
L 345.672362 -43.2 
L 347.915578 -43.2 
L 350.158794 -43.2 
L 352.40201 -43.2 
L 354.645226 -43.2 
L 356.888442 -43.2 
L 359.131658 -43.2 
L 361.374874 -43.2 
L 363.61809 -43.2 
L 365.861307 -43.2 
L 368.104523 -43.2 
L 370.347739 -43.2 
L 372.590955 -43.2 
L 374.834171 -43.2 
L 377.077387 -43.2 
L 379.320603 -43.2 
L 381.563819 -43.2 
L 383.807035 -43.2 
L 386.050251 -43.2 
L 388.293467 -43.2 
L 390.536683 -43.2 
L 392.779899 -43.2 
L 395.023116 -43.2 
L 397.266332 -43.2 
L 399.509548 -43.2 
L 401.752764 -43.2 
L 403.99598 -43.2 
L 406.239196 -43.2 
L 408.482412 -43.2 
L 410.725628 -43.2 
L 412.968844 -43.2 
L 415.21206 -43.2 
L 417.455276 -43.2 
L 419.698492 -43.2 
L 421.941709 -43.2 
L 424.184925 -43.2 
L 426.428141 -43.2 
L 428.671357 -43.2 
L 430.914573 -43.2 
L 433.157789 -43.2 
L 435.401005 -43.2 
L 437.644221 -43.2 
L 439.887437 -43.2 
L 442.130653 -43.2 
L 444.373869 -43.2 
L 446.617085 -43.2 
L 448.860302 -43.2 
L 451.103518 -43.2 
L 453.346734 -43.2 
L 455.58995 -43.2 
L 457.833166 -43.2 
L 460.076382 -43.2 
L 462.319598 -43.2 
L 464.562814 -43.2 
L 466.80603 -43.2 
L 469.049246 -43.2 
L 471.292462 -43.2 
L 473.535678 -43.2 
L 475.778894 -43.2 
L 478.022111 -43.2 
L 480.265327 -43.2 
L 482.508543 -43.2 
L 484.751759 -43.2 
L 486.994975 -43.2 
L 489.238191 -43.2 
L 491.481407 -43.2 
L 493.724623 -43.2 
L 495.967839 -43.2 
L 498.211055 -43.2 
L 500.454271 -43.2 
L 502.697487 -43.2 
L 504.940704 -43.2 
L 507.18392 -43.2 
L 509.427136 -43.2 
L 511.670352 -43.2 
L 513.913568 -43.2 
L 516.156784 -43.2 
L 518.4 -43.2 
L 518.4 -43.2 
L 518.4 -43.2 
L 516.156784 -43.2 
L 513.913568 -43.2 
L 511.670352 -43.2 
L 509.427136 -43.2 
L 507.18392 -43.2 
L 504.940704 -43.2 
L 502.697487 -43.2 
L 500.454271 -43.2 
L 498.211055 -43.2 
L 495.967839 -43.2 
L 493.724623 -43.2 
L 491.481407 -43.2 
L 489.238191 -43.2 
L 486.994975 -43.2 
L 484.751759 -43.2 
L 482.508543 -43.2 
L 480.265327 -43.2 
L 478.022111 -43.2 
L 475.778894 -43.2 
L 473.535678 -43.2 
L 471.292462 -43.2 
L 469.049246 -43.2 
L 466.80603 -43.2 
L 464.562814 -43.2 
L 462.319598 -43.2 
L 460.076382 -43.2 
L 457.833166 -43.2 
L 455.58995 -43.2 
L 453.346734 -43.2 
L 451.103518 -43.2 
L 448.860302 -43.2 
L 446.617085 -43.2 
L 444.373869 -43.2 
L 442.130653 -43.2 
L 439.887437 -43.2 
L 437.644221 -43.2 
L 435.401005 -43.2 
L 433.157789 -43.2 
L 430.914573 -43.2 
L 428.671357 -43.2 
L 426.428141 -43.2 
L 424.184925 -43.2 
L 421.941709 -43.2 
L 419.698492 -43.2 
L 417.455276 -43.2 
L 415.21206 -43.2 
L 412.968844 -43.2 
L 410.725628 -43.2 
L 408.482412 -45.2736 
L 406.239196 -46.656 
L 403.99598 -67.392 
L 401.752764 -91.584 
L 399.509548 -71.5392 
L 397.266332 -106.7904 
L 395.023116 -124.7616 
L 392.779899 -104.7168 
L 390.536683 -113.7024 
L 388.293467 -90.2016 
L 386.050251 -54.9504 
L 383.807035 -46.656 
L 381.563819 -43.2 
L 379.320603 -43.2 
L 377.077387 -43.2 
L 374.834171 -43.2 
L 372.590955 -43.2 
L 370.347739 -43.2 
L 368.104523 -43.2 
L 365.861307 -43.2 
L 363.61809 -43.2 
L 361.374874 -43.2 
L 359.131658 -43.2 
L 356.888442 -43.2 
L 354.645226 -43.2 
L 352.40201 -43.2 
L 350.158794 -43.2 
L 347.915578 -43.2 
L 345.672362 -43.2 
L 343.429146 -43.2 
L 341.18593 -43.2 
L 338.942714 -43.2 
L 336.699497 -43.2 
L 334.456281 -43.2 
L 332.213065 -43.2 
L 329.969849 -43.2 
L 327.726633 -43.2 
L 325.483417 -43.2 
L 323.240201 -43.2 
L 320.996985 -43.2 
L 318.753769 -43.2 
L 316.510553 -43.2 
L 314.267337 -43.2 
L 312.024121 -43.2 
L 309.780905 -43.2 
L 307.537688 -43.2 
L 305.294472 -43.2 
L 303.051256 -43.2 
L 300.80804 -43.2 
L 298.564824 -43.2 
L 296.321608 -43.2 
L 294.078392 -43.2 
L 291.835176 -43.2 
L 289.59196 -43.2 
L 287.348744 -43.2 
L 285.105528 -43.2 
L 282.862312 -43.2 
L 280.619095 -43.2 
L 278.375879 -43.2 
L 276.132663 -43.2 
L 273.889447 -43.2 
L 271.646231 -43.2 
L 269.403015 -43.2 
L 267.159799 -43.2 
L 264.916583 -43.2 
L 262.673367 -43.2 
L 260.430151 -43.2 
L 258.186935 -43.2 
L 255.943719 -43.2 
L 253.700503 -43.2 
L 251.457286 -43.2 
L 249.21407 -43.2 
L 246.970854 -43.2 
L 244.727638 -43.2 
L 242.484422 -43.2 
L 240.241206 -43.2 
L 237.99799 -43.2 
L 235.754774 -43.2 
L 233.511558 -43.2 
L 231.268342 -43.2 
L 229.025126 -43.2 
L 226.78191 -43.2 
L 224.538693 -43.2 
L 222.295477 -43.2 
L 220.052261 -43.2 
L 217.809045 -43.2 
L 215.565829 -43.2 
L 213.322613 -43.2 
L 211.079397 -43.2 
L 208.836181 -43.2 
L 206.592965 -43.2 
L 204.349749 -43.2 
L 202.106533 -43.2 
L 199.863317 -43.2 
L 197.620101 -43.8912 
L 195.376884 -47.3472 
L 193.133668 -57.7152 
L 190.890452 -139.968 
L 188.647236 -139.2768 
L 186.40402 -137.2032 
L 184.160804 -145.4976 
L 181.917588 -99.8784 
L 179.674372 -81.216 
L 177.431156 -106.0992 
L 175.18794 -52.1856 
L 172.944724 -43.8912 
L 170.701508 -43.8912 
L 168.458291 -43.2 
L 166.215075 -43.2 
L 163.971859 -43.2 
L 161.728643 -43.2 
L 159.485427 -43.2 
L 157.242211 -43.2 
L 154.998995 -43.2 
L 152.755779 -43.2 
L 150.512563 -43.2 
L 148.269347 -43.2 
L 146.026131 -43.2 
L 143.782915 -43.2 
L 141.539698 -43.2 
L 139.296482 -43.2 
L 137.053266 -43.2 
L 134.81005 -43.2 
L 132.566834 -43.2 
L 130.323618 -43.2 
L 128.080402 -43.2 
L 125.837186 -43.2 
L 123.59397 -43.2 
L 121.350754 -43.2 
L 119.107538 -43.2 
L 116.864322 -43.2 
L 114.621106 -43.2 
L 112.377889 -43.2 
L 110.134673 -43.2 
L 107.891457 -43.2 
L 105.648241 -43.2 
L 103.405025 -43.2 
L 101.161809 -43.2 
L 98.918593 -43.2 
L 96.675377 -43.2 
L 94.432161 -43.2 
L 92.188945 -43.2 
L 89.945729 -43.2 
L 87.702513 -43.2 
L 85.459296 -43.2 
L 83.21608 -43.2 
L 80.972864 -43.2 
L 78.729648 -43.2 
L 76.486432 -43.2 
L 74.243216 -43.2 
L 72 -43.2 
z
" id="m61c3506dca" style="stroke:#0000ff;"/>
    </defs>
    <g clip-path="url(#p4bdb543b48)">
     <use style="fill:#0000ff;stroke:#0000ff;" x="0.0" xlink:href="#m61c3506dca" y="432.0"/>
    </g>
   </g>
   <g id="PolyCollection_2">
    <defs>
     <path d="M 72 -43.2 
L 72 -43.2 
L 74.243216 -43.2 
L 76.486432 -43.2 
L 78.729648 -43.2 
L 80.972864 -43.2 
L 83.21608 -43.2 
L 85.459296 -43.2 
L 87.702513 -43.2 
L 89.945729 -43.2 
L 92.188945 -43.2 
L 94.432161 -43.2 
L 96.675377 -43.2 
L 98.918593 -43.2 
L 101.161809 -43.2 
L 103.405025 -43.2 
L 105.648241 -43.2 
L 107.891457 -43.2 
L 110.134673 -43.2 
L 112.377889 -43.2 
L 114.621106 -43.2 
L 116.864322 -43.2 
L 119.107538 -43.2 
L 121.350754 -43.2 
L 123.59397 -43.2 
L 125.837186 -43.2 
L 128.080402 -43.2 
L 130.323618 -43.2 
L 132.566834 -43.2 
L 134.81005 -43.2 
L 137.053266 -43.2 
L 139.296482 -43.2 
L 141.539698 -43.2 
L 143.782915 -43.2 
L 146.026131 -43.2 
L 148.269347 -43.2 
L 150.512563 -43.2 
L 152.755779 -43.2 
L 154.998995 -43.2 
L 157.242211 -43.2 
L 159.485427 -43.2 
L 161.728643 -43.2 
L 163.971859 -43.2 
L 166.215075 -43.2 
L 168.458291 -43.2 
L 170.701508 -43.8912 
L 172.944724 -43.8912 
L 175.18794 -52.1856 
L 177.431156 -106.0992 
L 179.674372 -81.216 
L 181.917588 -99.8784 
L 184.160804 -145.4976 
L 186.40402 -137.2032 
L 188.647236 -139.2768 
L 190.890452 -139.968 
L 193.133668 -57.7152 
L 195.376884 -47.3472 
L 197.620101 -43.8912 
L 199.863317 -43.2 
L 202.106533 -43.2 
L 204.349749 -43.2 
L 206.592965 -43.2 
L 208.836181 -43.2 
L 211.079397 -43.2 
L 213.322613 -43.2 
L 215.565829 -43.2 
L 217.809045 -43.2 
L 220.052261 -43.2 
L 222.295477 -43.2 
L 224.538693 -43.2 
L 226.78191 -43.2 
L 229.025126 -43.2 
L 231.268342 -43.2 
L 233.511558 -43.2 
L 235.754774 -43.2 
L 237.99799 -43.2 
L 240.241206 -43.2 
L 242.484422 -43.2 
L 244.727638 -43.2 
L 246.970854 -43.2 
L 249.21407 -43.2 
L 251.457286 -43.2 
L 253.700503 -43.2 
L 255.943719 -43.2 
L 258.186935 -43.2 
L 260.430151 -43.2 
L 262.673367 -43.2 
L 264.916583 -43.2 
L 267.159799 -43.2 
L 269.403015 -43.2 
L 271.646231 -43.2 
L 273.889447 -43.2 
L 276.132663 -43.2 
L 278.375879 -43.2 
L 280.619095 -43.2 
L 282.862312 -43.2 
L 285.105528 -43.2 
L 287.348744 -43.2 
L 289.59196 -43.2 
L 291.835176 -43.2 
L 294.078392 -43.2 
L 296.321608 -43.2 
L 298.564824 -43.2 
L 300.80804 -43.2 
L 303.051256 -43.2 
L 305.294472 -43.2 
L 307.537688 -43.2 
L 309.780905 -43.2 
L 312.024121 -43.2 
L 314.267337 -43.2 
L 316.510553 -43.2 
L 318.753769 -43.2 
L 320.996985 -43.2 
L 323.240201 -43.2 
L 325.483417 -43.2 
L 327.726633 -43.2 
L 329.969849 -43.2 
L 332.213065 -43.2 
L 334.456281 -43.2 
L 336.699497 -43.2 
L 338.942714 -43.2 
L 341.18593 -43.2 
L 343.429146 -43.2 
L 345.672362 -43.2 
L 347.915578 -43.2 
L 350.158794 -43.2 
L 352.40201 -43.2 
L 354.645226 -43.2 
L 356.888442 -43.2 
L 359.131658 -43.2 
L 361.374874 -43.2 
L 363.61809 -43.2 
L 365.861307 -43.2 
L 368.104523 -43.2 
L 370.347739 -43.2 
L 372.590955 -43.2 
L 374.834171 -43.2 
L 377.077387 -43.2 
L 379.320603 -43.2 
L 381.563819 -43.2 
L 383.807035 -46.656 
L 386.050251 -54.9504 
L 388.293467 -90.2016 
L 390.536683 -113.7024 
L 392.779899 -104.7168 
L 395.023116 -124.7616 
L 397.266332 -106.7904 
L 399.509548 -71.5392 
L 401.752764 -91.584 
L 403.99598 -67.392 
L 406.239196 -46.656 
L 408.482412 -45.2736 
L 410.725628 -43.2 
L 412.968844 -43.2 
L 415.21206 -43.2 
L 417.455276 -43.2 
L 419.698492 -43.2 
L 421.941709 -43.2 
L 424.184925 -43.2 
L 426.428141 -43.2 
L 428.671357 -43.2 
L 430.914573 -43.2 
L 433.157789 -43.2 
L 435.401005 -43.2 
L 437.644221 -43.2 
L 439.887437 -43.2 
L 442.130653 -43.2 
L 444.373869 -43.2 
L 446.617085 -43.2 
L 448.860302 -43.2 
L 451.103518 -43.2 
L 453.346734 -43.2 
L 455.58995 -43.2 
L 457.833166 -43.2 
L 460.076382 -43.2 
L 462.319598 -43.2 
L 464.562814 -43.2 
L 466.80603 -43.2 
L 469.049246 -43.2 
L 471.292462 -43.2 
L 473.535678 -43.2 
L 475.778894 -43.2 
L 478.022111 -43.2 
L 480.265327 -43.2 
L 482.508543 -43.2 
L 484.751759 -43.2 
L 486.994975 -43.2 
L 489.238191 -43.2 
L 491.481407 -43.2 
L 493.724623 -43.2 
L 495.967839 -43.2 
L 498.211055 -43.2 
L 500.454271 -43.2 
L 502.697487 -43.2 
L 504.940704 -43.2 
L 507.18392 -43.2 
L 509.427136 -43.2 
L 511.670352 -43.2 
L 513.913568 -43.2 
L 516.156784 -43.2 
L 518.4 -43.2 
L 518.4 -43.2 
L 518.4 -43.2 
L 516.156784 -43.2 
L 513.913568 -43.2 
L 511.670352 -43.2 
L 509.427136 -43.2 
L 507.18392 -43.2 
L 504.940704 -43.2 
L 502.697487 -43.2 
L 500.454271 -43.2 
L 498.211055 -43.2 
L 495.967839 -43.2 
L 493.724623 -43.2 
L 491.481407 -43.2 
L 489.238191 -43.2 
L 486.994975 -43.2 
L 484.751759 -43.2 
L 482.508543 -43.2 
L 480.265327 -43.2 
L 478.022111 -43.2 
L 475.778894 -43.2 
L 473.535678 -43.2 
L 471.292462 -43.2 
L 469.049246 -43.2 
L 466.80603 -43.2 
L 464.562814 -43.2 
L 462.319598 -43.2 
L 460.076382 -43.2 
L 457.833166 -43.2 
L 455.58995 -43.2 
L 453.346734 -43.2 
L 451.103518 -43.2 
L 448.860302 -43.2 
L 446.617085 -43.2 
L 444.373869 -43.2 
L 442.130653 -43.2 
L 439.887437 -43.2 
L 437.644221 -43.2 
L 435.401005 -43.2 
L 433.157789 -43.2 
L 430.914573 -43.2 
L 428.671357 -43.2 
L 426.428141 -43.2 
L 424.184925 -43.2 
L 421.941709 -43.2 
L 419.698492 -43.2 
L 417.455276 -43.2 
L 415.21206 -43.2 
L 412.968844 -43.2 
L 410.725628 -43.2 
L 408.482412 -45.2736 
L 406.239196 -46.656 
L 403.99598 -68.7744 
L 401.752764 -97.8048 
L 399.509548 -169.6896 
L 397.266332 -138.5856 
L 395.023116 -162.7776 
L 392.779899 -210.4704 
L 390.536683 -225.6768 
L 388.293467 -206.3232 
L 386.050251 -168.3072 
L 383.807035 -63.936 
L 381.563819 -48.7296 
L 379.320603 -45.2736 
L 377.077387 -43.2 
L 374.834171 -43.2 
L 372.590955 -43.2 
L 370.347739 -43.2 
L 368.104523 -43.2 
L 365.861307 -43.2 
L 363.61809 -43.2 
L 361.374874 -43.2 
L 359.131658 -43.2 
L 356.888442 -43.2 
L 354.645226 -43.2 
L 352.40201 -43.2 
L 350.158794 -43.2 
L 347.915578 -43.2 
L 345.672362 -43.2 
L 343.429146 -43.2 
L 341.18593 -43.2 
L 338.942714 -43.2 
L 336.699497 -43.2 
L 334.456281 -43.2 
L 332.213065 -43.2 
L 329.969849 -43.2 
L 327.726633 -43.2 
L 325.483417 -43.2 
L 323.240201 -43.2 
L 320.996985 -43.2 
L 318.753769 -43.2 
L 316.510553 -43.2 
L 314.267337 -43.2 
L 312.024121 -43.2 
L 309.780905 -43.2 
L 307.537688 -43.2 
L 305.294472 -43.2 
L 303.051256 -43.2 
L 300.80804 -43.2 
L 298.564824 -43.2 
L 296.321608 -43.2 
L 294.078392 -43.2 
L 291.835176 -43.2 
L 289.59196 -43.2 
L 287.348744 -43.2 
L 285.105528 -43.2 
L 282.862312 -43.2 
L 280.619095 -43.2 
L 278.375879 -43.2 
L 276.132663 -43.2 
L 273.889447 -43.2 
L 271.646231 -43.2 
L 269.403015 -43.2 
L 267.159799 -43.2 
L 264.916583 -43.2 
L 262.673367 -43.2 
L 260.430151 -43.2 
L 258.186935 -43.2 
L 255.943719 -43.2 
L 253.700503 -43.2 
L 251.457286 -43.2 
L 249.21407 -43.2 
L 246.970854 -43.2 
L 244.727638 -43.2 
L 242.484422 -43.2 
L 240.241206 -43.2 
L 237.99799 -43.2 
L 235.754774 -43.2 
L 233.511558 -43.2 
L 231.268342 -43.2 
L 229.025126 -43.2 
L 226.78191 -43.2 
L 224.538693 -43.2 
L 222.295477 -43.2 
L 220.052261 -43.2 
L 217.809045 -43.2 
L 215.565829 -43.2 
L 213.322613 -43.2 
L 211.079397 -43.2 
L 208.836181 -43.2 
L 206.592965 -43.2 
L 204.349749 -43.2 
L 202.106533 -43.2 
L 199.863317 -43.2 
L 197.620101 -43.8912 
L 195.376884 -47.3472 
L 193.133668 -59.0976 
L 190.890452 -153.792 
L 188.647236 -202.8672 
L 186.40402 -192.4992 
L 184.160804 -192.4992 
L 181.917588 -142.0416 
L 179.674372 -109.5552 
L 177.431156 -120.6144 
L 175.18794 -83.9808 
L 172.944724 -57.7152 
L 170.701508 -47.3472 
L 168.458291 -43.8912 
L 166.215075 -43.8912 
L 163.971859 -43.2 
L 161.728643 -43.2 
L 159.485427 -43.2 
L 157.242211 -43.2 
L 154.998995 -43.2 
L 152.755779 -43.2 
L 150.512563 -43.2 
L 148.269347 -43.2 
L 146.026131 -43.2 
L 143.782915 -43.2 
L 141.539698 -43.2 
L 139.296482 -43.2 
L 137.053266 -43.2 
L 134.81005 -43.2 
L 132.566834 -43.2 
L 130.323618 -43.2 
L 128.080402 -43.2 
L 125.837186 -43.2 
L 123.59397 -43.2 
L 121.350754 -43.2 
L 119.107538 -43.2 
L 116.864322 -43.2 
L 114.621106 -43.2 
L 112.377889 -43.2 
L 110.134673 -43.2 
L 107.891457 -43.2 
L 105.648241 -43.2 
L 103.405025 -43.2 
L 101.161809 -43.2 
L 98.918593 -43.2 
L 96.675377 -43.2 
L 94.432161 -43.2 
L 92.188945 -43.2 
L 89.945729 -43.2 
L 87.702513 -43.2 
L 85.459296 -43.2 
L 83.21608 -43.2 
L 80.972864 -43.2 
L 78.729648 -43.2 
L 76.486432 -43.2 
L 74.243216 -43.2 
L 72 -43.2 
z
" id="mc1c1740ece" style="stroke:#008000;"/>
    </defs>
    <g clip-path="url(#p4bdb543b48)">
     <use style="fill:#008000;stroke:#008000;" x="0.0" xlink:href="#mc1c1740ece" y="432.0"/>
    </g>
   </g>
   <g id="PolyCollection_3">
    <defs>
     <path d="M 72 -43.2 
L 72 -43.2 
L 74.243216 -43.2 
L 76.486432 -43.2 
L 78.729648 -43.2 
L 80.972864 -43.2 
L 83.21608 -43.2 
L 85.459296 -43.2 
L 87.702513 -43.2 
L 89.945729 -43.2 
L 92.188945 -43.2 
L 94.432161 -43.2 
L 96.675377 -43.2 
L 98.918593 -43.2 
L 101.161809 -43.2 
L 103.405025 -43.2 
L 105.648241 -43.2 
L 107.891457 -43.2 
L 110.134673 -43.2 
L 112.377889 -43.2 
L 114.621106 -43.2 
L 116.864322 -43.2 
L 119.107538 -43.2 
L 121.350754 -43.2 
L 123.59397 -43.2 
L 125.837186 -43.2 
L 128.080402 -43.2 
L 130.323618 -43.2 
L 132.566834 -43.2 
L 134.81005 -43.2 
L 137.053266 -43.2 
L 139.296482 -43.2 
L 141.539698 -43.2 
L 143.782915 -43.2 
L 146.026131 -43.2 
L 148.269347 -43.2 
L 150.512563 -43.2 
L 152.755779 -43.2 
L 154.998995 -43.2 
L 157.242211 -43.2 
L 159.485427 -43.2 
L 161.728643 -43.2 
L 163.971859 -43.2 
L 166.215075 -43.8912 
L 168.458291 -43.8912 
L 170.701508 -47.3472 
L 172.944724 -57.7152 
L 175.18794 -83.9808 
L 177.431156 -120.6144 
L 179.674372 -109.5552 
L 181.917588 -142.0416 
L 184.160804 -192.4992 
L 186.40402 -192.4992 
L 188.647236 -202.8672 
L 190.890452 -153.792 
L 193.133668 -59.0976 
L 195.376884 -47.3472 
L 197.620101 -43.8912 
L 199.863317 -43.2 
L 202.106533 -43.2 
L 204.349749 -43.2 
L 206.592965 -43.2 
L 208.836181 -43.2 
L 211.079397 -43.2 
L 213.322613 -43.2 
L 215.565829 -43.2 
L 217.809045 -43.2 
L 220.052261 -43.2 
L 222.295477 -43.2 
L 224.538693 -43.2 
L 226.78191 -43.2 
L 229.025126 -43.2 
L 231.268342 -43.2 
L 233.511558 -43.2 
L 235.754774 -43.2 
L 237.99799 -43.2 
L 240.241206 -43.2 
L 242.484422 -43.2 
L 244.727638 -43.2 
L 246.970854 -43.2 
L 249.21407 -43.2 
L 251.457286 -43.2 
L 253.700503 -43.2 
L 255.943719 -43.2 
L 258.186935 -43.2 
L 260.430151 -43.2 
L 262.673367 -43.2 
L 264.916583 -43.2 
L 267.159799 -43.2 
L 269.403015 -43.2 
L 271.646231 -43.2 
L 273.889447 -43.2 
L 276.132663 -43.2 
L 278.375879 -43.2 
L 280.619095 -43.2 
L 282.862312 -43.2 
L 285.105528 -43.2 
L 287.348744 -43.2 
L 289.59196 -43.2 
L 291.835176 -43.2 
L 294.078392 -43.2 
L 296.321608 -43.2 
L 298.564824 -43.2 
L 300.80804 -43.2 
L 303.051256 -43.2 
L 305.294472 -43.2 
L 307.537688 -43.2 
L 309.780905 -43.2 
L 312.024121 -43.2 
L 314.267337 -43.2 
L 316.510553 -43.2 
L 318.753769 -43.2 
L 320.996985 -43.2 
L 323.240201 -43.2 
L 325.483417 -43.2 
L 327.726633 -43.2 
L 329.969849 -43.2 
L 332.213065 -43.2 
L 334.456281 -43.2 
L 336.699497 -43.2 
L 338.942714 -43.2 
L 341.18593 -43.2 
L 343.429146 -43.2 
L 345.672362 -43.2 
L 347.915578 -43.2 
L 350.158794 -43.2 
L 352.40201 -43.2 
L 354.645226 -43.2 
L 356.888442 -43.2 
L 359.131658 -43.2 
L 361.374874 -43.2 
L 363.61809 -43.2 
L 365.861307 -43.2 
L 368.104523 -43.2 
L 370.347739 -43.2 
L 372.590955 -43.2 
L 374.834171 -43.2 
L 377.077387 -43.2 
L 379.320603 -45.2736 
L 381.563819 -48.7296 
L 383.807035 -63.936 
L 386.050251 -168.3072 
L 388.293467 -206.3232 
L 390.536683 -225.6768 
L 392.779899 -210.4704 
L 395.023116 -162.7776 
L 397.266332 -138.5856 
L 399.509548 -169.6896 
L 401.752764 -97.8048 
L 403.99598 -68.7744 
L 406.239196 -46.656 
L 408.482412 -45.2736 
L 410.725628 -43.2 
L 412.968844 -43.2 
L 415.21206 -43.2 
L 417.455276 -43.2 
L 419.698492 -43.2 
L 421.941709 -43.2 
L 424.184925 -43.2 
L 426.428141 -43.2 
L 428.671357 -43.2 
L 430.914573 -43.2 
L 433.157789 -43.2 
L 435.401005 -43.2 
L 437.644221 -43.2 
L 439.887437 -43.2 
L 442.130653 -43.2 
L 444.373869 -43.2 
L 446.617085 -43.2 
L 448.860302 -43.2 
L 451.103518 -43.2 
L 453.346734 -43.2 
L 455.58995 -43.2 
L 457.833166 -43.2 
L 460.076382 -43.2 
L 462.319598 -43.2 
L 464.562814 -43.2 
L 466.80603 -43.2 
L 469.049246 -43.2 
L 471.292462 -43.2 
L 473.535678 -43.2 
L 475.778894 -43.2 
L 478.022111 -43.2 
L 480.265327 -43.2 
L 482.508543 -43.2 
L 484.751759 -43.2 
L 486.994975 -43.2 
L 489.238191 -43.2 
L 491.481407 -43.2 
L 493.724623 -43.2 
L 495.967839 -43.2 
L 498.211055 -43.2 
L 500.454271 -43.2 
L 502.697487 -43.2 
L 504.940704 -43.2 
L 507.18392 -43.2 
L 509.427136 -43.2 
L 511.670352 -43.2 
L 513.913568 -43.2 
L 516.156784 -43.2 
L 518.4 -43.2 
L 518.4 -43.2 
L 518.4 -43.2 
L 516.156784 -43.2 
L 513.913568 -43.2 
L 511.670352 -43.2 
L 509.427136 -43.2 
L 507.18392 -43.2 
L 504.940704 -43.2 
L 502.697487 -43.2 
L 500.454271 -43.2 
L 498.211055 -43.2 
L 495.967839 -43.2 
L 493.724623 -43.2 
L 491.481407 -43.2 
L 489.238191 -43.2 
L 486.994975 -43.2 
L 484.751759 -43.2 
L 482.508543 -43.2 
L 480.265327 -43.2 
L 478.022111 -43.2 
L 475.778894 -43.2 
L 473.535678 -43.2 
L 471.292462 -43.2 
L 469.049246 -43.2 
L 466.80603 -43.2 
L 464.562814 -43.2 
L 462.319598 -43.2 
L 460.076382 -43.2 
L 457.833166 -43.2 
L 455.58995 -43.2 
L 453.346734 -43.2 
L 451.103518 -43.2 
L 448.860302 -43.2 
L 446.617085 -43.2 
L 444.373869 -43.2 
L 442.130653 -43.2 
L 439.887437 -43.2 
L 437.644221 -43.2 
L 435.401005 -43.2 
L 433.157789 -43.2 
L 430.914573 -43.2 
L 428.671357 -43.2 
L 426.428141 -43.2 
L 424.184925 -43.2 
L 421.941709 -43.2 
L 419.698492 -43.2 
L 417.455276 -43.2 
L 415.21206 -43.2 
L 412.968844 -43.2 
L 410.725628 -43.2 
L 408.482412 -45.2736 
L 406.239196 -46.656 
L 403.99598 -68.7744 
L 401.752764 -97.8048 
L 399.509548 -169.6896 
L 397.266332 -138.5856 
L 395.023116 -162.7776 
L 392.779899 -210.4704 
L 390.536683 -225.6768 
L 388.293467 -206.3232 
L 386.050251 -168.3072 
L 383.807035 -63.936 
L 381.563819 -48.7296 
L 379.320603 -45.2736 
L 377.077387 -43.2 
L 374.834171 -43.2 
L 372.590955 -44.5824 
L 370.347739 -48.7296 
L 368.104523 -65.3184 
L 365.861307 -92.9664 
L 363.61809 -70.848 
L 361.374874 -91.584 
L 359.131658 -146.88 
L 356.888442 -100.5696 
L 354.645226 -99.1872 
L 352.40201 -85.3632 
L 350.158794 -47.3472 
L 347.915578 -45.9648 
L 345.672362 -43.8912 
L 343.429146 -43.2 
L 341.18593 -43.8912 
L 338.942714 -43.2 
L 336.699497 -43.2 
L 334.456281 -43.2 
L 332.213065 -43.2 
L 329.969849 -43.2 
L 327.726633 -43.2 
L 325.483417 -43.2 
L 323.240201 -43.2 
L 320.996985 -43.2 
L 318.753769 -43.2 
L 316.510553 -43.2 
L 314.267337 -43.2 
L 312.024121 -43.2 
L 309.780905 -43.2 
L 307.537688 -43.2 
L 305.294472 -43.2 
L 303.051256 -43.2 
L 300.80804 -43.2 
L 298.564824 -43.2 
L 296.321608 -43.2 
L 294.078392 -43.2 
L 291.835176 -43.2 
L 289.59196 -43.2 
L 287.348744 -43.2 
L 285.105528 -43.2 
L 282.862312 -43.2 
L 280.619095 -43.2 
L 278.375879 -43.2 
L 276.132663 -43.2 
L 273.889447 -43.2 
L 271.646231 -43.2 
L 269.403015 -43.2 
L 267.159799 -43.2 
L 264.916583 -43.2 
L 262.673367 -43.2 
L 260.430151 -43.2 
L 258.186935 -43.2 
L 255.943719 -43.2 
L 253.700503 -43.2 
L 251.457286 -43.2 
L 249.21407 -43.2 
L 246.970854 -43.2 
L 244.727638 -43.2 
L 242.484422 -43.2 
L 240.241206 -43.2 
L 237.99799 -43.2 
L 235.754774 -43.2 
L 233.511558 -43.2 
L 231.268342 -43.2 
L 229.025126 -43.2 
L 226.78191 -43.2 
L 224.538693 -43.2 
L 222.295477 -43.2 
L 220.052261 -43.2 
L 217.809045 -43.2 
L 215.565829 -43.2 
L 213.322613 -43.2 
L 211.079397 -43.2 
L 208.836181 -43.2 
L 206.592965 -43.2 
L 204.349749 -43.2 
L 202.106533 -43.2 
L 199.863317 -43.2 
L 197.620101 -43.8912 
L 195.376884 -47.3472 
L 193.133668 -59.0976 
L 190.890452 -153.792 
L 188.647236 -202.8672 
L 186.40402 -192.4992 
L 184.160804 -192.4992 
L 181.917588 -142.0416 
L 179.674372 -109.5552 
L 177.431156 -120.6144 
L 175.18794 -83.9808 
L 172.944724 -57.7152 
L 170.701508 -47.3472 
L 168.458291 -43.8912 
L 166.215075 -43.8912 
L 163.971859 -43.2 
L 161.728643 -43.8912 
L 159.485427 -46.656 
L 157.242211 -56.3328 
L 154.998995 -90.8928 
L 152.755779 -90.2016 
L 150.512563 -98.496 
L 148.269347 -94.3488 
L 146.026131 -85.3632 
L 143.782915 -68.0832 
L 141.539698 -80.5248 
L 139.296482 -51.4944 
L 137.053266 -48.7296 
L 134.81005 -44.5824 
L 132.566834 -43.2 
L 130.323618 -43.2 
L 128.080402 -43.2 
L 125.837186 -43.2 
L 123.59397 -43.2 
L 121.350754 -43.2 
L 119.107538 -43.2 
L 116.864322 -43.2 
L 114.621106 -43.2 
L 112.377889 -43.2 
L 110.134673 -43.2 
L 107.891457 -43.2 
L 105.648241 -43.2 
L 103.405025 -43.2 
L 101.161809 -43.2 
L 98.918593 -43.2 
L 96.675377 -43.2 
L 94.432161 -43.2 
L 92.188945 -43.2 
L 89.945729 -43.2 
L 87.702513 -43.2 
L 85.459296 -43.2 
L 83.21608 -43.2 
L 80.972864 -43.2 
L 78.729648 -43.2 
L 76.486432 -43.2 
L 74.243216 -43.2 
L 72 -43.2 
z
" id="m5da5f53fd5" style="stroke:#ff0000;"/>
    </defs>
    <g clip-path="url(#p4bdb543b48)">
     <use style="fill:#ff0000;stroke:#ff0000;" x="0.0" xlink:href="#m5da5f53fd5" y="432.0"/>
    </g>
   </g>
   <g id="PolyCollection_4">
    <defs>
     <path d="M 72 -43.2 
L 72 -43.2 
L 74.243216 -43.2 
L 76.486432 -43.2 
L 78.729648 -43.2 
L 80.972864 -43.2 
L 83.21608 -43.2 
L 85.459296 -43.2 
L 87.702513 -43.2 
L 89.945729 -43.2 
L 92.188945 -43.2 
L 94.432161 -43.2 
L 96.675377 -43.2 
L 98.918593 -43.2 
L 101.161809 -43.2 
L 103.405025 -43.2 
L 105.648241 -43.2 
L 107.891457 -43.2 
L 110.134673 -43.2 
L 112.377889 -43.2 
L 114.621106 -43.2 
L 116.864322 -43.2 
L 119.107538 -43.2 
L 121.350754 -43.2 
L 123.59397 -43.2 
L 125.837186 -43.2 
L 128.080402 -43.2 
L 130.323618 -43.2 
L 132.566834 -43.2 
L 134.81005 -44.5824 
L 137.053266 -48.7296 
L 139.296482 -51.4944 
L 141.539698 -80.5248 
L 143.782915 -68.0832 
L 146.026131 -85.3632 
L 148.269347 -94.3488 
L 150.512563 -98.496 
L 152.755779 -90.2016 
L 154.998995 -90.8928 
L 157.242211 -56.3328 
L 159.485427 -46.656 
L 161.728643 -43.8912 
L 163.971859 -43.2 
L 166.215075 -43.8912 
L 168.458291 -43.8912 
L 170.701508 -47.3472 
L 172.944724 -57.7152 
L 175.18794 -83.9808 
L 177.431156 -120.6144 
L 179.674372 -109.5552 
L 181.917588 -142.0416 
L 184.160804 -192.4992 
L 186.40402 -192.4992 
L 188.647236 -202.8672 
L 190.890452 -153.792 
L 193.133668 -59.0976 
L 195.376884 -47.3472 
L 197.620101 -43.8912 
L 199.863317 -43.2 
L 202.106533 -43.2 
L 204.349749 -43.2 
L 206.592965 -43.2 
L 208.836181 -43.2 
L 211.079397 -43.2 
L 213.322613 -43.2 
L 215.565829 -43.2 
L 217.809045 -43.2 
L 220.052261 -43.2 
L 222.295477 -43.2 
L 224.538693 -43.2 
L 226.78191 -43.2 
L 229.025126 -43.2 
L 231.268342 -43.2 
L 233.511558 -43.2 
L 235.754774 -43.2 
L 237.99799 -43.2 
L 240.241206 -43.2 
L 242.484422 -43.2 
L 244.727638 -43.2 
L 246.970854 -43.2 
L 249.21407 -43.2 
L 251.457286 -43.2 
L 253.700503 -43.2 
L 255.943719 -43.2 
L 258.186935 -43.2 
L 260.430151 -43.2 
L 262.673367 -43.2 
L 264.916583 -43.2 
L 267.159799 -43.2 
L 269.403015 -43.2 
L 271.646231 -43.2 
L 273.889447 -43.2 
L 276.132663 -43.2 
L 278.375879 -43.2 
L 280.619095 -43.2 
L 282.862312 -43.2 
L 285.105528 -43.2 
L 287.348744 -43.2 
L 289.59196 -43.2 
L 291.835176 -43.2 
L 294.078392 -43.2 
L 296.321608 -43.2 
L 298.564824 -43.2 
L 300.80804 -43.2 
L 303.051256 -43.2 
L 305.294472 -43.2 
L 307.537688 -43.2 
L 309.780905 -43.2 
L 312.024121 -43.2 
L 314.267337 -43.2 
L 316.510553 -43.2 
L 318.753769 -43.2 
L 320.996985 -43.2 
L 323.240201 -43.2 
L 325.483417 -43.2 
L 327.726633 -43.2 
L 329.969849 -43.2 
L 332.213065 -43.2 
L 334.456281 -43.2 
L 336.699497 -43.2 
L 338.942714 -43.2 
L 341.18593 -43.8912 
L 343.429146 -43.2 
L 345.672362 -43.8912 
L 347.915578 -45.9648 
L 350.158794 -47.3472 
L 352.40201 -85.3632 
L 354.645226 -99.1872 
L 356.888442 -100.5696 
L 359.131658 -146.88 
L 361.374874 -91.584 
L 363.61809 -70.848 
L 365.861307 -92.9664 
L 368.104523 -65.3184 
L 370.347739 -48.7296 
L 372.590955 -44.5824 
L 374.834171 -43.2 
L 377.077387 -43.2 
L 379.320603 -45.2736 
L 381.563819 -48.7296 
L 383.807035 -63.936 
L 386.050251 -168.3072 
L 388.293467 -206.3232 
L 390.536683 -225.6768 
L 392.779899 -210.4704 
L 395.023116 -162.7776 
L 397.266332 -138.5856 
L 399.509548 -169.6896 
L 401.752764 -97.8048 
L 403.99598 -68.7744 
L 406.239196 -46.656 
L 408.482412 -45.2736 
L 410.725628 -43.2 
L 412.968844 -43.2 
L 415.21206 -43.2 
L 417.455276 -43.2 
L 419.698492 -43.2 
L 421.941709 -43.2 
L 424.184925 -43.2 
L 426.428141 -43.2 
L 428.671357 -43.2 
L 430.914573 -43.2 
L 433.157789 -43.2 
L 435.401005 -43.2 
L 437.644221 -43.2 
L 439.887437 -43.2 
L 442.130653 -43.2 
L 444.373869 -43.2 
L 446.617085 -43.2 
L 448.860302 -43.2 
L 451.103518 -43.2 
L 453.346734 -43.2 
L 455.58995 -43.2 
L 457.833166 -43.2 
L 460.076382 -43.2 
L 462.319598 -43.2 
L 464.562814 -43.2 
L 466.80603 -43.2 
L 469.049246 -43.2 
L 471.292462 -43.2 
L 473.535678 -43.2 
L 475.778894 -43.2 
L 478.022111 -43.2 
L 480.265327 -43.2 
L 482.508543 -43.2 
L 484.751759 -43.2 
L 486.994975 -43.2 
L 489.238191 -43.2 
L 491.481407 -43.2 
L 493.724623 -43.2 
L 495.967839 -43.2 
L 498.211055 -43.2 
L 500.454271 -43.2 
L 502.697487 -43.2 
L 504.940704 -43.2 
L 507.18392 -43.2 
L 509.427136 -43.2 
L 511.670352 -43.2 
L 513.913568 -43.2 
L 516.156784 -43.2 
L 518.4 -43.2 
L 518.4 -43.2 
L 518.4 -43.2 
L 516.156784 -43.2 
L 513.913568 -43.2 
L 511.670352 -43.2 
L 509.427136 -43.2 
L 507.18392 -43.2 
L 504.940704 -43.2 
L 502.697487 -43.2 
L 500.454271 -43.2 
L 498.211055 -43.2 
L 495.967839 -43.2 
L 493.724623 -43.2 
L 491.481407 -43.2 
L 489.238191 -43.2 
L 486.994975 -43.2 
L 484.751759 -43.2 
L 482.508543 -43.2 
L 480.265327 -43.2 
L 478.022111 -43.2 
L 475.778894 -43.2 
L 473.535678 -43.2 
L 471.292462 -43.2 
L 469.049246 -43.2 
L 466.80603 -43.2 
L 464.562814 -43.2 
L 462.319598 -43.2 
L 460.076382 -43.2 
L 457.833166 -43.2 
L 455.58995 -43.2 
L 453.346734 -43.2 
L 451.103518 -43.2 
L 448.860302 -43.2 
L 446.617085 -43.2 
L 444.373869 -43.2 
L 442.130653 -43.2 
L 439.887437 -43.2 
L 437.644221 -43.2 
L 435.401005 -43.2 
L 433.157789 -43.2 
L 430.914573 -43.2 
L 428.671357 -43.2 
L 426.428141 -43.2 
L 424.184925 -43.2 
L 421.941709 -43.2 
L 419.698492 -43.2 
L 417.455276 -43.2 
L 415.21206 -43.2 
L 412.968844 -43.2 
L 410.725628 -43.8912 
L 408.482412 -45.9648 
L 406.239196 -51.4944 
L 403.99598 -81.216 
L 401.752764 -131.6736 
L 399.509548 -198.0288 
L 397.266332 -193.1904 
L 395.023116 -259.5456 
L 392.779899 -282.3552 
L 390.536683 -276.1344 
L 388.293467 -268.5312 
L 386.050251 -182.1312 
L 383.807035 -67.392 
L 381.563819 -48.7296 
L 379.320603 -46.656 
L 377.077387 -43.2 
L 374.834171 -43.2 
L 372.590955 -44.5824 
L 370.347739 -48.7296 
L 368.104523 -65.3184 
L 365.861307 -92.9664 
L 363.61809 -70.848 
L 361.374874 -91.584 
L 359.131658 -146.88 
L 356.888442 -100.5696 
L 354.645226 -99.1872 
L 352.40201 -85.3632 
L 350.158794 -47.3472 
L 347.915578 -45.9648 
L 345.672362 -43.8912 
L 343.429146 -43.2 
L 341.18593 -43.8912 
L 338.942714 -43.2 
L 336.699497 -43.2 
L 334.456281 -43.2 
L 332.213065 -43.2 
L 329.969849 -43.2 
L 327.726633 -43.2 
L 325.483417 -43.2 
L 323.240201 -43.2 
L 320.996985 -43.2 
L 318.753769 -43.2 
L 316.510553 -43.2 
L 314.267337 -43.2 
L 312.024121 -43.2 
L 309.780905 -43.2 
L 307.537688 -43.2 
L 305.294472 -43.2 
L 303.051256 -43.2 
L 300.80804 -43.2 
L 298.564824 -43.2 
L 296.321608 -43.2 
L 294.078392 -43.2 
L 291.835176 -43.2 
L 289.59196 -43.2 
L 287.348744 -43.2 
L 285.105528 -43.2 
L 282.862312 -43.2 
L 280.619095 -43.2 
L 278.375879 -43.2 
L 276.132663 -43.2 
L 273.889447 -43.2 
L 271.646231 -43.2 
L 269.403015 -43.2 
L 267.159799 -43.2 
L 264.916583 -43.2 
L 262.673367 -43.2 
L 260.430151 -43.2 
L 258.186935 -43.2 
L 255.943719 -43.2 
L 253.700503 -43.2 
L 251.457286 -43.2 
L 249.21407 -43.2 
L 246.970854 -43.2 
L 244.727638 -43.2 
L 242.484422 -43.2 
L 240.241206 -43.2 
L 237.99799 -43.2 
L 235.754774 -43.2 
L 233.511558 -43.2 
L 231.268342 -43.2 
L 229.025126 -43.2 
L 226.78191 -43.2 
L 224.538693 -43.2 
L 222.295477 -43.2 
L 220.052261 -43.2 
L 217.809045 -43.2 
L 215.565829 -43.2 
L 213.322613 -43.2 
L 211.079397 -43.2 
L 208.836181 -43.2 
L 206.592965 -43.2 
L 204.349749 -43.2 
L 202.106533 -43.2 
L 199.863317 -43.2 
L 197.620101 -45.2736 
L 195.376884 -50.112 
L 193.133668 -69.4656 
L 190.890452 -242.9568 
L 188.647236 -305.1648 
L 186.40402 -295.488 
L 184.160804 -296.1792 
L 181.917588 -213.2352 
L 179.674372 -145.4976 
L 177.431156 -162.7776 
L 175.18794 -88.8192 
L 172.944724 -62.5536 
L 170.701508 -47.3472 
L 168.458291 -43.8912 
L 166.215075 -43.8912 
L 163.971859 -43.2 
L 161.728643 -43.8912 
L 159.485427 -46.656 
L 157.242211 -56.3328 
L 154.998995 -90.8928 
L 152.755779 -90.2016 
L 150.512563 -98.496 
L 148.269347 -94.3488 
L 146.026131 -85.3632 
L 143.782915 -68.0832 
L 141.539698 -80.5248 
L 139.296482 -51.4944 
L 137.053266 -48.7296 
L 134.81005 -44.5824 
L 132.566834 -43.2 
L 130.323618 -43.2 
L 128.080402 -43.2 
L 125.837186 -43.2 
L 123.59397 -43.2 
L 121.350754 -43.2 
L 119.107538 -43.2 
L 116.864322 -43.2 
L 114.621106 -43.2 
L 112.377889 -43.2 
L 110.134673 -43.2 
L 107.891457 -43.2 
L 105.648241 -43.2 
L 103.405025 -43.2 
L 101.161809 -43.2 
L 98.918593 -43.2 
L 96.675377 -43.2 
L 94.432161 -43.2 
L 92.188945 -43.2 
L 89.945729 -43.2 
L 87.702513 -43.2 
L 85.459296 -43.2 
L 83.21608 -43.2 
L 80.972864 -43.2 
L 78.729648 -43.2 
L 76.486432 -43.2 
L 74.243216 -43.2 
L 72 -43.2 
z
" id="md1c58226c7" style="stroke:#00bfbf;"/>
    </defs>
    <g clip-path="url(#p4bdb543b48)">
     <use style="fill:#00bfbf;stroke:#00bfbf;" x="0.0" xlink:href="#md1c58226c7" y="432.0"/>
    </g>
   </g>
   <g id="PolyCollection_5">
    <defs>
     <path d="M 72 -43.2 
L 72 -43.2 
L 74.243216 -43.2 
L 76.486432 -43.2 
L 78.729648 -43.2 
L 80.972864 -43.2 
L 83.21608 -43.2 
L 85.459296 -43.2 
L 87.702513 -43.2 
L 89.945729 -43.2 
L 92.188945 -43.2 
L 94.432161 -43.2 
L 96.675377 -43.2 
L 98.918593 -43.2 
L 101.161809 -43.2 
L 103.405025 -43.2 
L 105.648241 -43.2 
L 107.891457 -43.2 
L 110.134673 -43.2 
L 112.377889 -43.2 
L 114.621106 -43.2 
L 116.864322 -43.2 
L 119.107538 -43.2 
L 121.350754 -43.2 
L 123.59397 -43.2 
L 125.837186 -43.2 
L 128.080402 -43.2 
L 130.323618 -43.2 
L 132.566834 -43.2 
L 134.81005 -44.5824 
L 137.053266 -48.7296 
L 139.296482 -51.4944 
L 141.539698 -80.5248 
L 143.782915 -68.0832 
L 146.026131 -85.3632 
L 148.269347 -94.3488 
L 150.512563 -98.496 
L 152.755779 -90.2016 
L 154.998995 -90.8928 
L 157.242211 -56.3328 
L 159.485427 -46.656 
L 161.728643 -43.8912 
L 163.971859 -43.2 
L 166.215075 -43.8912 
L 168.458291 -43.8912 
L 170.701508 -47.3472 
L 172.944724 -62.5536 
L 175.18794 -88.8192 
L 177.431156 -162.7776 
L 179.674372 -145.4976 
L 181.917588 -213.2352 
L 184.160804 -296.1792 
L 186.40402 -295.488 
L 188.647236 -305.1648 
L 190.890452 -242.9568 
L 193.133668 -69.4656 
L 195.376884 -50.112 
L 197.620101 -45.2736 
L 199.863317 -43.2 
L 202.106533 -43.2 
L 204.349749 -43.2 
L 206.592965 -43.2 
L 208.836181 -43.2 
L 211.079397 -43.2 
L 213.322613 -43.2 
L 215.565829 -43.2 
L 217.809045 -43.2 
L 220.052261 -43.2 
L 222.295477 -43.2 
L 224.538693 -43.2 
L 226.78191 -43.2 
L 229.025126 -43.2 
L 231.268342 -43.2 
L 233.511558 -43.2 
L 235.754774 -43.2 
L 237.99799 -43.2 
L 240.241206 -43.2 
L 242.484422 -43.2 
L 244.727638 -43.2 
L 246.970854 -43.2 
L 249.21407 -43.2 
L 251.457286 -43.2 
L 253.700503 -43.2 
L 255.943719 -43.2 
L 258.186935 -43.2 
L 260.430151 -43.2 
L 262.673367 -43.2 
L 264.916583 -43.2 
L 267.159799 -43.2 
L 269.403015 -43.2 
L 271.646231 -43.2 
L 273.889447 -43.2 
L 276.132663 -43.2 
L 278.375879 -43.2 
L 280.619095 -43.2 
L 282.862312 -43.2 
L 285.105528 -43.2 
L 287.348744 -43.2 
L 289.59196 -43.2 
L 291.835176 -43.2 
L 294.078392 -43.2 
L 296.321608 -43.2 
L 298.564824 -43.2 
L 300.80804 -43.2 
L 303.051256 -43.2 
L 305.294472 -43.2 
L 307.537688 -43.2 
L 309.780905 -43.2 
L 312.024121 -43.2 
L 314.267337 -43.2 
L 316.510553 -43.2 
L 318.753769 -43.2 
L 320.996985 -43.2 
L 323.240201 -43.2 
L 325.483417 -43.2 
L 327.726633 -43.2 
L 329.969849 -43.2 
L 332.213065 -43.2 
L 334.456281 -43.2 
L 336.699497 -43.2 
L 338.942714 -43.2 
L 341.18593 -43.8912 
L 343.429146 -43.2 
L 345.672362 -43.8912 
L 347.915578 -45.9648 
L 350.158794 -47.3472 
L 352.40201 -85.3632 
L 354.645226 -99.1872 
L 356.888442 -100.5696 
L 359.131658 -146.88 
L 361.374874 -91.584 
L 363.61809 -70.848 
L 365.861307 -92.9664 
L 368.104523 -65.3184 
L 370.347739 -48.7296 
L 372.590955 -44.5824 
L 374.834171 -43.2 
L 377.077387 -43.2 
L 379.320603 -46.656 
L 381.563819 -48.7296 
L 383.807035 -67.392 
L 386.050251 -182.1312 
L 388.293467 -268.5312 
L 390.536683 -276.1344 
L 392.779899 -282.3552 
L 395.023116 -259.5456 
L 397.266332 -193.1904 
L 399.509548 -198.0288 
L 401.752764 -131.6736 
L 403.99598 -81.216 
L 406.239196 -51.4944 
L 408.482412 -45.9648 
L 410.725628 -43.8912 
L 412.968844 -43.2 
L 415.21206 -43.2 
L 417.455276 -43.2 
L 419.698492 -43.2 
L 421.941709 -43.2 
L 424.184925 -43.2 
L 426.428141 -43.2 
L 428.671357 -43.2 
L 430.914573 -43.2 
L 433.157789 -43.2 
L 435.401005 -43.2 
L 437.644221 -43.2 
L 439.887437 -43.2 
L 442.130653 -43.2 
L 444.373869 -43.2 
L 446.617085 -43.2 
L 448.860302 -43.2 
L 451.103518 -43.2 
L 453.346734 -43.2 
L 455.58995 -43.2 
L 457.833166 -43.2 
L 460.076382 -43.2 
L 462.319598 -43.2 
L 464.562814 -43.2 
L 466.80603 -43.2 
L 469.049246 -43.2 
L 471.292462 -43.2 
L 473.535678 -43.2 
L 475.778894 -43.2 
L 478.022111 -43.2 
L 480.265327 -43.2 
L 482.508543 -43.2 
L 484.751759 -43.2 
L 486.994975 -43.2 
L 489.238191 -43.2 
L 491.481407 -43.2 
L 493.724623 -43.2 
L 495.967839 -43.2 
L 498.211055 -43.2 
L 500.454271 -43.2 
L 502.697487 -43.2 
L 504.940704 -43.2 
L 507.18392 -43.2 
L 509.427136 -43.2 
L 511.670352 -43.2 
L 513.913568 -43.2 
L 516.156784 -43.2 
L 518.4 -43.2 
L 518.4 -43.2 
L 518.4 -43.2 
L 516.156784 -43.2 
L 513.913568 -43.2 
L 511.670352 -43.2 
L 509.427136 -43.2 
L 507.18392 -43.2 
L 504.940704 -43.2 
L 502.697487 -43.2 
L 500.454271 -43.2 
L 498.211055 -43.2 
L 495.967839 -43.2 
L 493.724623 -43.2 
L 491.481407 -43.2 
L 489.238191 -43.2 
L 486.994975 -43.2 
L 484.751759 -43.2 
L 482.508543 -43.2 
L 480.265327 -43.2 
L 478.022111 -43.2 
L 475.778894 -43.2 
L 473.535678 -43.2 
L 471.292462 -43.2 
L 469.049246 -43.2 
L 466.80603 -43.2 
L 464.562814 -43.2 
L 462.319598 -43.2 
L 460.076382 -43.2 
L 457.833166 -43.2 
L 455.58995 -43.2 
L 453.346734 -43.2 
L 451.103518 -43.2 
L 448.860302 -43.2 
L 446.617085 -43.2 
L 444.373869 -43.2 
L 442.130653 -43.2 
L 439.887437 -43.2 
L 437.644221 -43.2 
L 435.401005 -43.2 
L 433.157789 -43.2 
L 430.914573 -43.2 
L 428.671357 -43.2 
L 426.428141 -43.2 
L 424.184925 -43.2 
L 421.941709 -43.2 
L 419.698492 -43.8912 
L 417.455276 -43.2 
L 415.21206 -43.8912 
L 412.968844 -51.4944 
L 410.725628 -57.7152 
L 408.482412 -79.8336 
L 406.239196 -92.9664 
L 403.99598 -154.4832 
L 401.752764 -225.6768 
L 399.509548 -269.9136 
L 397.266332 -270.6048 
L 395.023116 -314.1504 
L 392.779899 -295.488 
L 390.536683 -281.664 
L 388.293467 -269.2224 
L 386.050251 -182.1312 
L 383.807035 -67.392 
L 381.563819 -48.7296 
L 379.320603 -46.656 
L 377.077387 -43.2 
L 374.834171 -43.2 
L 372.590955 -44.5824 
L 370.347739 -48.7296 
L 368.104523 -65.3184 
L 365.861307 -92.9664 
L 363.61809 -70.848 
L 361.374874 -91.584 
L 359.131658 -146.88 
L 356.888442 -100.5696 
L 354.645226 -99.1872 
L 352.40201 -85.3632 
L 350.158794 -47.3472 
L 347.915578 -45.9648 
L 345.672362 -43.8912 
L 343.429146 -43.2 
L 341.18593 -43.8912 
L 338.942714 -43.2 
L 336.699497 -43.2 
L 334.456281 -43.2 
L 332.213065 -43.2 
L 329.969849 -43.2 
L 327.726633 -43.2 
L 325.483417 -43.2 
L 323.240201 -43.2 
L 320.996985 -43.2 
L 318.753769 -43.2 
L 316.510553 -43.2 
L 314.267337 -43.2 
L 312.024121 -43.2 
L 309.780905 -43.2 
L 307.537688 -43.2 
L 305.294472 -43.2 
L 303.051256 -43.2 
L 300.80804 -43.2 
L 298.564824 -43.2 
L 296.321608 -43.2 
L 294.078392 -43.2 
L 291.835176 -43.2 
L 289.59196 -43.2 
L 287.348744 -43.2 
L 285.105528 -43.2 
L 282.862312 -43.2 
L 280.619095 -43.2 
L 278.375879 -43.2 
L 276.132663 -43.2 
L 273.889447 -43.2 
L 271.646231 -43.2 
L 269.403015 -43.2 
L 267.159799 -43.2 
L 264.916583 -43.2 
L 262.673367 -43.2 
L 260.430151 -43.2 
L 258.186935 -43.2 
L 255.943719 -43.2 
L 253.700503 -43.2 
L 251.457286 -43.2 
L 249.21407 -43.2 
L 246.970854 -43.2 
L 244.727638 -43.2 
L 242.484422 -43.2 
L 240.241206 -43.2 
L 237.99799 -43.2 
L 235.754774 -43.2 
L 233.511558 -43.2 
L 231.268342 -43.2 
L 229.025126 -43.2 
L 226.78191 -43.2 
L 224.538693 -43.2 
L 222.295477 -43.2 
L 220.052261 -43.2 
L 217.809045 -43.2 
L 215.565829 -43.2 
L 213.322613 -43.2 
L 211.079397 -43.2 
L 208.836181 -43.2 
L 206.592965 -44.5824 
L 204.349749 -43.8912 
L 202.106533 -48.0384 
L 199.863317 -57.024 
L 197.620101 -115.776 
L 195.376884 -154.4832 
L 193.133668 -180.7488 
L 190.890452 -341.1072 
L 188.647236 -361.152 
L 186.40402 -338.3424 
L 184.160804 -361.152 
L 181.917588 -232.5888 
L 179.674372 -151.0272 
L 177.431156 -164.8512 
L 175.18794 -88.8192 
L 172.944724 -62.5536 
L 170.701508 -47.3472 
L 168.458291 -43.8912 
L 166.215075 -43.8912 
L 163.971859 -43.2 
L 161.728643 -43.8912 
L 159.485427 -46.656 
L 157.242211 -56.3328 
L 154.998995 -90.8928 
L 152.755779 -90.2016 
L 150.512563 -98.496 
L 148.269347 -94.3488 
L 146.026131 -85.3632 
L 143.782915 -68.0832 
L 141.539698 -80.5248 
L 139.296482 -51.4944 
L 137.053266 -48.7296 
L 134.81005 -44.5824 
L 132.566834 -43.2 
L 130.323618 -43.2 
L 128.080402 -43.2 
L 125.837186 -43.2 
L 123.59397 -43.2 
L 121.350754 -43.2 
L 119.107538 -43.2 
L 116.864322 -43.2 
L 114.621106 -43.2 
L 112.377889 -43.2 
L 110.134673 -43.2 
L 107.891457 -43.2 
L 105.648241 -43.2 
L 103.405025 -43.2 
L 101.161809 -43.2 
L 98.918593 -43.2 
L 96.675377 -43.2 
L 94.432161 -43.2 
L 92.188945 -43.2 
L 89.945729 -43.2 
L 87.702513 -43.2 
L 85.459296 -43.2 
L 83.21608 -43.2 
L 80.972864 -43.2 
L 78.729648 -43.2 
L 76.486432 -43.2 
L 74.243216 -43.2 
L 72 -43.2 
z
" id="m1e50bba4ec" style="stroke:#bf00bf;"/>
    </defs>
    <g clip-path="url(#p4bdb543b48)">
     <use style="fill:#bf00bf;stroke:#bf00bf;" x="0.0" xlink:href="#m1e50bba4ec" y="432.0"/>
    </g>
   </g>
   <g id="line2d_1">
    <path clip-path="url(#p4bdb543b48)" d="M 72 388.8 
L 168.458291 388.8 
L 170.701508 388.1088 
L 172.944724 388.1088 
L 175.18794 379.8144 
L 177.431156 325.9008 
L 179.674372 350.784 
L 181.917588 332.1216 
L 184.160804 286.5024 
L 186.40402 294.7968 
L 188.647236 292.7232 
L 190.890452 292.032 
L 193.133668 374.2848 
L 195.376884 384.6528 
L 197.620101 388.1088 
L 199.863317 388.8 
L 381.563819 388.8 
L 383.807035 385.344 
L 386.050251 377.0496 
L 388.293467 341.7984 
L 390.536683 318.2976 
L 392.779899 327.2832 
L 395.023116 307.2384 
L 397.266332 325.2096 
L 399.509548 360.4608 
L 401.752764 340.416 
L 403.99598 364.608 
L 406.239196 385.344 
L 408.482412 386.7264 
L 410.725628 388.8 
L 518.4 388.8 
L 518.4 388.8 
" style="fill:none;stroke:#0000ff;stroke-linecap:square;"/>
   </g>
   <g id="line2d_2">
    <path clip-path="url(#p4bdb543b48)" d="M 72 388.8 
L 163.971859 388.8 
L 166.215075 388.1088 
L 168.458291 388.1088 
L 170.701508 384.6528 
L 172.944724 374.2848 
L 175.18794 348.0192 
L 177.431156 311.3856 
L 179.674372 322.4448 
L 181.917588 289.9584 
L 184.160804 239.5008 
L 186.40402 239.5008 
L 188.647236 229.1328 
L 190.890452 278.208 
L 193.133668 372.9024 
L 195.376884 384.6528 
L 197.620101 388.1088 
L 199.863317 388.8 
L 377.077387 388.8 
L 379.320603 386.7264 
L 381.563819 383.2704 
L 383.807035 368.064 
L 386.050251 263.6928 
L 388.293467 225.6768 
L 390.536683 206.3232 
L 392.779899 221.5296 
L 395.023116 269.2224 
L 397.266332 293.4144 
L 399.509548 262.3104 
L 401.752764 334.1952 
L 403.99598 363.2256 
L 406.239196 385.344 
L 408.482412 386.7264 
L 410.725628 388.8 
L 518.4 388.8 
L 518.4 388.8 
" style="fill:none;stroke:#008000;stroke-linecap:square;"/>
   </g>
   <g id="line2d_3">
    <path clip-path="url(#p4bdb543b48)" d="M 72 388.8 
L 132.566834 388.8 
L 134.81005 387.4176 
L 137.053266 383.2704 
L 139.296482 380.5056 
L 141.539698 351.4752 
L 143.782915 363.9168 
L 146.026131 346.6368 
L 148.269347 337.6512 
L 150.512563 333.504 
L 152.755779 341.7984 
L 154.998995 341.1072 
L 157.242211 375.6672 
L 159.485427 385.344 
L 161.728643 388.1088 
L 163.971859 388.8 
L 166.215075 388.1088 
L 168.458291 388.1088 
L 170.701508 384.6528 
L 172.944724 374.2848 
L 175.18794 348.0192 
L 177.431156 311.3856 
L 179.674372 322.4448 
L 181.917588 289.9584 
L 184.160804 239.5008 
L 186.40402 239.5008 
L 188.647236 229.1328 
L 190.890452 278.208 
L 193.133668 372.9024 
L 195.376884 384.6528 
L 197.620101 388.1088 
L 199.863317 388.8 
L 338.942714 388.8 
L 341.18593 388.1088 
L 343.429146 388.8 
L 345.672362 388.1088 
L 347.915578 386.0352 
L 350.158794 384.6528 
L 352.40201 346.6368 
L 354.645226 332.8128 
L 356.888442 331.4304 
L 359.131658 285.12 
L 361.374874 340.416 
L 363.61809 361.152 
L 365.861307 339.0336 
L 368.104523 366.6816 
L 370.347739 383.2704 
L 372.590955 387.4176 
L 374.834171 388.8 
L 377.077387 388.8 
L 379.320603 386.7264 
L 381.563819 383.2704 
L 383.807035 368.064 
L 386.050251 263.6928 
L 388.293467 225.6768 
L 390.536683 206.3232 
L 392.779899 221.5296 
L 395.023116 269.2224 
L 397.266332 293.4144 
L 399.509548 262.3104 
L 401.752764 334.1952 
L 403.99598 363.2256 
L 406.239196 385.344 
L 408.482412 386.7264 
L 410.725628 388.8 
L 518.4 388.8 
L 518.4 388.8 
" style="fill:none;stroke:#ff0000;stroke-linecap:square;"/>
   </g>
   <g id="line2d_4">
    <path clip-path="url(#p4bdb543b48)" d="M 72 388.8 
L 132.566834 388.8 
L 134.81005 387.4176 
L 137.053266 383.2704 
L 139.296482 380.5056 
L 141.539698 351.4752 
L 143.782915 363.9168 
L 146.026131 346.6368 
L 148.269347 337.6512 
L 150.512563 333.504 
L 152.755779 341.7984 
L 154.998995 341.1072 
L 157.242211 375.6672 
L 159.485427 385.344 
L 161.728643 388.1088 
L 163.971859 388.8 
L 166.215075 388.1088 
L 168.458291 388.1088 
L 170.701508 384.6528 
L 172.944724 369.4464 
L 175.18794 343.1808 
L 177.431156 269.2224 
L 179.674372 286.5024 
L 181.917588 218.7648 
L 184.160804 135.8208 
L 186.40402 136.512 
L 188.647236 126.8352 
L 190.890452 189.0432 
L 193.133668 362.5344 
L 195.376884 381.888 
L 197.620101 386.7264 
L 199.863317 388.8 
L 338.942714 388.8 
L 341.18593 388.1088 
L 343.429146 388.8 
L 345.672362 388.1088 
L 347.915578 386.0352 
L 350.158794 384.6528 
L 352.40201 346.6368 
L 354.645226 332.8128 
L 356.888442 331.4304 
L 359.131658 285.12 
L 361.374874 340.416 
L 363.61809 361.152 
L 365.861307 339.0336 
L 368.104523 366.6816 
L 370.347739 383.2704 
L 372.590955 387.4176 
L 374.834171 388.8 
L 377.077387 388.8 
L 379.320603 385.344 
L 381.563819 383.2704 
L 383.807035 364.608 
L 386.050251 249.8688 
L 388.293467 163.4688 
L 390.536683 155.8656 
L 392.779899 149.6448 
L 395.023116 172.4544 
L 397.266332 238.8096 
L 399.509548 233.9712 
L 401.752764 300.3264 
L 403.99598 350.784 
L 406.239196 380.5056 
L 408.482412 386.0352 
L 410.725628 388.1088 
L 412.968844 388.8 
L 518.4 388.8 
L 518.4 388.8 
" style="fill:none;stroke:#00bfbf;stroke-linecap:square;"/>
   </g>
   <g id="line2d_5">
    <path clip-path="url(#p4bdb543b48)" d="M 72 388.8 
L 132.566834 388.8 
L 134.81005 387.4176 
L 137.053266 383.2704 
L 139.296482 380.5056 
L 141.539698 351.4752 
L 143.782915 363.9168 
L 146.026131 346.6368 
L 148.269347 337.6512 
L 150.512563 333.504 
L 152.755779 341.7984 
L 154.998995 341.1072 
L 157.242211 375.6672 
L 159.485427 385.344 
L 161.728643 388.1088 
L 163.971859 388.8 
L 166.215075 388.1088 
L 168.458291 388.1088 
L 170.701508 384.6528 
L 172.944724 369.4464 
L 175.18794 343.1808 
L 177.431156 267.1488 
L 179.674372 280.9728 
L 181.917588 199.4112 
L 184.160804 70.848 
L 186.40402 93.6576 
L 188.647236 70.848 
L 190.890452 90.8928 
L 193.133668 251.2512 
L 195.376884 277.5168 
L 197.620101 316.224 
L 199.863317 374.976 
L 202.106533 383.9616 
L 204.349749 388.1088 
L 206.592965 387.4176 
L 208.836181 388.8 
L 338.942714 388.8 
L 341.18593 388.1088 
L 343.429146 388.8 
L 345.672362 388.1088 
L 347.915578 386.0352 
L 350.158794 384.6528 
L 352.40201 346.6368 
L 354.645226 332.8128 
L 356.888442 331.4304 
L 359.131658 285.12 
L 361.374874 340.416 
L 363.61809 361.152 
L 365.861307 339.0336 
L 368.104523 366.6816 
L 370.347739 383.2704 
L 372.590955 387.4176 
L 374.834171 388.8 
L 377.077387 388.8 
L 379.320603 385.344 
L 381.563819 383.2704 
L 383.807035 364.608 
L 386.050251 249.8688 
L 388.293467 162.7776 
L 390.536683 150.336 
L 392.779899 136.512 
L 395.023116 117.8496 
L 397.266332 161.3952 
L 399.509548 162.0864 
L 401.752764 206.3232 
L 403.99598 277.5168 
L 406.239196 339.0336 
L 408.482412 352.1664 
L 410.725628 374.2848 
L 412.968844 380.5056 
L 415.21206 388.1088 
L 417.455276 388.8 
L 419.698492 388.1088 
L 421.941709 388.8 
L 518.4 388.8 
L 518.4 388.8 
" style="fill:none;stroke:#bf00bf;stroke-linecap:square;"/>
   </g>
   <g id="patch_3">
    <path d="M 72 43.2 
L 518.4 43.2 
" style="fill:none;stroke:#000000;stroke-linecap:square;stroke-linejoin:miter;"/>
   </g>
   <g id="patch_4">
    <path d="M 518.4 388.8 
L 518.4 43.2 
" style="fill:none;stroke:#000000;stroke-linecap:square;stroke-linejoin:miter;"/>
   </g>
   <g id="patch_5">
    <path d="M 72 388.8 
L 518.4 388.8 
" style="fill:none;stroke:#000000;stroke-linecap:square;stroke-linejoin:miter;"/>
   </g>
   <g id="patch_6">
    <path d="M 72 388.8 
L 72 43.2 
" style="fill:none;stroke:#000000;stroke-linecap:square;stroke-linejoin:miter;"/>
   </g>
   <g id="matplotlib.axis_1">
    <g id="xtick_1">
     <g id="line2d_6">
      <defs>
       <path d="M 0 0 
L 0 -4 
" id="m0bb12b8500" style="stroke:#000000;stroke-width:0.5;"/>
      </defs>
      <g>
       <use style="stroke:#000000;stroke-width:0.5;" x="72.0000000002" xlink:href="#m0bb12b8500" y="388.8"/>
      </g>
     </g>
     <g id="line2d_7">
      <defs>
       <path d="M 0 0 
L 0 4 
" id="me664456850" style="stroke:#000000;stroke-width:0.5;"/>
      </defs>
      <g>
       <use style="stroke:#000000;stroke-width:0.5;" x="72.0000000002" xlink:href="#me664456850" y="43.2"/>
      </g>
     </g>
     <g id="text_1">
      <!-- 868.15 MHz -->
      <defs>
       <path id="BitstreamVeraSans-Roman-20"/>
       <path d="M 12.40625 8.296875 
L 28.515625 8.296875 
L 28.515625 63.921875 
L 10.984375 60.40625 
L 10.984375 69.390625 
L 28.421875 72.90625 
L 38.28125 72.90625 
L 38.28125 8.296875 
L 54.390625 8.296875 
L 54.390625 0 
L 12.40625 0 
z
" id="BitstreamVeraSans-Roman-31"/>
       <path d="M 33.015625 40.375 
Q 26.375 40.375 22.484375 35.828125 
Q 18.609375 31.296875 18.609375 23.390625 
Q 18.609375 15.53125 22.484375 10.953125 
Q 26.375 6.390625 33.015625 6.390625 
Q 39.65625 6.390625 43.53125 10.953125 
Q 47.40625 15.53125 47.40625 23.390625 
Q 47.40625 31.296875 43.53125 35.828125 
Q 39.65625 40.375 33.015625 40.375 
M 52.59375 71.296875 
L 52.59375 62.3125 
Q 48.875 64.0625 45.09375 64.984375 
Q 41.3125 65.921875 37.59375 65.921875 
Q 27.828125 65.921875 22.671875 59.328125 
Q 17.53125 52.734375 16.796875 39.40625 
Q 19.671875 43.65625 24.015625 45.921875 
Q 28.375 48.1875 33.59375 48.1875 
Q 44.578125 48.1875 50.953125 41.515625 
Q 57.328125 34.859375 57.328125 23.390625 
Q 57.328125 12.15625 50.6875 5.359375 
Q 44.046875 -1.421875 33.015625 -1.421875 
Q 20.359375 -1.421875 13.671875 8.265625 
Q 6.984375 17.96875 6.984375 36.375 
Q 6.984375 53.65625 15.1875 63.9375 
Q 23.390625 74.21875 37.203125 74.21875 
Q 40.921875 74.21875 44.703125 73.484375 
Q 48.484375 72.75 52.59375 71.296875 
" id="BitstreamVeraSans-Roman-36"/>
       <path d="M 10.796875 72.90625 
L 49.515625 72.90625 
L 49.515625 64.59375 
L 19.828125 64.59375 
L 19.828125 46.734375 
Q 21.96875 47.46875 24.109375 47.828125 
Q 26.265625 48.1875 28.421875 48.1875 
Q 40.625 48.1875 47.75 41.5 
Q 54.890625 34.8125 54.890625 23.390625 
Q 54.890625 11.625 47.5625 5.09375 
Q 40.234375 -1.421875 26.90625 -1.421875 
Q 22.3125 -1.421875 17.546875 -0.640625 
Q 12.796875 0.140625 7.71875 1.703125 
L 7.71875 11.625 
Q 12.109375 9.234375 16.796875 8.0625 
Q 21.484375 6.890625 26.703125 6.890625 
Q 35.15625 6.890625 40.078125 11.328125 
Q 45.015625 15.765625 45.015625 23.390625 
Q 45.015625 31 40.078125 35.4375 
Q 35.15625 39.890625 26.703125 39.890625 
Q 22.75 39.890625 18.8125 39.015625 
Q 14.890625 38.140625 10.796875 36.28125 
z
" id="BitstreamVeraSans-Roman-35"/>
       <path d="M 31.78125 34.625 
Q 24.75 34.625 20.71875 30.859375 
Q 16.703125 27.09375 16.703125 20.515625 
Q 16.703125 13.921875 20.71875 10.15625 
Q 24.75 6.390625 31.78125 6.390625 
Q 38.8125 6.390625 42.859375 10.171875 
Q 46.921875 13.96875 46.921875 20.515625 
Q 46.921875 27.09375 42.890625 30.859375 
Q 38.875 34.625 31.78125 34.625 
M 21.921875 38.8125 
Q 15.578125 40.375 12.03125 44.71875 
Q 8.5 49.078125 8.5 55.328125 
Q 8.5 64.0625 14.71875 69.140625 
Q 20.953125 74.21875 31.78125 74.21875 
Q 42.671875 74.21875 48.875 69.140625 
Q 55.078125 64.0625 55.078125 55.328125 
Q 55.078125 49.078125 51.53125 44.71875 
Q 48 40.375 41.703125 38.8125 
Q 48.828125 37.15625 52.796875 32.3125 
Q 56.78125 27.484375 56.78125 20.515625 
Q 56.78125 9.90625 50.3125 4.234375 
Q 43.84375 -1.421875 31.78125 -1.421875 
Q 19.734375 -1.421875 13.25 4.234375 
Q 6.78125 9.90625 6.78125 20.515625 
Q 6.78125 27.484375 10.78125 32.3125 
Q 14.796875 37.15625 21.921875 38.8125 
M 18.3125 54.390625 
Q 18.3125 48.734375 21.84375 45.5625 
Q 25.390625 42.390625 31.78125 42.390625 
Q 38.140625 42.390625 41.71875 45.5625 
Q 45.3125 48.734375 45.3125 54.390625 
Q 45.3125 60.0625 41.71875 63.234375 
Q 38.140625 66.40625 31.78125 66.40625 
Q 25.390625 66.40625 21.84375 63.234375 
Q 18.3125 60.0625 18.3125 54.390625 
" id="BitstreamVeraSans-Roman-38"/>
       <path d="M 5.515625 54.6875 
L 48.1875 54.6875 
L 48.1875 46.484375 
L 14.40625 7.171875 
L 48.1875 7.171875 
L 48.1875 0 
L 4.296875 0 
L 4.296875 8.203125 
L 38.09375 47.515625 
L 5.515625 47.515625 
z
" id="BitstreamVeraSans-Roman-7a"/>
       <path d="M 9.8125 72.90625 
L 24.515625 72.90625 
L 43.109375 23.296875 
L 61.8125 72.90625 
L 76.515625 72.90625 
L 76.515625 0 
L 66.890625 0 
L 66.890625 64.015625 
L 48.09375 14.015625 
L 38.1875 14.015625 
L 19.390625 64.015625 
L 19.390625 0 
L 9.8125 0 
z
" id="BitstreamVeraSans-Roman-4d"/>
       <path d="M 10.6875 12.40625 
L 21 12.40625 
L 21 0 
L 10.6875 0 
z
" id="BitstreamVeraSans-Roman-2e"/>
       <path d="M 9.8125 72.90625 
L 19.671875 72.90625 
L 19.671875 43.015625 
L 55.515625 43.015625 
L 55.515625 72.90625 
L 65.375 72.90625 
L 65.375 0 
L 55.515625 0 
L 55.515625 34.71875 
L 19.671875 34.71875 
L 19.671875 0 
L 9.8125 0 
z
" id="BitstreamVeraSans-Roman-48"/>
      </defs>
      <g transform="translate(36.2606250002 401.918125)scale(0.12 -0.12)">
       <use xlink:href="#BitstreamVeraSans-Roman-38"/>
       <use x="63.623046875" xlink:href="#BitstreamVeraSans-Roman-36"/>
       <use x="127.24609375" xlink:href="#BitstreamVeraSans-Roman-38"/>
       <use x="190.869140625" xlink:href="#BitstreamVeraSans-Roman-2e"/>
       <use x="222.65625" xlink:href="#BitstreamVeraSans-Roman-31"/>
       <use x="286.279296875" xlink:href="#BitstreamVeraSans-Roman-35"/>
       <use x="349.90234375" xlink:href="#BitstreamVeraSans-Roman-20"/>
       <use x="381.689453125" xlink:href="#BitstreamVeraSans-Roman-4d"/>
       <use x="467.96875" xlink:href="#BitstreamVeraSans-Roman-48"/>
       <use x="543.1640625" xlink:href="#BitstreamVeraSans-Roman-7a"/>
      </g>
     </g>
    </g>
    <g id="xtick_2">
     <g id="line2d_8">
      <g>
       <use style="stroke:#000000;stroke-width:0.5;" x="184.16080402" xlink:href="#m0bb12b8500" y="388.8"/>
      </g>
     </g>
     <g id="line2d_9">
      <g>
       <use style="stroke:#000000;stroke-width:0.5;" x="184.16080402" xlink:href="#me664456850" y="43.2"/>
      </g>
     </g>
     <g id="text_2">
      <!-- 868.20 MHz -->
      <defs>
       <path d="M 19.1875 8.296875 
L 53.609375 8.296875 
L 53.609375 0 
L 7.328125 0 
L 7.328125 8.296875 
Q 12.9375 14.109375 22.625 23.890625 
Q 32.328125 33.6875 34.8125 36.53125 
Q 39.546875 41.84375 41.421875 45.53125 
Q 43.3125 49.21875 43.3125 52.78125 
Q 43.3125 58.59375 39.234375 62.25 
Q 35.15625 65.921875 28.609375 65.921875 
Q 23.96875 65.921875 18.8125 64.3125 
Q 13.671875 62.703125 7.8125 59.421875 
L 7.8125 69.390625 
Q 13.765625 71.78125 18.9375 73 
Q 24.125 74.21875 28.421875 74.21875 
Q 39.75 74.21875 46.484375 68.546875 
Q 53.21875 62.890625 53.21875 53.421875 
Q 53.21875 48.921875 51.53125 44.890625 
Q 49.859375 40.875 45.40625 35.40625 
Q 44.1875 33.984375 37.640625 27.21875 
Q 31.109375 20.453125 19.1875 8.296875 
" id="BitstreamVeraSans-Roman-32"/>
       <path d="M 31.78125 66.40625 
Q 24.171875 66.40625 20.328125 58.90625 
Q 16.5 51.421875 16.5 36.375 
Q 16.5 21.390625 20.328125 13.890625 
Q 24.171875 6.390625 31.78125 6.390625 
Q 39.453125 6.390625 43.28125 13.890625 
Q 47.125 21.390625 47.125 36.375 
Q 47.125 51.421875 43.28125 58.90625 
Q 39.453125 66.40625 31.78125 66.40625 
M 31.78125 74.21875 
Q 44.046875 74.21875 50.515625 64.515625 
Q 56.984375 54.828125 56.984375 36.375 
Q 56.984375 17.96875 50.515625 8.265625 
Q 44.046875 -1.421875 31.78125 -1.421875 
Q 19.53125 -1.421875 13.0625 8.265625 
Q 6.59375 17.96875 6.59375 36.375 
Q 6.59375 54.828125 13.0625 64.515625 
Q 19.53125 74.21875 31.78125 74.21875 
" id="BitstreamVeraSans-Roman-30"/>
      </defs>
      <g transform="translate(148.42142902 401.918125)scale(0.12 -0.12)">
       <use xlink:href="#BitstreamVeraSans-Roman-38"/>
       <use x="63.623046875" xlink:href="#BitstreamVeraSans-Roman-36"/>
       <use x="127.24609375" xlink:href="#BitstreamVeraSans-Roman-38"/>
       <use x="190.869140625" xlink:href="#BitstreamVeraSans-Roman-2e"/>
       <use x="222.65625" xlink:href="#BitstreamVeraSans-Roman-32"/>
       <use x="286.279296875" xlink:href="#BitstreamVeraSans-Roman-30"/>
       <use x="349.90234375" xlink:href="#BitstreamVeraSans-Roman-20"/>
       <use x="381.689453125" xlink:href="#BitstreamVeraSans-Roman-4d"/>
       <use x="467.96875" xlink:href="#BitstreamVeraSans-Roman-48"/>
       <use x="543.1640625" xlink:href="#BitstreamVeraSans-Roman-7a"/>
      </g>
     </g>
    </g>
    <g id="xtick_3">
     <g id="line2d_10">
      <g>
       <use style="stroke:#000000;stroke-width:0.5;" x="296.32160804" xlink:href="#m0bb12b8500" y="388.8"/>
      </g>
     </g>
     <g id="line2d_11">
      <g>
       <use style="stroke:#000000;stroke-width:0.5;" x="296.32160804" xlink:href="#me664456850" y="43.2"/>
      </g>
     </g>
     <g id="text_3">
      <!-- 868.25 MHz -->
      <g transform="translate(260.58223304 401.918125)scale(0.12 -0.12)">
       <use xlink:href="#BitstreamVeraSans-Roman-38"/>
       <use x="63.623046875" xlink:href="#BitstreamVeraSans-Roman-36"/>
       <use x="127.24609375" xlink:href="#BitstreamVeraSans-Roman-38"/>
       <use x="190.869140625" xlink:href="#BitstreamVeraSans-Roman-2e"/>
       <use x="222.65625" xlink:href="#BitstreamVeraSans-Roman-32"/>
       <use x="286.279296875" xlink:href="#BitstreamVeraSans-Roman-35"/>
       <use x="349.90234375" xlink:href="#BitstreamVeraSans-Roman-20"/>
       <use x="381.689453125" xlink:href="#BitstreamVeraSans-Roman-4d"/>
       <use x="467.96875" xlink:href="#BitstreamVeraSans-Roman-48"/>
       <use x="543.1640625" xlink:href="#BitstreamVeraSans-Roman-7a"/>
      </g>
     </g>
    </g>
    <g id="xtick_4">
     <g id="line2d_12">
      <g>
       <use style="stroke:#000000;stroke-width:0.5;" x="408.48241206" xlink:href="#m0bb12b8500" y="388.8"/>
      </g>
     </g>
     <g id="line2d_13">
      <g>
       <use style="stroke:#000000;stroke-width:0.5;" x="408.48241206" xlink:href="#me664456850" y="43.2"/>
      </g>
     </g>
     <g id="text_4">
      <!-- 868.30 MHz -->
      <defs>
       <path d="M 40.578125 39.3125 
Q 47.65625 37.796875 51.625 33 
Q 55.609375 28.21875 55.609375 21.1875 
Q 55.609375 10.40625 48.1875 4.484375 
Q 40.765625 -1.421875 27.09375 -1.421875 
Q 22.515625 -1.421875 17.65625 -0.515625 
Q 12.796875 0.390625 7.625 2.203125 
L 7.625 11.71875 
Q 11.71875 9.328125 16.59375 8.109375 
Q 21.484375 6.890625 26.8125 6.890625 
Q 36.078125 6.890625 40.9375 10.546875 
Q 45.796875 14.203125 45.796875 21.1875 
Q 45.796875 27.640625 41.28125 31.265625 
Q 36.765625 34.90625 28.71875 34.90625 
L 20.21875 34.90625 
L 20.21875 43.015625 
L 29.109375 43.015625 
Q 36.375 43.015625 40.234375 45.921875 
Q 44.09375 48.828125 44.09375 54.296875 
Q 44.09375 59.90625 40.109375 62.90625 
Q 36.140625 65.921875 28.71875 65.921875 
Q 24.65625 65.921875 20.015625 65.03125 
Q 15.375 64.15625 9.8125 62.3125 
L 9.8125 71.09375 
Q 15.4375 72.65625 20.34375 73.4375 
Q 25.25 74.21875 29.59375 74.21875 
Q 40.828125 74.21875 47.359375 69.109375 
Q 53.90625 64.015625 53.90625 55.328125 
Q 53.90625 49.265625 50.4375 45.09375 
Q 46.96875 40.921875 40.578125 39.3125 
" id="BitstreamVeraSans-Roman-33"/>
      </defs>
      <g transform="translate(372.74303706 401.918125)scale(0.12 -0.12)">
       <use xlink:href="#BitstreamVeraSans-Roman-38"/>
       <use x="63.623046875" xlink:href="#BitstreamVeraSans-Roman-36"/>
       <use x="127.24609375" xlink:href="#BitstreamVeraSans-Roman-38"/>
       <use x="190.869140625" xlink:href="#BitstreamVeraSans-Roman-2e"/>
       <use x="222.65625" xlink:href="#BitstreamVeraSans-Roman-33"/>
       <use x="286.279296875" xlink:href="#BitstreamVeraSans-Roman-30"/>
       <use x="349.90234375" xlink:href="#BitstreamVeraSans-Roman-20"/>
       <use x="381.689453125" xlink:href="#BitstreamVeraSans-Roman-4d"/>
       <use x="467.96875" xlink:href="#BitstreamVeraSans-Roman-48"/>
       <use x="543.1640625" xlink:href="#BitstreamVeraSans-Roman-7a"/>
      </g>
     </g>
    </g>
    <g id="text_5">
     <!-- frequency -->
     <defs>
      <path d="M 37.109375 75.984375 
L 37.109375 68.5 
L 28.515625 68.5 
Q 23.6875 68.5 21.796875 66.546875 
Q 19.921875 64.59375 19.921875 59.515625 
L 19.921875 54.6875 
L 34.71875 54.6875 
L 34.71875 47.703125 
L 19.921875 47.703125 
L 19.921875 0 
L 10.890625 0 
L 10.890625 47.703125 
L 2.296875 47.703125 
L 2.296875 54.6875 
L 10.890625 54.6875 
L 10.890625 58.5 
Q 10.890625 67.625 15.140625 71.796875 
Q 19.390625 75.984375 28.609375 75.984375 
z
" id="BitstreamVeraSans-Roman-66"/>
      <path d="M 54.890625 33.015625 
L 54.890625 0 
L 45.90625 0 
L 45.90625 32.71875 
Q 45.90625 40.484375 42.875 44.328125 
Q 39.84375 48.1875 33.796875 48.1875 
Q 26.515625 48.1875 22.3125 43.546875 
Q 18.109375 38.921875 18.109375 30.90625 
L 18.109375 0 
L 9.078125 0 
L 9.078125 54.6875 
L 18.109375 54.6875 
L 18.109375 46.1875 
Q 21.34375 51.125 25.703125 53.5625 
Q 30.078125 56 35.796875 56 
Q 45.21875 56 50.046875 50.171875 
Q 54.890625 44.34375 54.890625 33.015625 
" id="BitstreamVeraSans-Roman-6e"/>
      <path d="M 32.171875 -5.078125 
Q 28.375 -14.84375 24.75 -17.8125 
Q 21.140625 -20.796875 15.09375 -20.796875 
L 7.90625 -20.796875 
L 7.90625 -13.28125 
L 13.1875 -13.28125 
Q 16.890625 -13.28125 18.9375 -11.515625 
Q 21 -9.765625 23.484375 -3.21875 
L 25.09375 0.875 
L 2.984375 54.6875 
L 12.5 54.6875 
L 29.59375 11.921875 
L 46.6875 54.6875 
L 56.203125 54.6875 
z
" id="BitstreamVeraSans-Roman-79"/>
      <path d="M 56.203125 29.59375 
L 56.203125 25.203125 
L 14.890625 25.203125 
Q 15.484375 15.921875 20.484375 11.0625 
Q 25.484375 6.203125 34.421875 6.203125 
Q 39.59375 6.203125 44.453125 7.46875 
Q 49.3125 8.734375 54.109375 11.28125 
L 54.109375 2.78125 
Q 49.265625 0.734375 44.1875 -0.34375 
Q 39.109375 -1.421875 33.890625 -1.421875 
Q 20.796875 -1.421875 13.15625 6.1875 
Q 5.515625 13.8125 5.515625 26.8125 
Q 5.515625 40.234375 12.765625 48.109375 
Q 20.015625 56 32.328125 56 
Q 43.359375 56 49.78125 48.890625 
Q 56.203125 41.796875 56.203125 29.59375 
M 47.21875 32.234375 
Q 47.125 39.59375 43.09375 43.984375 
Q 39.0625 48.390625 32.421875 48.390625 
Q 24.90625 48.390625 20.390625 44.140625 
Q 15.875 39.890625 15.1875 32.171875 
z
" id="BitstreamVeraSans-Roman-65"/>
      <path d="M 8.5 21.578125 
L 8.5 54.6875 
L 17.484375 54.6875 
L 17.484375 21.921875 
Q 17.484375 14.15625 20.5 10.265625 
Q 23.53125 6.390625 29.59375 6.390625 
Q 36.859375 6.390625 41.078125 11.03125 
Q 45.3125 15.671875 45.3125 23.6875 
L 45.3125 54.6875 
L 54.296875 54.6875 
L 54.296875 0 
L 45.3125 0 
L 45.3125 8.40625 
Q 42.046875 3.421875 37.71875 1 
Q 33.40625 -1.421875 27.6875 -1.421875 
Q 18.265625 -1.421875 13.375 4.4375 
Q 8.5 10.296875 8.5 21.578125 
" id="BitstreamVeraSans-Roman-75"/>
      <path d="M 41.109375 46.296875 
Q 39.59375 47.171875 37.8125 47.578125 
Q 36.03125 48 33.890625 48 
Q 26.265625 48 22.1875 43.046875 
Q 18.109375 38.09375 18.109375 28.8125 
L 18.109375 0 
L 9.078125 0 
L 9.078125 54.6875 
L 18.109375 54.6875 
L 18.109375 46.1875 
Q 20.953125 51.171875 25.484375 53.578125 
Q 30.03125 56 36.53125 56 
Q 37.453125 56 38.578125 55.875 
Q 39.703125 55.765625 41.0625 55.515625 
z
" id="BitstreamVeraSans-Roman-72"/>
      <path d="M 48.78125 52.59375 
L 48.78125 44.1875 
Q 44.96875 46.296875 41.140625 47.34375 
Q 37.3125 48.390625 33.40625 48.390625 
Q 24.65625 48.390625 19.8125 42.84375 
Q 14.984375 37.3125 14.984375 27.296875 
Q 14.984375 17.28125 19.8125 11.734375 
Q 24.65625 6.203125 33.40625 6.203125 
Q 37.3125 6.203125 41.140625 7.25 
Q 44.96875 8.296875 48.78125 10.40625 
L 48.78125 2.09375 
Q 45.015625 0.34375 40.984375 -0.53125 
Q 36.96875 -1.421875 32.421875 -1.421875 
Q 20.0625 -1.421875 12.78125 6.34375 
Q 5.515625 14.109375 5.515625 27.296875 
Q 5.515625 40.671875 12.859375 48.328125 
Q 20.21875 56 33.015625 56 
Q 37.15625 56 41.109375 55.140625 
Q 45.0625 54.296875 48.78125 52.59375 
" id="BitstreamVeraSans-Roman-63"/>
      <path d="M 14.796875 27.296875 
Q 14.796875 17.390625 18.875 11.75 
Q 22.953125 6.109375 30.078125 6.109375 
Q 37.203125 6.109375 41.296875 11.75 
Q 45.40625 17.390625 45.40625 27.296875 
Q 45.40625 37.203125 41.296875 42.84375 
Q 37.203125 48.484375 30.078125 48.484375 
Q 22.953125 48.484375 18.875 42.84375 
Q 14.796875 37.203125 14.796875 27.296875 
M 45.40625 8.203125 
Q 42.578125 3.328125 38.25 0.953125 
Q 33.9375 -1.421875 27.875 -1.421875 
Q 17.96875 -1.421875 11.734375 6.484375 
Q 5.515625 14.40625 5.515625 27.296875 
Q 5.515625 40.1875 11.734375 48.09375 
Q 17.96875 56 27.875 56 
Q 33.9375 56 38.25 53.625 
Q 42.578125 51.265625 45.40625 46.390625 
L 45.40625 54.6875 
L 54.390625 54.6875 
L 54.390625 -20.796875 
L 45.40625 -20.796875 
z
" id="BitstreamVeraSans-Roman-71"/>
     </defs>
     <g transform="translate(264.975 418.531875)scale(0.12 -0.12)">
      <use xlink:href="#BitstreamVeraSans-Roman-66"/>
      <use x="35.205078125" xlink:href="#BitstreamVeraSans-Roman-72"/>
      <use x="76.287109375" xlink:href="#BitstreamVeraSans-Roman-65"/>
      <use x="137.810546875" xlink:href="#BitstreamVeraSans-Roman-71"/>
      <use x="201.287109375" xlink:href="#BitstreamVeraSans-Roman-75"/>
      <use x="264.666015625" xlink:href="#BitstreamVeraSans-Roman-65"/>
      <use x="326.189453125" xlink:href="#BitstreamVeraSans-Roman-6e"/>
      <use x="389.568359375" xlink:href="#BitstreamVeraSans-Roman-63"/>
      <use x="444.548828125" xlink:href="#BitstreamVeraSans-Roman-79"/>
     </g>
    </g>
   </g>
   <g id="matplotlib.axis_2">
    <g id="ytick_1">
     <g id="line2d_14">
      <defs>
       <path d="M 0 0 
L 4 0 
" id="ma65f6d32a6" style="stroke:#000000;stroke-width:0.5;"/>
      </defs>
      <g>
       <use style="stroke:#000000;stroke-width:0.5;" x="72.0" xlink:href="#ma65f6d32a6" y="388.8"/>
      </g>
     </g>
     <g id="line2d_15">
      <defs>
       <path d="M 0 0 
L -4 0 
" id="m90e9a8a2d6" style="stroke:#000000;stroke-width:0.5;"/>
      </defs>
      <g>
       <use style="stroke:#000000;stroke-width:0.5;" x="518.4" xlink:href="#m90e9a8a2d6" y="388.8"/>
      </g>
     </g>
     <g id="text_6">
      <!-- 0 -->
      <g transform="translate(60.365 392.11125)scale(0.12 -0.12)">
       <use xlink:href="#BitstreamVeraSans-Roman-30"/>
      </g>
     </g>
    </g>
    <g id="ytick_2">
     <g id="line2d_16">
      <g>
       <use style="stroke:#000000;stroke-width:0.5;" x="72.0" xlink:href="#ma65f6d32a6" y="319.68"/>
      </g>
     </g>
     <g id="line2d_17">
      <g>
       <use style="stroke:#000000;stroke-width:0.5;" x="518.4" xlink:href="#m90e9a8a2d6" y="319.68"/>
      </g>
     </g>
     <g id="text_7">
      <!-- 100 -->
      <g transform="translate(45.095 322.99125)scale(0.12 -0.12)">
       <use xlink:href="#BitstreamVeraSans-Roman-31"/>
       <use x="63.623046875" xlink:href="#BitstreamVeraSans-Roman-30"/>
       <use x="127.24609375" xlink:href="#BitstreamVeraSans-Roman-30"/>
      </g>
     </g>
    </g>
    <g id="ytick_3">
     <g id="line2d_18">
      <g>
       <use style="stroke:#000000;stroke-width:0.5;" x="72.0" xlink:href="#ma65f6d32a6" y="250.56"/>
      </g>
     </g>
     <g id="line2d_19">
      <g>
       <use style="stroke:#000000;stroke-width:0.5;" x="518.4" xlink:href="#m90e9a8a2d6" y="250.56"/>
      </g>
     </g>
     <g id="text_8">
      <!-- 200 -->
      <g transform="translate(45.095 253.87125)scale(0.12 -0.12)">
       <use xlink:href="#BitstreamVeraSans-Roman-32"/>
       <use x="63.623046875" xlink:href="#BitstreamVeraSans-Roman-30"/>
       <use x="127.24609375" xlink:href="#BitstreamVeraSans-Roman-30"/>
      </g>
     </g>
    </g>
    <g id="ytick_4">
     <g id="line2d_20">
      <g>
       <use style="stroke:#000000;stroke-width:0.5;" x="72.0" xlink:href="#ma65f6d32a6" y="181.44"/>
      </g>
     </g>
     <g id="line2d_21">
      <g>
       <use style="stroke:#000000;stroke-width:0.5;" x="518.4" xlink:href="#m90e9a8a2d6" y="181.44"/>
      </g>
     </g>
     <g id="text_9">
      <!-- 300 -->
      <g transform="translate(45.095 184.75125)scale(0.12 -0.12)">
       <use xlink:href="#BitstreamVeraSans-Roman-33"/>
       <use x="63.623046875" xlink:href="#BitstreamVeraSans-Roman-30"/>
       <use x="127.24609375" xlink:href="#BitstreamVeraSans-Roman-30"/>
      </g>
     </g>
    </g>
    <g id="ytick_5">
     <g id="line2d_22">
      <g>
       <use style="stroke:#000000;stroke-width:0.5;" x="72.0" xlink:href="#ma65f6d32a6" y="112.32"/>
      </g>
     </g>
     <g id="line2d_23">
      <g>
       <use style="stroke:#000000;stroke-width:0.5;" x="518.4" xlink:href="#m90e9a8a2d6" y="112.32"/>
      </g>
     </g>
     <g id="text_10">
      <!-- 400 -->
      <defs>
       <path d="M 37.796875 64.3125 
L 12.890625 25.390625 
L 37.796875 25.390625 
z
M 35.203125 72.90625 
L 47.609375 72.90625 
L 47.609375 25.390625 
L 58.015625 25.390625 
L 58.015625 17.1875 
L 47.609375 17.1875 
L 47.609375 0 
L 37.796875 0 
L 37.796875 17.1875 
L 4.890625 17.1875 
L 4.890625 26.703125 
z
" id="BitstreamVeraSans-Roman-34"/>
      </defs>
      <g transform="translate(45.095 115.63125)scale(0.12 -0.12)">
       <use xlink:href="#BitstreamVeraSans-Roman-34"/>
       <use x="63.623046875" xlink:href="#BitstreamVeraSans-Roman-30"/>
       <use x="127.24609375" xlink:href="#BitstreamVeraSans-Roman-30"/>
      </g>
     </g>
    </g>
    <g id="ytick_6">
     <g id="line2d_24">
      <g>
       <use style="stroke:#000000;stroke-width:0.5;" x="72.0" xlink:href="#ma65f6d32a6" y="43.2"/>
      </g>
     </g>
     <g id="line2d_25">
      <g>
       <use style="stroke:#000000;stroke-width:0.5;" x="518.4" xlink:href="#m90e9a8a2d6" y="43.2"/>
      </g>
     </g>
     <g id="text_11">
      <!-- 500 -->
      <g transform="translate(45.095 46.51125)scale(0.12 -0.12)">
       <use xlink:href="#BitstreamVeraSans-Roman-35"/>
       <use x="63.623046875" xlink:href="#BitstreamVeraSans-Roman-30"/>
       <use x="127.24609375" xlink:href="#BitstreamVeraSans-Roman-30"/>
      </g>
     </g>
    </g>
   </g>
   <g id="legend_1">
    <g id="patch_7">
     <path d="M 422.73225 179.21625 
L 511.2 179.21625 
L 511.2 50.4 
L 422.73225 50.4 
z
" style="fill:#ffffff;stroke:#000000;stroke-linejoin:miter;"/>
    </g>
    <g id="text_12">
     <!-- id -->
     <defs>
      <path d="M 45.40625 46.390625 
L 45.40625 75.984375 
L 54.390625 75.984375 
L 54.390625 0 
L 45.40625 0 
L 45.40625 8.203125 
Q 42.578125 3.328125 38.25 0.953125 
Q 33.9375 -1.421875 27.875 -1.421875 
Q 17.96875 -1.421875 11.734375 6.484375 
Q 5.515625 14.40625 5.515625 27.296875 
Q 5.515625 40.1875 11.734375 48.09375 
Q 17.96875 56 27.875 56 
Q 33.9375 56 38.25 53.625 
Q 42.578125 51.265625 45.40625 46.390625 
M 14.796875 27.296875 
Q 14.796875 17.390625 18.875 11.75 
Q 22.953125 6.109375 30.078125 6.109375 
Q 37.203125 6.109375 41.296875 11.75 
Q 45.40625 17.390625 45.40625 27.296875 
Q 45.40625 37.203125 41.296875 42.84375 
Q 37.203125 48.484375 30.078125 48.484375 
Q 22.953125 48.484375 18.875 42.84375 
Q 14.796875 37.203125 14.796875 27.296875 
" id="BitstreamVeraSans-Roman-64"/>
      <path d="M 9.421875 54.6875 
L 18.40625 54.6875 
L 18.40625 0 
L 9.421875 0 
z
M 9.421875 75.984375 
L 18.40625 75.984375 
L 18.40625 64.59375 
L 9.421875 64.59375 
z
" id="BitstreamVeraSans-Roman-69"/>
     </defs>
     <g transform="translate(461.4901875 65.278125)scale(0.12 -0.12)">
      <use xlink:href="#BitstreamVeraSans-Roman-69"/>
      <use x="27.783203125" xlink:href="#BitstreamVeraSans-Roman-64"/>
     </g>
    </g>
    <g id="patch_8">
     <path d="M 428.49225 85.9155 
L 457.29225 85.9155 
L 457.29225 75.8355 
L 428.49225 75.8355 
z
" style="fill:#0000ff;stroke:#000000;stroke-linejoin:miter;"/>
    </g>
    <g id="text_13">
     <!-- 798a -->
     <defs>
      <path d="M 10.984375 1.515625 
L 10.984375 10.5 
Q 14.703125 8.734375 18.5 7.8125 
Q 22.3125 6.890625 25.984375 6.890625 
Q 35.75 6.890625 40.890625 13.453125 
Q 46.046875 20.015625 46.78125 33.40625 
Q 43.953125 29.203125 39.59375 26.953125 
Q 35.25 24.703125 29.984375 24.703125 
Q 19.046875 24.703125 12.671875 31.3125 
Q 6.296875 37.9375 6.296875 49.421875 
Q 6.296875 60.640625 12.9375 67.421875 
Q 19.578125 74.21875 30.609375 74.21875 
Q 43.265625 74.21875 49.921875 64.515625 
Q 56.59375 54.828125 56.59375 36.375 
Q 56.59375 19.140625 48.40625 8.859375 
Q 40.234375 -1.421875 26.421875 -1.421875 
Q 22.703125 -1.421875 18.890625 -0.6875 
Q 15.09375 0.046875 10.984375 1.515625 
M 30.609375 32.421875 
Q 37.25 32.421875 41.125 36.953125 
Q 45.015625 41.5 45.015625 49.421875 
Q 45.015625 57.28125 41.125 61.84375 
Q 37.25 66.40625 30.609375 66.40625 
Q 23.96875 66.40625 20.09375 61.84375 
Q 16.21875 57.28125 16.21875 49.421875 
Q 16.21875 41.5 20.09375 36.953125 
Q 23.96875 32.421875 30.609375 32.421875 
" id="BitstreamVeraSans-Roman-39"/>
      <path d="M 34.28125 27.484375 
Q 23.390625 27.484375 19.1875 25 
Q 14.984375 22.515625 14.984375 16.5 
Q 14.984375 11.71875 18.140625 8.90625 
Q 21.296875 6.109375 26.703125 6.109375 
Q 34.1875 6.109375 38.703125 11.40625 
Q 43.21875 16.703125 43.21875 25.484375 
L 43.21875 27.484375 
z
M 52.203125 31.203125 
L 52.203125 0 
L 43.21875 0 
L 43.21875 8.296875 
Q 40.140625 3.328125 35.546875 0.953125 
Q 30.953125 -1.421875 24.3125 -1.421875 
Q 15.921875 -1.421875 10.953125 3.296875 
Q 6 8.015625 6 15.921875 
Q 6 25.140625 12.171875 29.828125 
Q 18.359375 34.515625 30.609375 34.515625 
L 43.21875 34.515625 
L 43.21875 35.40625 
Q 43.21875 41.609375 39.140625 45 
Q 35.0625 48.390625 27.6875 48.390625 
Q 23 48.390625 18.546875 47.265625 
Q 14.109375 46.140625 10.015625 43.890625 
L 10.015625 52.203125 
Q 14.9375 54.109375 19.578125 55.046875 
Q 24.21875 56 28.609375 56 
Q 40.484375 56 46.34375 49.84375 
Q 52.203125 43.703125 52.203125 31.203125 
" id="BitstreamVeraSans-Roman-61"/>
      <path d="M 8.203125 72.90625 
L 55.078125 72.90625 
L 55.078125 68.703125 
L 28.609375 0 
L 18.3125 0 
L 43.21875 64.59375 
L 8.203125 64.59375 
z
" id="BitstreamVeraSans-Roman-37"/>
     </defs>
     <g transform="translate(468.81225 85.9155)scale(0.144 -0.144)">
      <use xlink:href="#BitstreamVeraSans-Roman-37"/>
      <use x="63.623046875" xlink:href="#BitstreamVeraSans-Roman-39"/>
      <use x="127.24609375" xlink:href="#BitstreamVeraSans-Roman-38"/>
      <use x="190.869140625" xlink:href="#BitstreamVeraSans-Roman-61"/>
     </g>
    </g>
    <g id="patch_9">
     <path d="M 428.49225 107.052 
L 457.29225 107.052 
L 457.29225 96.972 
L 428.49225 96.972 
z
" style="fill:#008000;stroke:#000000;stroke-linejoin:miter;"/>
    </g>
    <g id="text_14">
     <!-- 79fd -->
     <g transform="translate(468.81225 107.052)scale(0.144 -0.144)">
      <use xlink:href="#BitstreamVeraSans-Roman-37"/>
      <use x="63.623046875" xlink:href="#BitstreamVeraSans-Roman-39"/>
      <use x="127.24609375" xlink:href="#BitstreamVeraSans-Roman-66"/>
      <use x="162.451171875" xlink:href="#BitstreamVeraSans-Roman-64"/>
     </g>
    </g>
    <g id="patch_10">
     <path d="M 428.49225 128.1885 
L 457.29225 128.1885 
L 457.29225 118.1085 
L 428.49225 118.1085 
z
" style="fill:#ff0000;stroke:#000000;stroke-linejoin:miter;"/>
    </g>
    <g id="text_15">
     <!-- 7ade -->
     <g transform="translate(468.81225 128.1885)scale(0.144 -0.144)">
      <use xlink:href="#BitstreamVeraSans-Roman-37"/>
      <use x="63.623046875" xlink:href="#BitstreamVeraSans-Roman-61"/>
      <use x="124.90234375" xlink:href="#BitstreamVeraSans-Roman-64"/>
      <use x="188.37890625" xlink:href="#BitstreamVeraSans-Roman-65"/>
     </g>
    </g>
    <g id="patch_11">
     <path d="M 428.49225 149.325 
L 457.29225 149.325 
L 457.29225 139.245 
L 428.49225 139.245 
z
" style="fill:#00bfbf;stroke:#000000;stroke-linejoin:miter;"/>
    </g>
    <g id="text_16">
     <!-- 7b71 -->
     <defs>
      <path d="M 48.6875 27.296875 
Q 48.6875 37.203125 44.609375 42.84375 
Q 40.53125 48.484375 33.40625 48.484375 
Q 26.265625 48.484375 22.1875 42.84375 
Q 18.109375 37.203125 18.109375 27.296875 
Q 18.109375 17.390625 22.1875 11.75 
Q 26.265625 6.109375 33.40625 6.109375 
Q 40.53125 6.109375 44.609375 11.75 
Q 48.6875 17.390625 48.6875 27.296875 
M 18.109375 46.390625 
Q 20.953125 51.265625 25.265625 53.625 
Q 29.59375 56 35.59375 56 
Q 45.5625 56 51.78125 48.09375 
Q 58.015625 40.1875 58.015625 27.296875 
Q 58.015625 14.40625 51.78125 6.484375 
Q 45.5625 -1.421875 35.59375 -1.421875 
Q 29.59375 -1.421875 25.265625 0.953125 
Q 20.953125 3.328125 18.109375 8.203125 
L 18.109375 0 
L 9.078125 0 
L 9.078125 75.984375 
L 18.109375 75.984375 
z
" id="BitstreamVeraSans-Roman-62"/>
     </defs>
     <g transform="translate(468.81225 149.325)scale(0.144 -0.144)">
      <use xlink:href="#BitstreamVeraSans-Roman-37"/>
      <use x="63.623046875" xlink:href="#BitstreamVeraSans-Roman-62"/>
      <use x="127.099609375" xlink:href="#BitstreamVeraSans-Roman-37"/>
      <use x="190.72265625" xlink:href="#BitstreamVeraSans-Roman-31"/>
     </g>
    </g>
    <g id="patch_12">
     <path d="M 428.49225 170.4615 
L 457.29225 170.4615 
L 457.29225 160.3815 
L 428.49225 160.3815 
z
" style="fill:#bf00bf;stroke:#000000;stroke-linejoin:miter;"/>
    </g>
    <g id="text_17">
     <!-- 7d1b -->
     <g transform="translate(468.81225 170.4615)scale(0.144 -0.144)">
      <use xlink:href="#BitstreamVeraSans-Roman-37"/>
      <use x="63.623046875" xlink:href="#BitstreamVeraSans-Roman-64"/>
      <use x="127.099609375" xlink:href="#BitstreamVeraSans-Roman-31"/>
      <use x="190.72265625" xlink:href="#BitstreamVeraSans-Roman-62"/>
     </g>
    </g>
   </g>
  </g>
 </g>
 <defs>
  <clipPath id="p4bdb543b48">
   <rect height="345.6" width="446.4" x="72.0" y="43.2"/>
  </clipPath>
 </defs>
</svg>
